<svg
   xmlns:dc="http://purl.org/dc/elements/1.1/"
   xmlns:cc="http://creativecommons.org/ns#"
   xmlns:rdf="http://www.w3.org/1999/02/22-rdf-syntax-ns#"
   xmlns:svg="http://www.w3.org/2000/svg"
   xmlns="http://www.w3.org/2000/svg"
   viewBox="0 0 160 100">
  <path
     d="M87.239 81.253h3.712c11.137-.557 18.934-9.279 18.934-19.674 0-3.528-.743-7.054-2.414-9.839H87.239v29.513zM66.821 51.555h18.563v29.698H66.821zM106.357 49.698c-1.856-2.599-4.455-4.64-7.239-6.125 3.341-2.412 5.569-6.312 5.569-10.579 0-7.24-5.755-12.994-12.993-12.994h-4.456v29.699l19.119-.001zM66.821 20h18.563v29.699H66.821zM137.355 81.253h3.711C152.205 80.696 160 71.974 160 61.579c0-3.528-.742-7.054-2.412-9.839h-20.232v29.513zM116.937 51.555h18.561v29.698h-18.561zM156.473 49.698c-1.855-2.599-4.453-4.64-7.238-6.125 3.342-2.412 5.568-6.312 5.568-10.579 0-7.24-5.754-12.994-12.994-12.994h-4.453v29.699l19.117-.001zM116.937 20h18.561v29.699h-18.561zM10.581 51.555L0 81.253h15.406l4.455-12.993h9.838V51.555zM29.699 20h-7.981L11.137 49.698h18.562zM31.555 68.26h9.838l4.454 12.993h15.406l-10.58-29.698H31.555zM50.116 49.698L39.536 20h-7.981v29.698z"
     id="path2"
     fill="#FF000F" />  
</svg>
