<svg version="1.1" id="Слой_1" xmlns="http://www.w3.org/2000/svg" x="0" y="0" viewBox="0 0 160 100" xml:space="preserve"><style>.st0{fill:#3b51a3}</style><path class="st0" d="M55.4 54l-.6 3.9c-.8-.6-1.7-.9-2.8-.9-.9 0-1.8.4-2.4 1.2-.6.7-1 1.6-1 2.5 0 .7.2 1.3.7 1.7.4.5 1 .7 1.7.7 1.2 0 2.2-.3 3-.9l-.6 3.9c-1.2.5-2.4.8-3.6.8-1.9 0-3.3-.5-4.4-1.5-1.1-1-1.6-2.3-1.6-4 0-.4 0-.9.1-1.3.3-2.2 1.4-3.9 3.1-5.2 1.5-1.1 3.1-1.7 5-1.7 1.2 0 2.4.3 3.4.8M66.6 53.6l-.5 3.6h-4.4l-.1 1.2h3.9l-.5 3.2h-4l-.2 1.3h4.4l-.6 3.6h-9l2.1-12.9zM75 57.7v-.3c0-.5-.3-.8-1-.8h-1l-.4 2.2c.7 0 1.3-.1 1.6-.2.5-.1.7-.4.8-.9m-.5 4.7v-.2c0-.6-.4-.9-1.1-.9h-1.1l-.3 2.1h1.1c.3 0 .6-.1.9-.2.3-.2.4-.5.5-.8m4.8-5.7c-.2 1.2-1 2-2.4 2.4.8.2 1.4.5 1.8 1 .4.5.7 1.1.7 1.8 0 .2 0 .4-.1.6-.2 1.1-.7 2-1.5 2.6-1 .8-2.4 1.2-4.2 1.2H67l2-12.8h6.4c2.6 0 3.9.8 3.9 2.4v.8M95.8 53.6L90.4 60l3.3 6.5h-5.3l-2.2-5.3-.9 5.3h-4.6l2.1-12.9h4.6l-.8 5.1 4-5.1zM103 61.1l-.3-3.8-1.5 3.8h1.8zm5.3 5.4h-4.9l-.2-2.3h-3.4l-.9 2.3H94l5.8-12.8h6.7l1.8 12.8zM116.7 62.4v-.2c0-.5-.5-.7-1.4-.7h-.3l-.3 1.9h.5c.9 0 1.4-.3 1.5-1m4.9-8.8l-.6 3.6h-5.3l-.2 1.2h1.5c3 0 4.5 1.1 4.5 3.2 0 .2 0 .5-.1.8-.2 1.2-.7 2.1-1.7 2.8-1.1.8-2.6 1.3-4.5 1.3h-5.6l2-12.8 10-.1zM133.7 53.6l-.5 3.6h-4.3l-.2 1.2h3.9l-.5 3.2h-4l-.2 1.3h4.4l-.6 3.6h-8.9l2-12.9zM147.8 53.6l-2 12.8h-4.6l1.5-9.2h-2l-.7 4.4c-.3 1.7-.8 2.9-1.7 3.7-.9.8-2.2 1.3-4 1.3-.3 0-.9-.1-1.7-.2l.9-3.6c.3.1.6.2.9.2.6 0 1-.6 1.2-1.7l1.2-7.7h11zM155.6 62.2V62c0-.6-.4-.9-1.3-.9h-.4l-.4 2.3h.5c1 0 1.5-.4 1.6-1.2m4.7-.2c-.2 1.3-.8 2.3-1.7 3.1-1.1.9-2.6 1.4-4.5 1.4h-5.6l2-12.8h4.6l-.7 4.4h1.5c1.4 0 2.5.3 3.3.9.8.6 1.1 1.3 1.1 2.4v.6M8.5 64.7c1 .6 2.1.8 3.1.9-7.7-3.1-6.4-13.9.1-16.1-7 1.9-8.5 9.7-3.2 15.2M12.7 48c-5 0-9.2 4.1-9.2 9.1 0 3 1.5 5.7 3.8 7.4 1.2 1.4 2.8 2.7 4.7 3.7l.3-.7c-.9-.5-1.8-1.1-2.7-1.8.9.3 1.9.5 3 .5h.8c-.5-.5-1-1.1-1.4-1.7-3.6-1.7-5.1-8.5-1.7-11.4.1-.4.3-.9.5-1.3-4.7 3.1-3.6 9.7.1 12.9-5.8-3.3-5-11.9.4-14 .4-.7.8-1.3 1.2-1.9-6.1.3-10.8 7.1-6.5 14-3.8-4-2.6-14 7-14.6.1-.1.1-.2.2-.2h-.5m.8 11.1h.4c0-.1 0-.1-.1-.2 0-.1-.1-.1-.2-.2s-.2-.1-.3-.1c-.1 0-.2-.1-.4-.1s-.3 0-.5.1l-.3.3c-.1.1-.1.3-.1.5s0 .3.1.5l.3.3c.1.1.3.1.5.1s.3 0 .4-.1c.1-.1.2-.1.3-.2.1-.1.1-.2.2-.3h-.4c0 .1 0 .1-.1.2l-.1.1H13c-.1 0-.2 0-.3-.1-.1 0-.1-.1-.2-.2 0-.1-.1-.2-.1-.3 0-.2 0-.4.1-.4.1-.1.2-.1.3-.1.1 0 .3 0 .3.1.3-.1.4 0 .4.1m1.5.5s-.1.1-.3.1h-.1s-.1 0-.1.1v.1s0 .1.1.1H14.9c.1 0 .1 0 .1-.1l.1-.1c-.1-.1-.1-.2-.1-.2zm.4.3v-.7c0-.1 0-.2-.1-.2h-.8c-.1 0-.2.1-.2.1-.1.1-.1.1-.1.3h.4s0-.1.1-.1h.4l.1.1c0 .1 0 .1-.1.1h-.3c-.1 0-.2 0-.2.1-.1 0-.1.1-.1.1 0 .1-.1.1-.1.2s0 .1.1.2c0 .1.1.1.2.1h.5c.1 0 .1-.1.2-.1v.1h.4l-.1-.1c-.3 0-.3-.1-.3-.2m1.6.3V59h-.4v.5h-.5V59h-.4v1.2h.4v-.5h.5v.5h.4zm.6 0v-.4l.2-.1.4.5h.5l-.5-.7.5-.4v.2h.3v.9h.4v-.9h.4V59h-1.6l-.5.5V59h-.4v1.2h.3zm3.2-.8H20v.3h.8v-.3zm.7-.6h.8v1.3h.4v-1.6h-1.6v1.6h.4v-1.3zm2.4.7c0-.1 0-.2-.1-.2s-.1-.1-.2-.1c-.2 0-.3.1-.3.3h.6zm.4.3h-.4s0 .1-.1.1h-.4c-.1 0-.1-.1-.1-.1v-.1h1v-.1c0-.1 0-.2-.1-.3 0-.1-.1-.2-.2-.2 0-.1-.1-.1-.1-.1h-.2c-.1 0-.3 0-.4.1-.1 0-.2.1-.2.2s-.1.1-.1.2v.2c0 .1 0 .2.1.3 0 .1.1.2.2.2.1.1.1.1.2.1h.3c.1 0 .3 0 .4-.1 0-.1 0-.2.1-.4m.6.4h.4v-.9h.4V59h-1.3v.3h.4v.9zm1.9-.7c0-.1 0-.2-.1-.2s-.1-.1-.2-.1c-.2 0-.3.1-.3.3h.6zm.4.3h-.4s0 .1-.1.1h-.4l-.1-.1v-.1h1v-.1c0-.1 0-.2-.1-.3 0-.1-.1-.2-.2-.2s-.1-.1-.2-.1h-.2c-.1 0-.3 0-.4.1-.1 0-.2.1-.2.2s-.1.1-.1.2v.2c0 .1 0 .2.1.3 0 .1.1.2.2.2.1.1.1.1.2.1h.3c.1 0 .3 0 .4-.1 0-.1.1-.2.2-.4m1 .2c.1 0 .1 0 .2-.1l.1-.1v-.2c0-.1 0-.2-.1-.3-.1-.1-.1-.1-.2-.1-.2 0-.3.1-.3.4 0 .1 0 .2.1.2 0 .1 0 .2.2.2m-.4-.8V59h-.4v1.7h.4V60c.1.1.2.2.4.2.1 0 .3 0 .3-.1.1-.1.2-.1.2-.2s.1-.2.1-.3v-.3c0-.1-.1-.1-.1-.2-.1-.1-.1-.1-.2-.1h-.2c-.1 0-.2 0-.3.1-.1-.1-.1 0-.2.1zm2 0c-.1 0-.2 0-.3.1 0 .1-.1.2-.1.3 0 .1 0 .2.1.3.1.1.1.1.3.1.1 0 .2 0 .3-.1.1-.1.1-.2.1-.3 0-.1 0-.2-.1-.3-.1 0-.2-.1-.3-.1m-.4-.6c-.1.1-.2.2-.2.3-.1.1-.1.3-.1.6v.1c0 .1 0 .2.1.3 0 .1.1.1.2.2s.1.1.2.1h.6c.1 0 .2-.1.2-.1l.2-.2c0-.1.1-.2.1-.3 0-.1 0-.2-.1-.3 0-.1-.1-.1-.2-.2s-.1-.1-.2-.1h-.3c-.1 0-.2 0-.2.1-.1 0-.1.1-.2.1 0-.1.1-.1.1-.2l.1-.1H30.3c.1 0 .1-.1.2-.1l.1-.1v-.1h-.3-.5c-.3-.1-.4 0-.4 0m2.2 1.6l.5-1.2h-.4l-.3.9-.3-.9h-.4l.5 1.3c0 .1 0 .1-.1.1h-.2-.1v.3h.4c.1 0 .1 0 .1-.1l.1-.1c.2-.1.2-.2.2-.3M33 60c.1 0 .1 0 .2-.1l.1-.1v-.2c0-.1 0-.2-.1-.3-.1-.1-.1-.1-.2-.1-.2 0-.3.1-.3.4 0 .1 0 .2.1.2 0 .1.1.2.2.2m-.4-.8V59h-.4v1.7h.4V60c.1.1.2.2.4.2.1 0 .3 0 .3-.1.1-.1.2-.1.2-.2s.1-.2.1-.3v-.3c0-.1-.1-.1-.1-.2-.1-.1-.1-.1-.2-.1h-.2c-.1 0-.2 0-.3.1-.1-.1-.1 0-.2.1zm2.3 0V59h-1v1.2h.4v-.9h.6zm-7.2 5.5v-.3h-.5l-.1.1c0 .1 0 .1.1.1h.2l.3.1zm-.9.7h.5l.4-.5h.1v.5h.2v-1.2h-.6c-.4 0-.6.1-.6.4 0 .1 0 .1.1.2 0 .1.1.1.1.1h.2l-.4.5zm-.2 0v-1.2h-.4l-.5.7v-.7h-.4v1.2h.4l.5-.7v.7h.4zM25 65h-.4v.1s0 .1-.1.1h-.1c-.1 0-.2 0-.2-.1l-.1-.1v-.2-.2c0-.1.1-.1.1-.1s.1-.1.2-.1.2.1.3.2h.3c0-.1-.1-.2-.1-.3-.1-.1-.2-.1-.2-.1h-.3c-.2 0-.3 0-.4.1-.1.1-.2.1-.2.2s-.1.2-.1.3v.2c0 .1.1.1.1.2.1.1.1.1.2.1s.2.1.3.1c.1 0 .2 0 .3-.1.1 0 .2-.1.2-.1 0-.1.1-.1.1-.2.1.1.1 0 .1 0m-1.5 0h-.4v.1s0 .1-.1.1h-.1c-.1 0-.2 0-.2-.1l-.1-.1v-.2-.2c0-.1.1-.1.1-.1s.1-.1.2-.1.2.1.3.2h.4c0-.1-.1-.2-.1-.3-.1-.1-.2-.1-.2-.1H23c-.2 0-.3 0-.4.1-.1.1-.2.1-.2.2s-.1.2-.1.3v.2c0 .1.1.1.1.2.1.1.1.1.2.1s.2.1.3.1c.1 0 .2 0 .3-.1.1 0 .2-.1.2-.1 0-.1.1-.1.1-.2 0 .1 0 0 0 0m-2.2-.5c-.1 0-.2 0-.3.1-.1.1-.1.2-.1.3 0 .1 0 .2.1.3.1.1.1.1.3.1.1 0 .2 0 .3-.1.1-.1.1-.2.1-.3s0-.2-.1-.3c-.1-.1-.2-.1-.3-.1m0 .9h.3c.1 0 .2-.1.2-.1l.2-.2c0-.1.1-.2.1-.3 0-.1 0-.2-.1-.3 0-.1-.1-.1-.2-.2s-.1-.1-.2-.1H21c-.1 0-.2.1-.2.1l-.2.2c0 .1-.1.2-.1.3 0 .1 0 .3.1.4.1.1.2.2.3.2h.4m-1.7-.8c.1 0 .2 0 .3-.1 0-.1.1-.1.1-.2s0-.1-.1-.2c-.1 0-.1-.1-.3-.1h-.3v.5l.3.1zm-.4.8v-.6h.5c.2 0 .3 0 .4-.1.1-.1.2-.1.2-.2s.1-.2.1-.2c0-.1 0-.2-.1-.3 0-.1-.1-.1-.2-.2-.1 0-.2-.1-.3-.1h-.9v1.6h.3v.1zm2.2-19.7c-.2 0-.3.1-.5.1v2.1l-.7 1.3v1l-.5.9v5.6h-8.2c.1-6.5 5.5-11.9 12.1-11.9 6.2 0 11.4 4.7 12 10.6h.6c-.7-6.3-6.1-11.2-12.6-11.2-7 0-12.7 5.7-12.7 12.6v.4H20.2v-6l.5-1v-1l.7-1.3v-2.2zm.9-.2c-.2 0-.3 0-.5.1V48l.7 1.3v1l.5 1V57.3h4.5v-3.4l.5-.9v-.9l.4-.5.3.5v.9l.5.9V57.3h6.6c-.2 6.4-5.6 11.6-12.1 11.6-6.1 0-11.2-4.5-12-10.4h-.6c.8 6.2 6.1 11 12.6 11 7 0 12.7-5.7 12.7-12.6v-.2h-6.8v-2.9l-.4-.8v-1l-.6-.8-.1-2.6h-.2l-.1 2.6-.7.8v1l-.5.8v2.9h-3.5v-5.6l-.5-1v-1l-.7-1.3v-2.3zm1.4-2.3c7.6 0 13.8 6.1 13.8 13.7 0 7.5-6.2 13.7-13.8 13.7-2.3 0-4.5-.6-6.4-1.6-1.3.5-2.8.7-4.2.7-7 0-12.6-5.6-12.6-12.5C.3 50.3 6 44.6 13 44.6c1.3 0 2.5.2 3.6.5 1.3-.8 2.7-1.3 4.3-1.7l.6-15.3h.3l.6 15.1h1.3M40 41.9c0-.2-.2-.3-.5-.3h-.1v.7h.2c.3 0 .4-.1.4-.4m1 2l-.6-1.3c.4-.1.6-.4.6-.8 0-.6-.4-.8-1.3-.8h-1.2v2.9h.9v-1.1h.1l.5 1.1h1zm.8-1.4c0-.6-.2-1.1-.6-1.5-.4-.4-.9-.6-1.5-.6s-1.1.2-1.5.6c-.4.4-.6.9-.6 1.5s.2 1.1.6 1.5c.4.4.9.6 1.5.6s1.1-.2 1.5-.6c.4-.4.6-.9.6-1.5m.6 0c0 .7-.3 1.4-.8 1.9-.6.5-1.2.8-1.9.8s-1.4-.3-1.9-.8-.8-1.1-.8-1.9c0-.7.3-1.4.8-1.9s1.1-.8 1.9-.8c.8 0 1.4.3 1.9.8.5.6.8 1.2.8 1.9M53.7 44.7l-.3 1.4h-1.5l-.6 3.9h-1.9l.8-5.3zM58.1 46.4s0-.1 0 0c0-.4-.2-.5-.5-.5h-.2l-.2 1h.1c.6 0 .8-.2.8-.5m1.9.1c-.1.5-.3.9-.7 1.2-.4.3-.9.4-1.6.4h-.6l-.3 1.9h-1.9l.8-5.3H58c.7 0 1.2.1 1.6.4.3.3.4.6.4 1.1.1.1 0 .2 0 .3M67.2 44.7L64.1 50h-2l.8-1.5-1.3-3.8h2.1l.5 1.6.9-1.6zM74 44.7l-.9 5.3h-1.9l.6-3.9h-1.3l-.6 3.9H68l.8-5.3zM81.5 44.7l-.9 5.3h-1.9l.6-3.9H78l-.6 3.9h-1.9l.8-5.3zM86.1 47.7l-.1-1.5-.6 1.6h.7zm2.2 2.3h-2l-.1-1h-1.4l-.4 1h-2l2.4-5.3h2.7l.8 5.3zM102.1 44.7l-2.2 2.6 1.4 2.7H99l-.9-2.2-.3 2.2h-1.9l.8-5.3h1.9l-.3 2.1 1.7-2.1zM107.3 47.3v-.2c0-.3-.1-.5-.3-.7-.2-.2-.4-.2-.6-.2-.3 0-.5.1-.8.3-.2.2-.4.5-.5.9v.2c0 .3.1.5.3.7.2.2.4.2.6.2.3 0 .5-.1.8-.3.3-.2.4-.5.5-.9m-1.5 2.8c-.9 0-1.5-.2-2-.7-.4-.4-.6-1-.6-1.6 0-1 .3-1.8 1-2.4.7-.6 1.5-.9 2.5-.9.9 0 1.5.2 2 .7.4.4.6.9.6 1.6 0 1-.3 1.8-1 2.4-.7.6-1.5.9-2.5.9M117.8 44.7l-.1 5.3h-1.9l.1-2.4-1.1 2.4h-1.3l-.4-2.4-.6 2.4h-1.9l1.5-5.3h2.2l.3 2.5 1-2.5zM125.6 44.7l-.8 5.3h-1.9l.6-3.9h-1.3l-.6 3.9h-1.9l.8-5.3zM130.3 47.7l-.1-1.6-.6 1.6h.7zm2.2 2.3h-2l-.1-1H129l-.4 1h-2l2.4-5.3h2.7l.8 5.3zM140.3 44.7l-.8 5.3h-2l.4-2.1h-1.4l-.3 2.1h-1.9l.8-5.3h1.9l-.3 1.9h1.4l.3-1.9zM147.9 44.7l-.8 5.3h-1.9l.4-2.6-2 2.6h-1.8l.9-5.3h1.9l-.4 2.6 2-2.6zM154.7 43.1c-.1.4-.3.7-.7 1-.4.2-.7.3-1.1.3-.4 0-.7-.1-.9-.3-.3-.2-.5-.5-.5-.8v-.2h1.1v.1c0 .3.1.4.4.4.3 0 .5-.2.6-.5h1.1zm.8 1.6l-.8 5.3h-1.9l.4-2.5-2 2.5h-1.8l.8-5.3h1.9l-.4 2.6 2-2.6h1.8z"/></svg>