<svg version="1.0" xmlns="http://www.w3.org/2000/svg" viewBox="0 0 160 100"><path d="M.7 28.8H18.5l.3.1.3.1.3.1.3.1.3.1.3.1.3.1.3.1.2.1.2.1.2.1.2.2.2.2.2.2.2.2.2.2.2.2.2.2.2.2.2.2.2.2.2.3.2.3.2.3.2.3.2.3.2.3.1.3.1.3.1.3.1.3.1.3.1.3.1.3.1.3.1.3.1.3.1.3.1.3.1.3.1.3.1.3.1.3.1.3.1.3.1.3.1.3.1.3V46.9l-.1.3-.1.3-.1.3-.1.3-.1.3-.1.3-.1.3-.1.3v1.5l-.1.3-.1.3-.1.3-.1.3-.1.3-.1.3-.1.3-.1.3-.1.3-.3.5-.1.3-.2.3-.2.3-.2.3-.1.3-.2.3-.2.3-.2.3-.2.3-.2.2v.2l-.2.2-.2.2-.2.2-.2.2-.2.2-.2.2-.2.2-.2.2-.2.1-.2.1-.2.1-.2.1-.2.1-.4.1-.2.1-.2.1-.2.1-.4-.1H.5v-1.3H3v-28H.7v-1.4zm15.8 25.3V30.7l-.1-.1-.4.1-.1-.1-.1-.1-.1-.1-.1-.1-.1-.1h-2.8v28.2h2.5l.1-.1h.1l.1-.1.1-.1.1-.1.1-.1.1-.1.1-.1.1-.1V54.4l.4-.3zm17.9-25.8H35.6l.1.1.1.1.1.1.1.1.1.1.1.1.1.1.1.1.1.1.1.1.1.1.1.1.1.1.1.1.1.2.1.2.1.2v2.6l-.1.2-.1.2-.1.3-.1.2-.1.2-.1.2-.1.2-.1.2-.1.2-.2.2-.2.1-.1.1-.1.1-.1.1-.1.1-.1.1-.1.1-.1.1-.1.1-.1.1-.1.1v-.3l-.1.1-.1.1H31.8l-.1-.1-.1-.1-.2.2h-.1l-.1-.1-.1-.1-.1-.1-.1-.1-.1-.1-.1-.1-.1-.1-.1-.1-.1-.2-.1-.1-.1-.1-.1-.1-.1-.2v-2.6l.1-.2.1-.2.1-.2.1-.2.1-.2.1-.2.1-.2.1-.2.1-.2.1-.2.2-.2.1-.1.1-.1.1-.1.1-.1.1-.1.1-.1.1-.1.1-.1v.1l.1-.1.1-.1.1-.1.1-.1H34.2l.2-.3zm5.2 31.4H28v-1.2h2.2V41.6H28v-1.2H36.6l.2-.1V59h2.1l.7.7zm4.4-6V54.8l.1.1-.1.1.1.1.1.1.1.1.1.1.2.1.2.1H52.1l.3.1.3.1.3.1.3.1.3.1.3.1.3.1.2.1.2.2.2.2.2.2.2.2.2.2.2.2.2.2.2.3.1.3.1.3.1.3.1.3.1.3.1.3.1.3.1.3V64.1l-.1.2-.1.2-.1.2-.1.2-.1.2-.1.2-.2.3-.1.2-.1.2-.1.2-.1.2-.1.2-.1.2-.1.2h-.1l-.1.2-.1.2-.1.2-.1.2-.1.1-.1.1-.2.1-.2.1-.2.1-.2.1-.2.1-.2.1-.2.1-.2.1-.1.2-.2.1-.2.1-.2.1-.2.1-.2.1-.2.1-.2.1-.2.1-.2.1-.2.1-.2.1-.2-.1H44.4l-.2-.1-.2-.1-.2-.1h.2l-.1-.1-.1-.1-.1-.1-.1-.1-.1-.1-.1-.1-.4.1-.1-.1-.2-.1-.1-.1-.1-.1-.1-.1-.1-.1-.1-.1-.2-.1-.1-.1-.1-.1-.1-.1-.1-.1-.1-.1-.1-.1-.1-.1-.1-.1-.1-.1-.1-.1V67.1l-.1-.1-.1-.1-.1-.1V63.9l.1-.2.1-.2.1-.2.1-.2.1-.2.1-.2.1-.2.1-.1-.3-.4-.1-.2-.1-.2-.1-.2-.1-.2V61l-.1-.2-.1-.2-.1-.2V57.6l.1-.2.1-.2.1-.2.1-.2.1-.2.1-.2.1-.2.1-.2.1-.2.1-.2.1-.2.1-.2.1-.2.1-.2.1-.2.1-.2.2-.2.2-.2.2-.2.2-.2.2-.2.2-.2.2-.2.2-.2-.2-.1-.2-.1-.2-.1-.2-.1-.2-.1-.3-.3-.2-.2-.2-.1-.2-.2-.1-.2-.1-.2-.1-.1-.1-.2-.1-.2-.1-.2-.2-.1-.1-.2-.1-.1-.1-.2-.1-.2-.1-.2-.1-.2V49l-.1-.2V45l.1-.2.1-.2.1-.2.1-.2.1-.2.1-.2.1-.2.1-.2.1-.1.1-.1.1-.1.1-.1.1-.1.1-.1.1-.1.1-.1.1-.1.1-.1.1-.1.1-.1.1-.1.1-.1.1-.1.1-.1.1-.1.1-.1.1-.1.2-.1.2-.1.2-.1.2-.1.2-.1.2-.1.2-.1.2-.1.2-.1.2-.1.2-.1H48.1 48 50.9V38.7l.1-.1.1-.1-.1-.5.1-.1.1-.1.1-.1.1-.1.1-.1.1-.1.1-.1.1-.1.1-.1.1-.1.1-.1.1-.2.1-.1.1-.1.1-.1.1-.1.1-.1.1-.1.1-.1.1-.1.1-.1.1-.1h1.3l.1.1.1.1.1.1h.2l.1.1.1.1.1.1.1.1.1.1.1.1.1.1.1.1.1.1V39.1l-.1.1-.1.1-.2.7-.1.1-.1.1-.1.1-.1.1-.1.1-.1.1-.1.1-.1.1H54v.2H52.9l.1-.3-.1-.1-.1-.1-.1-.1-.1-.1-.1-.1-.1-.1-.1-.1h.1V38.2L52 38l-.1.1-.1.1-.1.2-.1.2-.1.2-.1.2-.1.2-.1.2-.1.2-.1.2.1.2-.1.3-.1.2v.1l.3.1.3.1.3.1.3.1.3.1.3.1.3.2.3.2.3.2.3.2.2.2.2.2.2.2.2.2.2.2.2.2.2.2.2.2.2.2.1.2.1.2.1.3.1.3.1.3.1.3.1.3.1.3.1.3V49.5l-.1.2-.1.2-.1.2H56v.1l-.1.2-.1.2-.1.1-.1.1-.1.2-.1.1-.1.1-.1.1-.1.1-.1.3-.1.1-.1.1-.2.1-.1.1-.1.1-.1.1-.1.1-.2.1-.2.1-.2.1-.2.1-.2.1-.1.1H53l-.2.1-.2.1-.2.1-.2.1-.2.1v-.1l-.2.1-.2.1-.2.1h-2.6l.2.3H45.1l-.1.1-.1.1-.1.1-.1.1-.7-.7zm5.6-2.8V42l-.1-.1-.1-.1-.1-.1-.1-.1-.1-.1-.1-.1-.1-.1h-.7l-.1.1-.1.1-.1.1-.1.1-.1.1-.1.1-.2.1-.1.2V52.1l.1.2.1.2.1.1.1.1.1.1.1.1.1.1h.7l.1-.1.1-.1.1-.1.1-.1.1-.1.1-.1.1-.2.1-.2V51.1l.1-.2zm-7.8 12.2V65.7l.1.1.1.1.1.1.1.1.1.1.1.1.1.1.1.1.1.1.1.1.1.1.1.1.1.1.1.1.1.1.1.1.1.1.1.1.1.1.1.1.1.1.1.2.1.1.1.1.1.1.1.1.1.1.1.1.1.1.1.1.1.1H51.2l.1-.1.1-.1.1-.1.1-.1.1-.1.1-.1.1-.1.1-.1.1-.1.1-.1.1-.1V65.5l-.1-.1-.1-.1-.1-.1v-.7H50.9l.1-.5H49.5l-4.1.2h-.7L44 64h-1.2l-.1-.1-.1-.1-.1-.1-.1-.1-.1-.1-.1-.1-.1-.1-.1-.1V63l-.1-.1-.1-.1V63.1zm22.1-34.8H65.1l.1.1.1.1.1.1.1.1.1.1.1.1.1.1.1.1.1.1.1.1.1.1.1.1.1.1.1.1.1.2.1.2.1.2v2.6l-.1.2-.1.2-.1.2-.1.2-.1.3-.1.2-.1.2-.1.1-.1.2-.2.2-.2.2-.1.1-.1.1-.1.1-.1.1-.1.1v-.1l-.1.1-.1.1-.1.1-.1.1-.1.1-.1.1-.1.1H61.3l-.1-.1-.1-.1H60.8l-.1-.1-.1-.1-.1-.1-.1-.1-.1-.1-.1-.1-.2-.2v-.1l-.1-.1-.1-.1-.1-.1-.1-.1-.1-.2v-2.6l.1-.2.1-.2.1-.2.1-.2.1-.2.1-.2.1-.2.1-.2.1-.2.1-.2.2-.2.1-.1.1-.1.1-.1.1-.1.1-.1.1-.1.1-.1.1-.1.1-.1.1-.1.1-.1.1-.1.1-.1H63.8l.1-.1zm5.2 31.4H57.5v-1.2h2.2V41.6h-2.2v-1.2H66l.2-.1V59h2.1l.8.7zm23.4-20h-1l-.1-.4v-1.4l-.1-.2-.1-.2-.1-.2-.1-.2v-.2l-.1-.2-.1-.2-.1-.2V36l-.1-.2-.1-.2-.1-.2-.1-.2.1-.2-.1-.2-.1-.2-.1-.2-.1-.2v-.1l-.1-.1-.1-.2-.1-.2-.1-.2-.1-.1-.1-.1-.1-.1-.1-.1-.1-.1-.1-.1-.1-.1.1-.3-.1-.1-.1-.1-.1-.1-.1-.1-.1-.1-.1-.1-.1-.1-.1-.1-.2-.2-.1-.1-.1-.1-.1-.1-.1-.1h-.2l-.1-.1-.1-.1-.2-.1-.1-.1-.1-.1-.1-.1-.1-.1-.1-.1-.1-.1-.1-.1h-.2l-.2-.1V58h2.8v1.3H73.6V58h2.8V30.2l-.2.1H76l-.2.1-.1.1-.1.1-.1.1-.1.1-.1.1-.3-.2-.1.1-.1.1-.2.1-.1.1-.1.1-.1.1-.1.1H74l-.1.1-.1.1-.1.1-.1.1-.1.1-.1.1-.1.1-.1.1-.1.1-.1.2-.1.1-.1.1-.1.1-.1.1-.1.1-.1.1-.1.1-.1.2-.1.2v.4l-.1.1v.2l-.1.2-.1.2-.1.2v.1l-.1.2-.1.2-.1.2-.1.2.1.2-.1.2-.1.2-.1.2-.1.2-.1.2.1.3v.3l-.1.2v1.6l-.1.4h-1v-11h23l-.3 10.9zm13.3-11.9h1.8l.3.1.3.1.3.1.3.1.3.1.3.1.3.1.3.1.3.1.3.1.3.1.3.2.3.2.3.2.3.2.2.2.2.2.2.2.2.2.2.2.2.2.2.2.2.2.2.3.2.3.2.3.2.3.2.3.2.3.2.3.2.3.2.3.2.3.2.3.1.3.1.3.1.3.1.3.1.4.1.4.1.4.1.4.1.4.1.4.1.4.1.4.1.4.1.4.1.4.1.4V47.4l-.1.4-.1.4-.1.4-.1.4-.1.4-.1.4-.1.4-.1.4-.1.4-.1.4-.1.4-.1.3-.1.3-.1.3-.1.3-.1.3-.2.3-.2.3-.2.3-.2.3-.2.3-.2.3-.2.3-.2.3-.2.3-.2.3-.2.3-.2.2-.2.2-.2.2-.2.2-.2.2-.2.2-.2.2-.2.2-.3.2-.3.2-.3.2-.3.2-.3.1-.3.1-.3.1-.3.1-.3.1-.3.1-.3.1-.3.1-.3.1-.3.1-.3.1H104l-.3-.1-.3-.1-.3-.1-.3-.1-.3-.1-.3-.1-.3-.1-.3-.1-.3-.1-.3-.1-.3-.1-.3-.2-.3-.2-.3-.2-.3-.2-.3-.2-.2-.2-.2-.2-.2-.2-.2-.2-.2-.2-.2.2-.2-.3-.2-.3-.2-.3-.2-.3-.2-.3-.2-.3-.2-.3-.2-.3-.2-.3-.2-.2-.2-.3-.2-.3-.2-.3V53l-.1-.3-.1-.3-.2-.4-.1-.4-.1-.4-.1-.4-.1-.4-.1-.4-.1-.4-.1-.4-.1-.4-.1-.4-.1-.4V40.8l.1-.4.1-.4.1-.4.1-.4.1-.4.1-.4.1-.4.1-.4.1-.4.1-.4.1-.4.1-.4.1-.3.1-.3.1-.3.2-.3.2-.3.1-.5.2-.3.2-.3.2-.3.2-.3.2-.3.2-.3.2-.3.2-.3.2-.3.2-.2.2-.2.2-.2.2-.2.2-.2.2-.2.2-.2.2-.2.3-.2.3-.2.3-.2.3-.2.3-.1.3-.1.3-.1.3-.1.3-.1.3-.1.3-.1.3-.1.3-.1.3-.1.3-.1h1.9zm1.7 28.2V31.1l-.1-.3-.1-.2-.1-.2-.1-.2-.1-.2-.1-.1-.1-.1-.1-.1-.2-.1-.2-.1h-.8l-.2.1-.2.1-.1.1-.1.1-.1.1-.1.2-.1.2-.1.2-.1.2-.1.3V58.3l.1.1.1.1.1.1.1.1.1.1h1.4l.2-.1.2-.1.1-.1.1-.1.1-.1.1-.2.1-.2.1-.2.1-.2.1-.3V56.3l.1-.3zm12.1-27.2H141.1l.1.1.1.1.2.1.2.1.2.1.2.1.2.2.2.2.1.2.1.2.1.2.1.2.1.2.1.2.1.2.1.2.1.3.1.3.1.1V42.5l-.1.2-.1.2-.1.2-.1.2-.1.2-.1.2-.1.2-.1.1-.1.1-.1.1-.1.1-.1.1-.1.1-.1.1-.1.1-.1.1-.1.1-.1.1-.1.1-.1.1-.1.1-.1.1-.1.1-.1.1-.1.1-.1.1-.1.1-.1.1-.1.1-.1.1-.1.1-.1.1-.1.1-.1.1-.1.1-.1.1-.1.1-.1.1-.1.1-.1.1-.1.1-.1.1H130.8v11h2.9v1.3h-14.9v-1.3h2.5V30.2h-2.5l.8-1.4zm15.2 14V30.5H132.2V46H134.1l.1-.1.1-.1.1-.1.1-.1.1-.1.1-.1.1-.1.1-.1.1-.1.1-.1.1-.1V43l-.4-.2zm18.2-3.1v-8.4h2.5c.6 0 1.1.1 1.4.2.3.2.5.4.7.8.2.4.3.8.3 1.3 0 .6-.1 1.2-.4 1.6-.3.4-.6.7-1.2.8.3.2.5.4.6.7.2.3.4.7.7 1.4l.7 1.6h-1.4l-.9-1.8c-.3-.7-.5-1.1-.6-1.2-.1-.2-.2-.3-.4-.4-.1-.1-.3-.1-.6-.1h-.2v3.5H153zm1.2-4.9h.9c.6 0 .9 0 1.1-.1.1-.1.3-.2.3-.4.1-.2.1-.4.1-.6 0-.3-.1-.5-.2-.7-.1-.2-.3-.3-.4-.3h-1.8v2.1zm1.1-7c3 0 5.4 3.5 5.4 7.8s-2.4 7.7-5.4 7.7c-3 0-5.4-3.5-5.4-7.7 0-4.3 2.4-7.8 5.4-7.8m0 1.1c2.6 0 4.7 3 4.7 6.7s-2.1 6.7-4.7 6.7-4.7-3-4.7-6.7 2.1-6.7 4.7-6.7"/></svg>