<svg version="1.0" id="Слой_1" xmlns="http://www.w3.org/2000/svg" x="0" y="0" viewBox="0 0 160 100" xml:space="preserve"><style>.st0{fill:#0a74ba}</style><path class="st0" d="M104.5 46.1c-1.4 3.7-3.4 7.2-9.1 7.2H79.9c-1.5 0-2.7-.5-3.3-1.4-.6-.8-.7-1.9-.5-3.1h13.7c0-.1.1-.2.1-.2l-1 2.7h4l2.6-7.2 1.3-3.7h4.2c1.5 0 2.7.5 3.3 1.4.8 1 .9 2.6.2 4.3M79 40.3h4.1c1.5 0 2.7.5 3.3 1.4.5.8.7 1.8.5 3h-9.6l1.7-4.4zm55.1 12.9l6.1-16.9H136l-6.1 16.9h-4.2c-1.5 0-2.7-.5-3.3-1.4-.9-1.3-.6-2.9-.2-4.3 1.4-3.7 2.7-7.4 4-11.1H122l-.9 2.5c-1.4-1.6-3.6-2.5-6.1-2.5h-6.9l-.9 2.5c-1.4-1.6-3.5-2.5-6.1-2.5h-6.9l-3.6 9.9c.6-2.5.3-5-1-6.8-1.4-2-3.7-3.1-6.5-3.1h-6.9l-3 8.4h-10l3-8.4H62l-.9 2.4c-1.4-1.6-3.5-2.5-6-2.5h-6.9l-1.4 3.9h8.3c1.5 0 2.7.5 3.3 1.4.5.8.7 1.8.5 3H45.2l-1.4 3.9h13.4c-2 2.6-5.4 4.5-8.7 4.5h-6.3l-1.4 3.9H49c2.1 0 4.2-.6 6.2-1.7l-.6 1.7h4.2l3-8.4v-.1h10l-3.1 8.5H73l.9-2.5c1.4 1.6 3.6 2.5 6.1 2.5h6.9l-2.4 6.7h4.2l2.4-6.7h4c2.1 0 4.3-.6 6.3-1.7l-.6 1.7h4.2c2-5.6 4.1-11.2 6.1-16.9h4.2c1.5 0 2.7.5 3.3 1.4.9 1.3.6 3 .2 4.3-1 2.6-1 5.6.6 8 1.4 2 3.7 3.1 6.5 3.1h17.5c1.1 0 2.2-.2 3.3-.5l1.9-5.2c-1.6 1.1-3.4 1.7-5.1 1.7l-9.4.4zm24.2-16.8l-6.3-.1c-5.5 0-11.4 4.3-13.4 9.7-.7 1.8-.8 3.5-.5 5.1h4.1c-.3-.7-.4-1.6-.2-2.5 0-.1 0-.2.1-.3 0-.1 0-.2.1-.3v-.1c0-.1 0-.2.1-.3v-.1c0-.1.1-.2.1-.3 1.4-3.9 5.9-7.1 9.7-7.1h2.6L148.6 57h4.2l7.5-20.8-2 .2z"/><path class="st0" d="M92.4 61.5c.2-.1.4-.1.6-.1.3 0 .4.1.6.2.1.1.2.3.2.6 0 .4-.1.7-.3 1-.2.2-.5.4-.8.4-.2 0-.4 0-.6-.1l.1-.4c.1.1.3.1.5.1.4 0 .6-.2.7-.7h-.8l.1-.3h.8v-.1c0-.4-.1-.5-.4-.5-.1 0-.3 0-.4.1l-.3-.2zM96.1 61.5l-.4 2.1h-.4l.3-1.8H95c-.1.4-.2.7-.3.9-.1.2-.2.4-.3.5l-.3.3c-.1 0-.2.1-.4.1l.1-.3c.2 0 .4-.1.5-.4.1-.3.3-.7.4-1.3l1.4-.1zM96.7 62.3c.1 0 .2.1.4.1s.4 0 .5-.1c.1-.1.2-.2.2-.3 0-.1 0-.1-.1-.2-.1 0-.1-.1-.2-.1-.2 0-.3 0-.4.1-.2.2-.3.4-.4.5m0 .3v.1c0 .2.1.4.2.5.1.1.2.1.4.1s.3-.1.5-.2v.4c-.2.1-.4.1-.5.1-.5 0-.8-.3-.8-.9 0-.4.1-.7.3-.9.2-.2.5-.4.9-.4.2 0 .4 0 .5.1.1.1.2.2.2.4s-.1.4-.3.5c-.2.1-.4.2-.7.2-.5.1-.6.1-.7 0zM100.3 61.5l-.1.3h-.1-.1l-.1.1c-.1.3-.3.5-.6.6.3.1.4.3.4.6v.1h.2l-.1.3h-.1c-.2 0-.4-.1-.4-.4 0-.2 0-.3-.1-.4-.1-.1-.2-.1-.4-.1l-.2.9h-.4l.4-2.1h.4l-.1.8c.2 0 .4 0 .5-.1.1-.1.2-.2.3-.4 0-.1.1-.2.2-.3.1-.1.2-.1.3-.1 0 .2 0 .2.1.2M102.8 63.6l.2-1c0-.3.1-.4.1-.5 0-.2-.1-.3-.3-.3h-.2c-.1 0-.1.1-.2.2l-.3 1.5h-.4l.3-1.5v-.1c0-.2-.1-.3-.4-.3-.1 0-.2 0-.3.1-.1.1-.2.1-.2.2l-.3 1.5h-.4l.3-1.5v-.2-.4l.4-.1v.3c.1-.1.1-.2.3-.2.1 0 .2-.1.4-.1.3 0 .5.1.6.3.1-.1.1-.1.3-.2.1-.1.2-.1.4-.1.4 0 .6.2.6.5v.2l-.3 1.4-.6.3zM104.1 63.2l.1.1h.2c.3 0 .5-.1.6-.3.1-.2.2-.4.2-.8 0-.3-.2-.5-.5-.5h-.1s-.1 0-.1.1c0 0-.1 0-.1.1h-.1l-.1.1s0 .1-.1.3v.9zm0 .3l-.2.9h-.4l.4-2.3v-.3-.3l.4-.1v.3c.1-.1.1-.1.3-.2.1-.1.2-.1.3-.1.5 0 .8.3.8.8 0 .3-.1.5-.2.7-.1.2-.2.4-.4.5-.2.1-.4.2-.6.2h-.3l-.1-.1zM106.3 62.8c0 .4.1.5.4.5.2 0 .4-.1.5-.3.1-.2.2-.5.2-.7 0-.3-.1-.5-.4-.5-.2 0-.4.1-.5.3-.1.2-.2.4-.2.7m-.3 0c0-.2 0-.4.1-.7.1-.2.2-.4.4-.5.2-.1.4-.2.6-.2.3 0 .4.1.6.2.1.1.2.3.2.6 0 .4-.1.7-.3 1-.2.3-.5.4-.8.4-.2 0-.4-.1-.6-.2-.2-.1-.2-.3-.2-.6zM110.5 63.6l.2-1c0-.3.1-.4.1-.5 0-.2-.1-.3-.3-.3h-.2c-.1 0-.2.1-.2.2l-.3 1.5h-.4l.3-1.5v-.1c0-.2-.1-.3-.4-.3-.1 0-.2 0-.3.1-.1.1-.2.1-.2.2l-.3 1.5h-.4l.3-1.5v-.2-.4l.4-.1v.3c.1-.1.1-.2.3-.2.1 0 .2-.1.4-.1.3 0 .5.1.6.3.1-.1.1-.1.3-.2.1-.1.2-.1.4-.1.4 0 .6.2.6.5v.2l-.3 1.4-.6.3zM111.9 62.3c.1 0 .2.1.4.1s.4 0 .5-.1c.1-.1.2-.2.2-.3 0-.1 0-.1-.1-.2-.1 0-.1-.1-.2-.1-.2 0-.3 0-.4.1-.2.2-.3.4-.4.5m-.1.3v.1c0 .2.1.4.2.5.1.1.2.1.4.1s.3-.1.5-.2v.4c-.2.1-.4.1-.5.1-.5 0-.8-.3-.8-.9 0-.4.1-.7.3-.9.2-.2.5-.4.9-.4.2 0 .4 0 .5.1.1.1.2.2.2.4s-.1.4-.3.5c-.2.1-.4.2-.7.2-.4.1-.5.1-.7 0zM114.8 63.6l-.4-.7-.6.7h-.5l.9-1.1-.5-1h.4l.4.7.5-.7h.5l-.9 1 .6 1.1zM117.6 61.5l-.4 2.1h-.4l.2-.9h-.9l-.2.9h-.4l.4-2.1h.4l-.2.8h1l.1-.8zM118.5 61.5l-.2 1.4v.1c0 .2.1.3.3.3.1 0 .3-.1.4-.2.1-.1.2-.2.2-.4l.2-1.3h.4l-.4 2.1h-.4l.1-.3c-.1.2-.4.3-.8.3-.2 0-.3 0-.4-.1-.1-.1-.1-.2-.1-.4v-.2l.2-1.4.5.1zM122 61.5l-.4 2.1h-.4l.2-.8c-.2.1-.4.1-.5.1-.2 0-.4 0-.5-.1-.1-.1-.2-.2-.2-.5v-.2l.1-.5h.4c-.1.3-.1.5-.1.6v.1c0 .2.1.4.4.4.2 0 .3 0 .5-.1l.2-.9h.3zM122.7 62.3c.1 0 .2.1.4.1s.4 0 .5-.1c.1-.1.2-.2.2-.3 0-.1 0-.1-.1-.2-.1 0-.1-.1-.2-.1-.2 0-.3 0-.4.1-.3.2-.4.4-.4.5m-.1.3v.1c0 .2.1.4.2.5.1.1.2.1.4.1s.3-.1.5-.2v.4c-.2.1-.4.1-.5.1-.5 0-.8-.3-.8-.9 0-.4.1-.7.3-.9.2-.2.5-.4.9-.4.2 0 .4 0 .5.1.1.1.2.2.2.4s-.1.4-.3.5c-.2.1-.4.2-.7.2-.4.1-.6.1-.7 0zM125.9 61.6l-.1.3c-.1-.1-.2-.1-.4-.1s-.4.1-.6.3c-.1.2-.2.4-.2.7 0 .1 0 .2.1.3 0 .1.1.1.2.2s.2.1.2.1c.2 0 .4-.1.5-.2v.4c-.2.1-.4.1-.6.1-.3 0-.4-.1-.6-.2-.1-.1-.2-.3-.2-.6 0-.4.1-.7.3-1 .2-.3.5-.4.8-.4.3 0 .5 0 .6.1M128 61.5l-.1.3h-.1-.1l-.1.1c-.1.3-.3.5-.6.6.3.1.4.3.4.6v.1h.2l-.1.3h-.1c-.2 0-.4-.1-.4-.4 0-.2 0-.3-.1-.4-.1-.1-.2-.1-.4-.1l-.2.9h-.4l.4-2.1h.4l-.1.8c.2 0 .4 0 .5-.1.1-.1.2-.2.3-.4 0-.1.1-.2.2-.3.1-.1.2-.1.3-.1 0 .2.1.2.1.2M129.7 61.9c0-.1-.2-.1-.3-.1-.2 0-.4.1-.5.3-.2.2-.2.5-.2.8 0 .3.1.4.4.4.1 0 .2 0 .3-.1.1-.1.2-.1.2-.2s.1-.2.1-.3v-.8zm.4-.3l-.3 1.2v.2c0 .2 0 .3.1.5h-.4c0-.1-.1-.2-.1-.3-.1.1-.2.2-.3.2-.1.1-.2.1-.4.1s-.3-.1-.5-.2c-.1-.1-.2-.3-.2-.5 0-.4.1-.7.3-1 .2-.3.5-.4.9-.4.5.1.7.1.9.2zM131.8 61.8c-.1 0-.2-.1-.4-.1s-.3 0-.4.1c-.1.1-.1.2-.1.3 0 .1 0 .1.1.2 0 0 .1.1.2.1h.5l.1-.6zm-.9.8c-.3-.1-.4-.2-.4-.4s.1-.4.3-.5c.2-.1.4-.2.7-.2H132.1v.1l-.3 1.9h-.4l.2-.8h-.1c-.2 0-.4 0-.5.1-.1.1-.2.2-.3.4-.1.2-.2.4-.5.4h-.1l.1-.3h.1c.1 0 .1 0 .1-.1.1-.1.1-.3.2-.3.1-.2.2-.2.3-.3zM135.6 61.5l-.1.3h-.1-.1l-.1.1c-.1.3-.3.5-.6.6.3.1.4.3.4.6v.1h.2l-.1.3h-.1c-.2 0-.4-.1-.4-.4 0-.2 0-.3-.1-.4-.1-.1-.2-.1-.4-.1l-.2.9h-.4l.4-2.1h.4l-.1.8c.2 0 .4 0 .5-.1.1-.1.2-.2.3-.4 0-.1.1-.2.2-.3.1-.1.2-.1.3-.1 0 .2 0 .2.1.2M136.1 62.8c0 .4.1.5.4.5.2 0 .4-.1.5-.3.1-.2.2-.5.2-.7 0-.3-.1-.5-.4-.5-.2 0-.4.1-.5.3-.2.2-.2.4-.2.7m-.4 0c0-.2 0-.4.1-.7.1-.2.2-.4.4-.5.2-.1.4-.2.6-.2.2 0 .4.1.6.2.1.1.2.3.2.6 0 .4-.1.7-.3 1-.2.3-.5.4-.8.4-.2 0-.4-.1-.6-.2-.1-.1-.2-.3-.2-.6zM140 63.6v-1.3l-.9 1.3h-.1l-.4-1.3-.5 1.3h-.4l.9-2.1h.1l.4 1.5 1.1-1.5h.1v2.1zM142 63.6l.2-1.2v-.3c0-.2-.1-.3-.3-.3h-.2c-.1 0-.1.1-.2.1s-.1.1-.1.1l-.3 1.5h-.4l.3-1.5v-.1-.3l.4-.1c0 .2.1.3.1.3.2-.2.4-.3.7-.3.4 0 .6.2.6.6v.2l-.2 1.3h-.6zM144.5 61.9c0-.1-.2-.1-.3-.1-.2 0-.4.1-.5.3-.2.2-.2.5-.2.8 0 .3.1.4.4.4.1 0 .2 0 .3-.1.1-.1.2-.1.2-.2s.1-.2.1-.3v-.8zm.4-.3l-.3 1.2v.2c0 .2 0 .3.1.5h-.4c0-.1-.1-.2-.1-.3-.1.1-.2.2-.3.2-.1.1-.2.1-.3.1-.2 0-.3-.1-.5-.2-.1-.1-.2-.3-.2-.5 0-.4.1-.7.3-1 .2-.3.5-.4.9-.4.4.1.6.1.8.2zM147.2 61.5l-.4 2.1h-.4l.2-.9h-1l-.1.9h-.4l.4-2.1h.3l-.1.8h.9l.2-.8zM148.1 61.5l-.2 1.4v.1c0 .2.1.3.3.3.1 0 .3-.1.4-.2.1-.1.2-.2.2-.4l.2-1.3h.4l-.4 2.1h-.4l.1-.3c-.1.2-.4.3-.8.3-.2 0-.3 0-.4-.1-.1-.1-.1-.2-.1-.4v-.2l.2-1.4.5.1zM151.1 61.8c-.1 0-.2-.1-.4-.1s-.3 0-.4.1c-.1.1-.1.2-.1.3 0 .1 0 .1.1.2 0 0 .1.1.2.1h.5l.1-.6zm-.8.8c-.3-.1-.4-.2-.4-.4s.1-.4.3-.5c.2-.1.4-.2.7-.2H151.5v.1l-.3 1.9h-.4l.2-.8h-.1c-.2 0-.4 0-.5.1-.1.1-.2.2-.3.4-.1.2-.2.4-.5.4h-.1l.1-.3h.1c.1 0 .1 0 .1-.1.1-.1.1-.3.2-.3 0-.2.1-.2.3-.3z"/><path d="M35.9 39.4c-1.4-2-3.7-3.1-6.5-3.1H14.3C8.8 36.3 2.9 40.6.9 46c-1.1 2.9-.8 5.8.6 8 1.4 2 3.7 3.1 6.5 3.1h9l4.5-12.4h-4.2l-3.1 8.5H8.1c-1.5 0-2.7-.5-3.3-1.4-.8-1.1-.8-2.7-.2-4.4 1.4-3.9 5.9-7.1 9.7-7.1h15.1c1.5 0 2.7.5 3.3 1.4.7 1.1.8 2.6.2 4.3-1.4 3.9-5.9 7.1-9.7 7.1h-.7L21.1 57h2.1c5.5 0 11.4-4.3 13.4-9.7 1-2.9.8-5.8-.7-7.9" fill="#f89e2a"/></svg>