<svg version="1.0" xmlns="http://www.w3.org/2000/svg" viewBox="0 0 160 100"><path d="M84.1 46.6h13.5c-.1-2.1-1.2-3.9-2.9-5-1.8-1.1-3.9-1.7-6-1.6-1.6 0-3.2.3-4.6.9-1.2.5-2.2 1.1-3.2 1.9L77 37.6c1.6-1.1 3.3-1.9 5.2-2.6 2.1-.8 4.4-1.1 6.7-1.1 5.2 0 8.9 1.2 11.3 3.5 2.2 2.1 3.9 4.7 4.7 7.7.2.8.3 1.7.4 2.5.1.8.1 1.6.1 2.4 0 .6 0 1.3-.1 1.9-.1.7-.2 1.3-.3 2-.8 3.3-2.6 6.4-5.1 8.7-2.7 2.6-6.7 4-12 4-2.2 0-4.4-.3-6.4-1-1.7-.6-3.3-1.4-4.8-2.4l4.3-4.9.9.6c.3.2.6.4.9.5.8.4 1.7.7 2.5.9 1 .2 2 .3 3 .3.5 0 1.2 0 1.9-.1.8-.1 1.5-.2 2.2-.4 1.3-.4 2.5-1.1 3.4-2.1 1.2-1.3 1.9-3 1.9-4.8H84.1v-6.6zM117.8 65.8h-7.7V34.4h10.2c4.1 0 7.1 1 9 3 1.7 1.8 2.8 4.2 3 6.7 0 .2.1.3.1.5v.5c.1 3-1 5.9-3 8.1-2 2.3-5 3.4-9.1 3.4h-2.6l.1 9.2zm2-15.3h.8c.3 0 .6-.1.9-.1.9-.1 1.6-.6 2.2-1.2.7-.7 1-1.9 1-3.7 0-1.8-.4-3-1.2-3.7-.7-.6-1.6-1-2.5-1.1l-.6-.1h-2.6v9.9h2zM135.7 65.8h-7.6l15.2-32h.7l15.2 32h-7.6l-2-4.2h-11.9l-2 4.2zm11.4-10.5l-3.4-6.4-3.5 6.4h6.9zM151.2 37.4c0-2.2 1.7-4 3.9-4s4 1.7 4 3.9-1.7 4-3.9 4h-.1c-2.1 0-3.9-1.7-3.9-3.9zm3.9 3.2c1.8 0 3.2-1.4 3.2-3.2 0-1.8-1.4-3.2-3.2-3.2-1.8 0-3.2 1.4-3.2 3.2-.1 1.7 1.3 3.2 3 3.2h.2zm-.9-1h-.7v-4.4h1.7c1.1 0 1.6.4 1.6 1.3 0 .6-.5 1.2-1.1 1.2h-.1l1.3 2h-.8l-1.2-1.9h-.8l.1 1.8zm.8-2.5c.6 0 1.1 0 1.1-.7 0-.6-.5-.7-1-.7h-.9v1.4h.8z"/><circle cx="30.7" cy="50" r="4.8"/><circle cx="40.3" cy="50" r="3.1"/><circle cx="30.7" cy="13.3" r="1.6"/><circle cx="30.7" cy="18.9" r="2.4"/><circle cx="30.7" cy="26.3" r="3.3"/><ellipse cx="30.7" cy="33.1" rx="2" ry="1.9"/><circle cx="30.7" cy="86.6" r="1.6"/><circle cx="30.7" cy="81" r="2.4"/><circle cx="30.7" cy="73.6" r="3.3"/><ellipse cx="30.7" cy="66.8" rx="2" ry="1.9"/><path d="M20.8 14.6c.3.9-.2 1.8-1 2.1-.9.3-1.8-.2-2.1-1-.3-.9.2-1.8 1-2.1.9-.3 1.8.2 2.1 1zM23.3 19.7c.4 1.3-.3 2.6-1.5 3-1.3.4-2.6-.3-3.1-1.5-.4-1.3.3-2.6 1.5-3 1.3-.5 2.7.2 3.1 1.5zM26.5 26.5c.6 1.7-.4 3.6-2.1 4.2-1.7.6-3.6-.4-4.2-2.1-.6-1.7.4-3.6 2.1-4.2 1.7-.6 3.6.3 4.2 2.1-.1-.1 0-.1 0 0zM27.3 33.3c.3 1-.2 2.1-1.2 2.5-1 .3-2.1-.2-2.5-1.2-.3-1 .2-2.1 1.2-2.5 1.1-.3 2.1.2 2.5 1.2zM40.5 85.3c-.3-.9.2-1.8 1-2.1.9-.3 1.8.2 2.1 1 .3.9-.2 1.8-1 2.1-.9.3-1.8-.2-2.1-1zM38 80.3c-.4-1.3.3-2.7 1.6-3.1 1.3-.4 2.7.3 3.1 1.6.4 1.3-.3 2.7-1.6 3.1-1.3.3-2.7-.4-3.1-1.6zM34.9 73.5c-.6-1.7.4-3.6 2.1-4.2 1.7-.6 3.6.4 4.2 2.1.6 1.7-.4 3.6-2.1 4.2-1.8.5-3.6-.4-4.2-2.1zM34.1 66.6c-.3-1 .2-2.1 1.2-2.4 1-.3 2.1.2 2.5 1.2.3 1-.2 2.1-1.3 2.5s-2.1-.3-2.4-1.3zM10.3 19.4c.5.7.4 1.7-.4 2.2-.7.5-1.7.4-2.3-.4-.4-.6-.3-1.6.4-2.2.8-.5 1.8-.3 2.3.4zM14.3 23.4c.8 1.1.6 2.6-.5 3.4-1.1.8-2.6.6-3.4-.5-.8-1.1-.6-2.6.5-3.4 1-.8 2.5-.6 3.4.5zM19.4 28.9c1.1 1.5.7 3.5-.7 4.6-1.5 1.1-3.5.7-4.6-.7-1.1-1.5-.8-3.5.7-4.6 1.4-1.1 3.5-.8 4.6.7zM22.3 35.2c.6.9.4 2.1-.4 2.7-.9.6-2.1.4-2.7-.4-.6-.9-.4-2.1.4-2.7.8-.7 2-.5 2.7.4zM51 80.5c-.5-.7-.4-1.7.4-2.2.7-.5 1.7-.4 2.3.4.5.7.4 1.7-.4 2.2-.7.5-1.7.4-2.3-.4zM47.1 76.5c-.8-1.1-.6-2.6.5-3.4 1.1-.8 2.6-.6 3.4.5.8 1.1.6 2.6-.5 3.4-1.1.9-2.6.6-3.4-.5zM42 71c-1.1-1.5-.7-3.5.7-4.6 1.5-1.1 3.5-.7 4.6.7 1.1 1.5.7 3.5-.7 4.6-1.5 1.1-3.5.8-4.6-.7zM39.1 64.7c-.6-.9-.4-2.1.4-2.7.9-.6 2.1-.4 2.7.4.6.9.4 2.1-.4 2.7-.9.7-2.1.5-2.7-.4zM1.8 27.1c.7.5.9 1.5.4 2.2-.5.7-1.5.9-2.3.4-.7-.5-.9-1.5-.4-2.2.6-.7 1.6-.9 2.3-.4zM6.8 29.7c1.1.8 1.3 2.3.6 3.4-.8 1.1-2.3 1.3-3.4.5s-1.3-2.3-.6-3.4c.7-1 2.3-1.3 3.4-.5zM13.4 33.4c1.5 1.1 1.8 3.1.7 4.6-1.1 1.5-3.1 1.8-4.6.7-1.5-1-1.8-3.1-.8-4.6 1.1-1.5 3.2-1.8 4.7-.7zM18.1 38.5c.9.6 1.1 1.8.4 2.7-.6.9-1.8 1.1-2.7.4-.9-.6-1.1-1.8-.4-2.7.6-.8 1.8-1 2.7-.4zM59.5 72.8c-.7-.5-.9-1.5-.4-2.2.5-.7 1.5-.9 2.3-.4.7.5.9 1.5.4 2.2-.5.7-1.5.9-2.3.4zM54.5 70.2c-1.1-.8-1.3-2.3-.5-3.4s2.3-1.3 3.4-.5 1.3 2.3.5 3.4c-.7 1.1-2.2 1.3-3.4.5.1 0 .1 0 0 0zM48 66.5c-1.5-1.1-1.8-3.1-.7-4.6 1.1-1.5 3.1-1.8 4.6-.7 1.5 1.1 1.8 3.1.7 4.6-1.1 1.4-3.1 1.8-4.6.7zM43.2 61.4c-.9-.6-1.1-1.8-.4-2.7.6-.9 1.9-1.1 2.7-.4.9.6 1.1 1.8.4 2.7-.6.9-1.8 1.1-2.7.4zM65.2 62.8c-.8-.3-1.3-1.2-1-2 .3-.8 1.2-1.3 2-1 .9.2 1.4 1.1 1.1 2-.2.9-1.1 1.4-2 1.1 0 0 0-.1-.1-.1zM59.7 61.9c-1.3-.4-2-1.8-1.5-3.1.4-1.3 1.8-2 3.1-1.5 1.3.4 2 1.8 1.5 3-.5 1.3-1.8 2-3.1 1.6zM52.3 60.4c-1.7-.6-2.7-2.4-2.1-4.2.6-1.7 2.4-2.7 4.2-2.1 1.7.6 2.6 2.4 2.1 4.1-.6 1.8-2.5 2.8-4.2 2.2zM46.2 57c-1-.3-1.6-1.4-1.2-2.5.3-1 1.4-1.6 2.5-1.2 1 .3 1.5 1.4 1.2 2.4-.4 1.1-1.5 1.6-2.5 1.3z"/><circle cx="67.5" cy="50" r="1.6"/><circle cx="62" cy="50" r="2.4"/><circle cx="54.5" cy="50" r="3.3"/><ellipse cx="47.6" cy="50" rx="2" ry="1.9"/><path d="M66.2 40.2c-.8.3-1.8-.2-2-1-.3-.9.2-1.8 1-2 .8-.3 1.8.2 2 1 .4.8-.1 1.7-1 2zM61.2 42.7c-1.3.4-2.6-.3-3.1-1.6-.4-1.3.3-2.6 1.6-3.1 1.3-.4 2.6.3 3.1 1.6.4 1.3-.3 2.6-1.6 3.1zM54.3 45.8c-1.7.6-3.6-.4-4.1-2.1-.6-1.7.4-3.6 2.1-4.1 1.7-.6 3.6.4 4.1 2.1.6 1.7-.4 3.5-2.1 4.1zM47.4 46.6c-1 .3-2.1-.2-2.4-1.3-.3-1 .2-2.1 1.3-2.4 1-.3 2.1.2 2.4 1.2.3 1.1-.3 2.2-1.3 2.5zM-.1 70.2c.7-.5 1.7-.4 2.3.4.5.7.4 1.7-.4 2.2-.7.5-1.7.4-2.3-.4-.5-.7-.3-1.7.4-2.2zM3.9 66.3c1.1-.8 2.6-.6 3.4.5.8 1.1.6 2.6-.5 3.4-1.1.8-2.6.6-3.4-.5-.8-1.1-.6-2.6.5-3.4zM9.5 61.2c1.5-1.1 3.5-.7 4.6.7 1.1 1.5.7 3.5-.7 4.6-1.5 1.1-3.5.7-4.6-.7-1.1-1.5-.8-3.5.7-4.6zM15.8 58.3c.9-.6 2.1-.4 2.7.4.6.9.4 2.1-.4 2.7-.9.6-2.1.4-2.7-.4-.6-.9-.5-2.1.4-2.7zM61.4 29.7c-.7.5-1.7.4-2.3-.4-.5-.7-.4-1.7.4-2.2.7-.5 1.7-.4 2.3.4.5.7.4 1.7-.4 2.2.1 0 .1 0 0 0zM57.4 33.7c-1.1.8-2.6.6-3.4-.5-.8-1.1-.6-2.6.5-3.4 1.1-.8 2.6-.6 3.4.5.8 1 .6 2.6-.5 3.4 0-.1 0-.1 0 0zM51.9 38.7c-1.5 1.1-3.5.7-4.6-.7-1.1-1.5-.7-3.5.7-4.6 1.5-1.1 3.5-.7 4.6.7 1.1 1.5.8 3.5-.7 4.6zM45.5 41.6c-.9.6-2.1.4-2.7-.4-.6-.9-.4-2.1.4-2.7.9-.6 2.1-.4 2.7.4.7.9.5 2.1-.4 2.7zM7.7 78.6c.5-.7 1.5-.9 2.3-.4.7.5.9 1.5.4 2.2-.5.7-1.5.9-2.3.4-.8-.4-.9-1.4-.4-2.2zM10.3 73.7c.8-1.1 2.3-1.3 3.4-.6 1.1.8 1.3 2.3.6 3.4-.8 1.1-2.3 1.3-3.4.6-1.1-.8-1.4-2.3-.6-3.4zM14 67.2c1.1-1.5 3.1-1.8 4.6-.7 1.5 1.1 1.8 3.1.7 4.6-1.1 1.5-3.1 1.8-4.6.7-1.4-1.1-1.8-3.2-.7-4.6zM19.1 62.4c.6-.9 1.9-1.1 2.7-.4.9.6 1.1 1.8.4 2.7-.6.9-1.9 1.1-2.7.4-.8-.6-1-1.8-.4-2.7 0 .1 0 .1 0 0zM53.7 21.3c-.5.7-1.5.9-2.3.4-.7-.5-.9-1.5-.4-2.2.5-.7 1.5-.9 2.3-.4.7.4.9 1.5.4 2.2zM51 26.2c-.8 1.1-2.3 1.3-3.4.5s-1.3-2.3-.6-3.4c.8-1.1 2.3-1.3 3.4-.5 1.2.8 1.4 2.3.6 3.4zM47.3 32.8c-1.1 1.5-3.1 1.8-4.6.7-1.5-1.1-1.8-3.1-.7-4.6 1.1-1.5 3.1-1.8 4.6-.7 1.5 1 1.8 3.1.7 4.6 0-.1 0-.1 0 0zM42.3 37.5c-.6.9-1.9 1.1-2.7.4-.9-.6-1.1-1.8-.4-2.7.6-.9 1.9-1.1 2.7-.4.8.6 1 1.8.4 2.7zM17.7 84.3c.3-.9 1.2-1.3 2-1.1.9.3 1.3 1.2 1.1 2-.3.9-1.2 1.3-2 1.1-.9-.3-1.3-1.2-1.1-2zM18.7 78.8c.4-1.3 1.8-2 3.1-1.6 1.3.4 2 1.8 1.6 3-.4 1.3-1.8 2-3.1 1.6-1.3-.4-2-1.8-1.6-3zM20.2 71.4c.6-1.7 2.4-2.7 4.2-2.1 1.7.6 2.7 2.4 2.1 4.1-.6 1.7-2.4 2.7-4.2 2.1-1.7-.5-2.7-2.3-2.1-4.1zM23.6 65.4c.3-1 1.4-1.6 2.4-1.3 1 .3 1.6 1.4 1.3 2.4-.3 1-1.4 1.6-2.4 1.3-1.1-.3-1.6-1.4-1.3-2.4zM43.6 15.6c-.3.9-1.2 1.3-2 1.1-.9-.3-1.3-1.2-1.1-2 .3-.9 1.2-1.3 2-1.1.9.3 1.4 1.2 1.1 2zM42.7 21.2c-.4 1.3-1.8 2-3.1 1.6-1.3-.4-2-1.8-1.5-3.1.4-1.3 1.8-2 3.1-1.5 1.2.4 1.9 1.7 1.5 3zM41.2 28.5c-.6 1.7-2.4 2.7-4.2 2.1-1.7-.6-2.7-2.4-2.1-4.2.6-1.7 2.4-2.7 4.1-2.1 1.8.6 2.7 2.5 2.2 4.2zM37.8 34.5c-.3 1-1.4 1.6-2.5 1.3-1-.3-1.6-1.4-1.3-2.5.3-1 1.4-1.6 2.5-1.3 1 .4 1.6 1.5 1.3 2.5z"/></svg>