<svg version="1.0" id="Слой_1" xmlns="http://www.w3.org/2000/svg" x="0" y="0" width="160" height="100" xml:space="preserve"><style>.st0{fill:none}.st1{fill:#00a551}.st2{fill:#231f20}</style><path class="st0" d="M159.2 43.3v-.1l-.1-.1h-.6v.5h.3c.2 0 .3 0 .3-.1s.1-.1.1-.2z"/><path class="st0" d="M159.5 42.4c-.2-.1-.4-.2-.7-.2-.2 0-.4.1-.7.2-.2.1-.4.3-.5.5-.1.2-.2.4-.2.7 0 .2.1.5.2.7.1.2.3.4.5.5.2.1.4.2.7.2s.5-.1.7-.2c.2-.1.4-.3.5-.5.1-.2.2-.4.2-.7 0-.2-.1-.5-.2-.7-.1-.2-.3-.3-.5-.5zm-.3 2.1l-.2-.3c-.1-.2-.2-.4-.3-.4-.1 0-.1-.1-.2-.1h-.2v.7h-.3v-1.8h1c.1 0 .2.1.2.2.1.1.1.2.1.3 0 .1 0 .2-.1.3-.1.1-.2.1-.4.2.1 0 .1.1.1.1l.3.3.2.3-.2.2z"/><path class="st1" d="M159.1 43.8l-.1-.1c.1 0 .3-.1.4-.2.1-.1.1-.2.1-.3 0-.1 0-.2-.1-.3l-.2-.2h-1v1.8h.3v-.7h.2c.1 0 .2 0 .2.1.1.1.2.2.3.4l.2.3h.3l-.2-.3c-.2-.3-.3-.4-.4-.5zm-.4-.3h-.3V43h.6c.1 0 .1.1.1.1v.1c0 .1 0 .1-.1.2 0 .1-.1.1-.3.1z"/><path class="st1" d="M160.2 42.8c-.1-.3-.3-.5-.6-.6-.3-.1-.5-.2-.8-.2-.3 0-.5.1-.8.2-.3.1-.5.3-.6.6-.1.3-.2.5-.2.8 0 .3.1.6.2.8.1.3.3.5.6.6.3.1.5.2.8.2.3 0 .5-.1.8-.2.3-.1.5-.3.6-.6.1-.3.2-.5.2-.8.1-.3 0-.5-.2-.8zm-.2 1.5c-.1.2-.3.4-.5.5-.2.1-.4.2-.7.2-.2 0-.5-.1-.7-.2-.2-.1-.4-.3-.5-.5-.1-.2-.2-.4-.2-.7 0-.2.1-.5.2-.7.1-.2.3-.4.5-.5.2-.1.4-.2.7-.2.2 0 .4.1.7.2.2.1.4.3.5.5.1.2.2.4.2.7 0 .3-.1.5-.2.7zM112.4 42l-3 16H154l3-16h-44.6zm1.3 10.6l-.5-.8-1.1-1.9L114 48l.8-.8h1.9l-2 2.2-.5.6.3.6 1.2 2.2h-2zm2.6 0l-.5-.8-1.1-1.9 1.8-1.9.8-.8h1.9l-2 2.2-.5.5v.1l.3.6 1.2 2.2h-1.9zm11.7-4l-.6 3.2H124l-.8 4.2h-4.4l2.2-12.2h8l-.6 3.3h-3.6l-.3 1.5h3.5zm8.4 4.8h-2.6l-.3-.3c-.4.2-.7.3-1 .4-.3.1-.7.1-1 .1-.8 0-1.4-.2-1.9-.6-.5-.4-.8-1-.8-1.6 0-.5.2-.9.5-1.3s.8-.6 1.5-.8c-.1-.2-.2-.4-.2-.5 0-.2-.1-.3-.1-.5 0-.5.2-1 .7-1.3.4-.3 1-.5 1.7-.5s1.3.2 1.7.6c.5.4.7.8.7 1.4 0 .4-.1.8-.4 1.1-.3.3-.6.5-1.1.7l.5.6c.2-.1.4-.3.5-.4.2-.1.4-.3.5-.5l1.1 1.4c-.2.2-.4.3-.5.5-.2.1-.4.3-.6.4l1.1 1.1zm10-4.8l-.6 3.2h-3.4l-.8 4.2h-4.4l2.2-12.2h8l-.6 3.3h-3.6l-.3 1.5h3.5zm.5 4.1l2-2.2.4-.4.1-.1v-.1l-.1-.1-.2-.4-1.2-2.2h1.9l.5.8 1.1 1.9-1.8 1.9-.8.8c0 .1-1.9.1-1.9.1zm5.2-.9l-.8.8h-1.9l2-2.2.5-.6-.3-.5-1.2-2.2h1.9l.5.8 1.1 1.9-1.8 2z"/><path class="st1" d="M133 47.8c-.1 0-.2 0-.3.1-.1.1-.1.2-.1.4v.2c0 .1.1.2.1.2.2-.1.4-.1.5-.2.1-.1.2-.2.2-.4 0-.1 0-.2-.1-.3-.1.1-.2 0-.3 0zM131.2 50.8c-.1.1-.1.2-.1.3 0 .2.1.3.2.4.1.1.3.2.5.2h.2c.1 0 .2 0 .3-.1l-.7-1c-.2 0-.3.1-.4.2z"/><path class="st2" d="M11.6 44.5h-3c-.4 0-.7.3-.7.7v9c0 .4.3.7.7.7h3.1c1.9 0 2.6-.5 2.6-2.5v-1c0-1.3-.2-1.5-1.4-2 1.1-.3 1.4-.9 1.4-2v-.7c0-1.6-.7-2.2-2.7-2.2zm-2.1 1.4h1.6c.9 0 1.1.1 1.2.2.3.2.3.5.3.9v.7c0 .4 0 .8-.3 1-.2.2-.5.2-1 .2H9.5v-3zm3.2 6.4c0 .5-.1.8-.2 1-.2.2-.4.2-1 .2h-2V50h1.9c1 0 1.3.1 1.3 1.4v.9zM26.9 44.4h-1.8c-.5 0-1.6 0-2.1 1-.2.5-.3.6-.3 2.1v4.4c0 1.3.1 1.6.3 2 .5 1 1.5 1 2.3 1h1.6c.7 0 1.2 0 1.8-.5.7-.6.7-1.4.7-2v-5.6c-.1-2.2-1.1-2.4-2.5-2.4zm.8 7.6c0 1.1 0 1.5-1 1.5h-1.1c-1.1 0-1.1-.3-1.1-1.5v-4.6c0-1.6.2-1.7 1.4-1.7h.6c1.1 0 1.3.3 1.3 1.7l-.1 4.6zM37.2 54.1l-1.9-8.8-.1-.3c-.1-.3-.3-.5-.6-.5h-1.5c-.3 0-.6.2-.6.5l-2.2 9.2-.1.5c0 .2.1.3.2.3h1.1c.2 0 .4-.1.4-.3l.1-.5.1-.5.4-2h2.4l.5 2.5.1.5c0 .2.2.3.4.3H37c.2 0 .3-.1.2-.3v-.6zm-4.4-3.9l1-4.7.9 4.7h-1.9zM41.7 44.5h-3c-.4 0-.7.3-.7.7v9c0 .4.3.7.7.7h3.1c1.9 0 2.6-.5 2.6-2.5v-1c0-1.3-.2-1.5-1.4-2 1.1-.3 1.4-.9 1.4-2v-.7c0-1.6-.7-2.2-2.7-2.2zm-2.1 1.4h1.6c.9 0 1.1.1 1.2.2.3.2.3.5.3.9v.7c0 .4 0 .8-.3 1-.2.2-.5.2-1 .2h-1.9l.1-3zm3.2 6.4c0 .5-.1.8-.2 1-.2.2-.4.2-1 .2h-2V50h1.9c1 0 1.3.1 1.3 1.4v.9zM52.5 44.5h-7.1c-.2 0-.3.1-.3.3v.8c0 .2.1.3.3.3h2.7v8.8c0 .2.1.3.3.3h1c.2 0 .3-.1.3-.3v-8.8h2.7c.2 0 .3-.1.3-.3v-.8c0-.2-.1-.3-.2-.3zM57.6 44.4h-1.8c-.5 0-1.6 0-2.1 1-.2.5-.2.6-.2 2.1v4.4c0 1.3.1 1.6.2 2 .5 1 1.5 1 2.3 1h1.6c.7 0 1.2 0 1.8-.5.7-.6.7-1.4.7-2v-5.6c-.1-2.2-1.2-2.4-2.5-2.4zm.8 7.6c0 1.1 0 1.5-1 1.5h-1.1c-1.1 0-1.1-.3-1.1-1.5v-4.6c0-1.6.2-1.7 1.4-1.7h.6c1.1 0 1.3.3 1.3 1.7l-.1 4.6zM69.6 44.5h-1.3c-.2 0-.3.2-.4.4l-2.4 5.3-2.3-5.3c-.1-.2-.2-.4-.4-.4h-1.2c-.2 0-.4.2-.4.4v9.8c0 .2.1.3.3.3h.9c.2 0 .3-.1.3-.3V47l2 4.8c.1.1.1.2.2.2H66c.1 0 .2-.1.2-.2l2.2-4.8v7.7c0 .2.1.3.3.3h.9c.2 0 .3-.1.3-.3v-9.8c.1-.3-.1-.4-.3-.4zM77.7 54.1l-1.9-8.8-.1-.3c-.1-.3-.3-.5-.6-.5h-1.5c-.3 0-.6.2-.6.5l-2.2 9.2-.1.5c0 .2.1.3.2.3H72c.2 0 .4-.1.4-.3l.1-.5.1-.5.4-2h2.4l.5 2.5.1.5c0 .2.2.3.4.3h1.1c.2 0 .3-.1.2-.3v-.6zm-4.4-3.9l1-4.7.9 4.7h-1.9zM84.4 44.5h-7.1c-.2 0-.3.1-.3.3v.8c0 .2.1.3.3.3H80v8.8c0 .2.1.3.3.3h1c.2 0 .3-.1.3-.3v-8.8h2.7c.2 0 .3-.1.3-.3v-.8c.1-.2-.1-.3-.2-.3zM91.9 44.5h-1.2c-.2 0-.3.2-.4.4l-3.5 7.5v-7.5c0-.2-.1-.3-.3-.3h-.9c-.2 0-.3.1-.3.3v9.8c0 .2.2.4.4.4h1c.2 0 .3-.2.4-.4l.1-.2 3.7-7.5v7.7c0 .2.1.3.3.3h.8c.2 0 .3-.1.3-.3v-9.8c0-.3-.2-.4-.4-.4zM99 44.5h-.9c-.3 0-.4.2-.5.4L95 49.2v-4.5c0-.2-.1-.3-.3-.3h-1c-.2 0-.3.1-.3.3v9.8c0 .2.1.3.3.3h1c.2 0 .3-.1.3-.3v-4.2h1.6c1 0 1.1.1 1.1.8v3.3c0 .2.1.3.3.3h1c.2 0 .3-.1.3-.3v-3.5c0-.5 0-1.1-.4-1.6-.4-.4-.8-.4-1.2-.4h-1l2.6-4.3c.2.1.2-.1-.3-.1zM107.1 54.6l-.1-.5-1.9-8.8-.1-.3c-.1-.3-.3-.5-.6-.5h-1.5c-.3 0-.6.2-.6.5l-2.2 9.2-.1.5c0 .2.1.3.2.3h1.1c.2 0 .4-.1.4-.3l.1-.5.1-.5.4-2h2.4l.5 2.5.1.5c0 .2.2.3.4.3h1.1c.2 0 .3-.2.3-.4zm-4.5-4.4l1-4.7.9 4.7h-1.9zM6.3 53.6H3.2c-1.1 0-1.1-.7-1.1-1.9v-1.3h4.1c.2 0 .3-.1.3-.3v-.9c0-.2-.1-.3-.3-.3H2.1v-1.1c0-1.6.2-2 1.4-2h2.7c.2 0 .3-.1.3-.3v-.8c0-.2-.1-.3-.3-.3H2.8c-1.7 0-2.4.7-2.4 2.3v5.1c0 1.3.1 1.6.3 2 .5 1 1.5 1 2.3 1h3.3c.2 0 .3-.1.3-.3v-.8s-.1-.1-.3-.1zM19.3 44.5h-3c-.4 0-.7.3-.7.7v9.4c0 .2.1.3.3.3h1c.2 0 .3-.1.3-.3v-4.2h2.1c1.5 0 2.3-.5 2.3-2.4v-1.4c0-1.2-.3-2.1-2.3-2.1zm.7 3.3c0 1-.2 1.2-1 1.2h-1.8v-3.1H19c.9 0 1.1.2 1.1 1l-.1.9z"/><path class="st1" d="M53.6 57.8c-.1 0-.1 0-.1.1v.1h55.8l-.1.3H53.6c-.1 0-.1-.1-.1-.1v-.4h.1l55.8-.1v.1H53.6zm-8.5-.1c-.4.1-.8.2-1.2.2H.6c-.1 0-.1 0-.1.1v.1h43.4c.5 0 .8-.1 1.3-.2l8.2-2.2v-.1c0-.1-.1-.1-.1-.1l-8.2 2.2zm-44.5.1h43.3c.5 0 .9-.1 1.4-.2l8-2.1c.1 0 .1 0 .1.1l.1.3c0 .1 0 .1-.1.1l-8 2.1c-.5.1-.8.2-1.3.2H.6c-.1 0-.1-.1-.1-.1v-.4h.1z"/></svg>