<svg version="1.0" id="Слой_1" xmlns="http://www.w3.org/2000/svg" x="0" y="0" viewBox="0 0 160 100" xml:space="preserve"><style>.st0{fill:#ed1d24}</style><path d="M65.4 42.5c4.4 0 8 3.5 8 8 0 4.4-3.5 8-8 8-4.4 0-8-3.5-8-8s3.5-8 8-8m0 12.1c2.2 0 4-1.8 4-4.1s-1.8-4.1-4-4.1-4 1.8-4 4.1 1.7 4.1 4 4.1M75.2 58.1V42.9h3.6v2.9c.8-2.9 3.3-3.1 4.2-3.1h.5v4.2h-.6c-3.5 0-3.7 2.8-3.7 4.5v6.7h-4zM92.6 42.9v3.9h-2.9v5.4c0 .9 0 2 1.8 2h1.1v3.9h-1.1c-1.2 0-2.8.1-4.1-.8-1.9-1.3-1.8-3.5-1.8-5.1V38.8h4v4.1h3zM95.7 42.9h4v15.2h-4zM102.5 54.2h4.8c.6 0 1.6 0 1.6-.8 0-1-1.6-1.6-2.5-2.1-2-.9-3.7-1.7-3.7-4.1 0-2.3 1.3-4.3 4.8-4.3h4.9v3.9h-4.6c-.5 0-1.2-.1-1.2.6 0 .5.4.8 1.8 1.4 2.3 1.1 4.6 2 4.6 4.8 0 1.3-.5 4.5-6 4.5h-4.6v-3.9zM125 36.2h4v21.9h-4zM147.2 51.6c-.7 4.5-4.5 6.8-8 6.8-4.5 0-8-3.5-8-8s3.5-8 8-8c3.2 0 5.8 1.7 7.2 4.5l-7.7 5.8-1.9-2.5 4-3.1c-.5-.6-1.3-.8-2-.8-2 0-3.5 1.8-3.5 4.1 0 2.8 2.3 4.1 4.1 4.1 1.8 0 3.5-1.3 3.8-3.4l4 .5zM148.5 54.2c1.1 0 2.4-.2 3.2-1.7.3-.6.4-1.3.4-2.1 0-.7-.1-1.4-.4-2.1-.8-1.5-2.1-1.7-3.2-1.7h-.3v-3.9h.7c1.3 0 4 .1 5.2 3 1.3-2.9 3.9-3 5.2-3h.7v3.9h-.3c-1.1 0-2.4.2-3.2 1.7-.3.6-.4 1.3-.4 2.1 0 .7.1 1.4.4 2 .8 1.6 2.1 1.7 3.2 1.7h.3V58h-.6c-1.5 0-4-.1-5.3-3-1.3 2.9-3.8 3-5.3 3h-.6v-3.9l.3.1z"/><path class="st0" d="M99.8 39c0 .6-.5 1.1-1.2 1.1h-2.8v-2.9c0-.6.5-1.1 1.2-1.1h2.8V39z"/><path d="M56.1 49.1c0 .4-.4.8-.8.8h-5.9v8.2h-4.6v-15c0-1.7 0-4 1.9-5.6 1.6-1.3 3.8-1.3 5.6-1.3h3.8v4.4h-3.3c-1.8 0-3.4-.1-3.4 3.5v1.4h6.7v3.6zM122.5 42.9h-3.1v-.8c0-2 1-2 2-2h1.1v-3.9h-.9c-1.6 0-3.3 0-4.6 1.2-1.6 1.4-1.6 3.8-1.6 5.8v14.9h4V46.7h2.3c.4 0 .8-.4.8-.8v-3z"/><path d="M35.5 53.4c0 5.9-4.8 10.8-10.8 10.8H0V39.5c0-5.9 4.8-10.8 10.8-10.8l24.6-.1.1 24.8h0z" fill="none" stroke="#000" stroke-width=".769"/><path class="st0" d="M25.6 30.7l-.1 7.9h.1v3.8H15.3s-.7 0-1.1.4c-.5.4-.4.9-.4.9V49s-.1.6.4 1c.4.4.9.4.9.4h10.5c0 3.9-2.6 4.1-5.6 4.1h-6.1v7.6h6.9c3.1 0 6.7.1 9.5-2.1 3.2-2.6 3.3-6.5 3.3-9.4v-20h-8z"/><path d="M15.4 38.7h10.1v-7.9H14.7c-3.1 0-6.7-.1-9.5 2.2C2 35.6 2 39.3 2 42.3v19.9h7.7V44c0-6.1 2.7-5.3 5.7-5.3"/></svg>