<svg version="1.0" xmlns="http://www.w3.org/2000/svg" width="160" height="100"><path d="M23.7 35.8c.2-1.3.3-2.6.3-3.7-.1-1.2-.3-2.2-.7-3.1-.4-.9-1-1.6-1.6-2.1-.7-.5-1.5-.7-2.4-.7-1.4 0-2.7.4-3.9 1.3-1.2.8-2.2 1.9-3.2 3.3-.9 1.4-1.7 2.9-2.3 4.7-.6 1.7-1 3.6-1.3 5.4-.2 1.4-.3 3-.3 4.6 0 1.7.2 3.2.6 4.6.4 1.4 1 2.6 1.9 3.5.9.9 2.1 1.4 3.8 1.4 1.1 0 2.4-.6 3.7-1.7 1.4-1.2 2.6-2.6 3.6-4.5l1.8-13zm133.4-7.9c.6-2.7 1.6-3.4 3.2-3.9v-2.4c-3.2 0-4.6 1-6.4 2.8-.4-.2-.8-.4-1.3-.6-1.3-.5-2.8-.7-4.6-.7-1.5 0-3 .2-4.4.7-1.4.5-2.7 1.2-3.9 2.1-1.2.9-2.1 2-2.9 3.3-.8 1.3-1.2 2.6-1.4 4.2-.3 2.2.1 4.1 1.3 5.5 1.2 1.5 2.9 2.8 5.2 3.9 1.5.7 2.9 1.3 4.3 1.9 1.3.6 2.3 1.3 3 2.1.7.8.9 2 .7 3.7-.3 1.8-1 3.2-2.1 4.3-1.2 1.1-2.6 1.7-4.1 1.7-1.8 0-3.1-.4-3.9-1.3-.8-.8-1-2-.9-3.5.2-1.2.5-2.3 1.2-3.3l-.4-.9c-.9-.2-1.8-.3-2.7-.1-.8.2-1.6.5-2.3 1-.7.4-1.2 1-1.7 1.7-.3.4-.5.9-.6 1.3-1.2 2.4-4.6 4.4-6.8 4.4 2.2-1.9 3.5-4.4 3.9-7.4.3-2.4-.2-4.3-1.5-5.7-1.3-1.5-3-2.7-5.3-3.7-.9-.4-1.9-.8-2.9-1.1-1.1-.4-1.9-.7-2.6-1.1-1.1-.7-1.8-1.5-2.2-2.4-.4-.9-.4-2-.2-3.5.2-1.3.8-2.4 1.7-3.4 1-1 2.1-1.5 3.4-1.5 1.5 0 2.6.4 3.3 1.1.6.7.8 1.7.7 3-.2 1.2-.6 2.6-1.3 4l.1.7c2.2.5 4 .4 5.2-.5 1.3-.9 2-2 2.3-3.4.1-.8 0-1.7-.3-2.6-.3-.9-.8-1.7-1.6-2.5s-1.8-1.4-3-1.9c-1.3-.5-2.8-.7-4.6-.7-1.5 0-3 .2-4.4.7-1.4.5-2.7 1.2-3.9 2.1-1.2.9-2.1 2-2.9 3.3-.8 1.3-1.2 2.6-1.4 4.2-.3 2.2.1 4.1 1.3 5.5 1.2 1.5 2.9 2.8 5.2 3.9 1.5.7 2.9 1.3 4.3 1.9 1.3.6 2.3 1.3 3 2.1.7.8.9 2 .7 3.7-.3 1.8-1 3.2-2.1 4.3-1.2 1.1-2.6 1.7-4.1 1.7-1.8 0-3.1-.4-3.9-1.3-.8-.8-1-2-.8-3.5.2-1.2.5-2.3 1.2-3.3l-.4-.9c-.9-.2-1.8-.3-2.7-.1-.8.2-1.6.5-2.3 1-.7.4-1.2 1-1.7 1.7-.4.7-.7 1.4-.8 2.1-.1.8 0 1.6.2 2.4-1.5 1-3.1 1.7-4.4 1.7l-.1.1c-.5-.1-.8-.2-1.1-.4-.4-.2-.6-.6-.8-1.1-.2-.5-.3-1.2-.3-2.2 0-1.8.3-4.8.9-9 .1-.9.3-2 .5-3.3.2-1.3.4-2.6.6-4 .2-1.4.4-2.7.7-4 .2-1.3.4-2.4.6-3.3.1-.6.2-1.3.2-1.8 0-.6 0-1.1-.2-1.6s-.5-.9-1-1.3-1.2-.9-2.1-.9h-2.4l-1.2 1.1c-.5 4-1.1 8-1.7 12-.6 4-1.2 8.1-1.7 12-1 1.8-2.3 3.4-3.7 4.6-1.5 1.2-2.8 1.8-3.9 1.8-1.7 0-2.8-.7-3.3-2.1-.5-1.4-.7-3.1-.6-5.1 0-1 .2-2.3.4-4 .2-1.7.5-3.5.8-5.4.3-1.9.6-3.8.9-5.6.3-1.8.5-3.4.7-4.6.1-.5.2-1 .2-1.6 0-.6 0-1.1-.3-1.7-.2-.5-.7-.9-1.4-1.3-.7-.3-1.8-.5-3.2-.5h-.7c-.2 0-.6 0-1.1.1-.5.1-1.2.2-2 .3-.8.1-2 .3-3.4.5l-.2 1.6c1.1.2 2 .4 2.7.6.6.2 1.1.5 1.4.9.3.4.5.8.6 1.3 0 .5 0 1.1-.1 1.9-.4 2.9-.8 5.9-1.2 8.9-.4 3.1-.8 6-1.2 8.9-.1.9-.2 1.8-.2 2.6-.5 3.1-4.8 5.7-7.3 5.7-.6-.1-1.1-.3-1.5-.6-.4-.3-.7-.7-.9-1.2-.2-.5-.3-1.3-.3-2.3 0-1.1.1-2.5.3-4.1.2-1.7.4-3.7.7-6.1.4-2.9.7-5.3 1-7.3.3-2 .5-3.7.7-5.1.2-1.4.4-2.5.6-3.4.2-.9.4-1.6.6-2.3l-2.1-1-4.4 2.7c-1-1.1-2.1-1.9-3.4-2.2-1.3-.3-2.6-.5-3.9-.5-2.3 0-4.4.5-6.5 1.6-2 1-3.9 2.4-5.5 4.1-1.6 1.7-3 3.7-4.1 6-1.1 2.3-1.9 4.7-2.3 7.2-.3 2.1-.4 4.2-.2 6.3.2 2.1.7 3.9 1.4 5.6.8 1.6 1.9 3 3.4 4s3.3 1.5 5.6 1.5c1.5 0 3.2-.3 5-1 1.8-.6 3.6-2 5.3-4.1h.1c0 .5.1 1.1.2 1.7.1.6.4 1.1.7 1.7.3.5.8.9 1.4 1.3.6.3 1.3.5 2.2.5H60.9c1.4 0 3.8.1 6.5-.9 2.2-.8 4.5-2.4 5.9-4.3.2.6.4 1.2.7 1.8.6 1 1.4 1.9 2.5 2.5 1.1.6 2.4.9 4 .9 1.5 0 3.2-.3 5-1 1.8-.6 3.6-2 5.3-4.1h.1c0 .5.1 1.1.2 1.7.1.6.4 1.1.7 1.7.3.5.8.9 1.4 1.3.6.3 1.3.5 2.2.5h1.1c1.4 0 3.6 0 6-.8l.4-.1v-.1c1.1-.4 2.3-1.1 3.3-1.9.1.2.3.3.5.5.7.7 1.8 1.2 3 1.7 1.3.4 2.9.7 4.8.7s3.6-.2 5.1-.6h.2c.9-.1 4 .3 7.3-.9 1.8-.7 3.7-1.8 5.1-3.3v.1c.2.8.7 1.6 1.5 2.3.7.7 1.8 1.2 3 1.7 1.3.4 2.9.7 4.8.7 4.3 0 7.8-1 10.3-3 2.5-2 4.1-4.6 4.5-7.9.3-2.4-.2-4.3-1.5-5.7-1.3-1.5-3-2.7-5.3-3.7-.9-.4-1.9-.8-2.9-1.1-1.1-.4-1.9-.7-2.6-1.1-1.1-.7-1.8-1.5-2.2-2.4-.4-.9-.4-2-.2-3.5.2-1.3.8-2.4 1.7-3.4 1-1 2.1-1.5 3.4-1.5 1.5 0 2.6.4 3.3 1.1.2.2.4.5.5.8-.7.9-1.2 1.9-1.4 2.9-.3 1.8-.4 4 2 4.3 1.4.2 2.7-.2 3.6-.7 1.3-.9 2-2 2.3-3.4.1-.8 0-1.7-.3-2.6.5-.6.5-.7.4-.8zM58 35.2c-.5 4.5-1.3 9-2 13.5-1 1.8-2.2 3.3-3.6 4.5-1.4 1.2-2.6 1.7-3.7 1.7-1.6 0-2.9-.5-3.8-1.4-.9-.9-1.5-2.1-1.9-3.5-.4-1.4-.6-2.9-.6-4.6 0-1.6.1-3.2.3-4.6.2-1.9.7-3.7 1.3-5.4.6-1.7 1.4-3.3 2.3-4.7.9-1.4 2-2.5 3.1-3.3 1.2-.8 2.5-1.3 3.9-1.3.9 0 1.7.2 2.4.7.7.5 1.2 1.2 1.6 2.1.4.9.7 1.9.7 3.1v1.1c.2.8.1 1.4 0 2.1m-37.1 19c-1.7 2.1-3.5 3.5-5.2 4.1-1.7.6-3.4 1-4.9 1-2.3 0-4.1-.5-5.6-1.5s-2.6-2.3-3.4-4C1 52.1.5 50.3.4 48.2c-.2-2.1-.1-4.2.2-6.3.4-2.5 1.2-4.9 2.3-7.1 1.1-2.3 2.5-4.3 4.1-6 1.6-1.7 3.5-3.1 5.5-4.1 2-1 4.2-1.6 6.5-1.6 1.3 0 2.6.2 3.9.5 1.3.3 2.4 1.1 3.4 2.2l.9.2c2.5-2.7 3.8-4.3 7.8-4.4V24c-1.6.4-2.6 1.2-3.2 3.9v.2c-.3 1.3-.5 2.8-.8 4.4-.2 1.6-.5 3.5-.8 5.6-.3 2.1-.6 4.6-.9 7.5-.6 5-1.3 9.4-1.9 13.2-.6 3.8-1.3 7.1-2.1 9.9-.8 2.8-1.7 5.1-2.7 6.9-1 1.8-2.3 3.3-3.8 4.4-1.1.8-2.3 1.3-3.6 1.6-1.2.3-2.5.4-3.7.4-.8 0-1.8-.1-2.8-.3-1-.2-2-.5-2.8-.9-.3-.2-.7-.3-1-.5-2.5-1.4-4-4.4-2.3-7.3 1.1-1.9 4.1-1.2 5.3-1l1.9 2c-.3 1-.4 1.9-.4 2.7 0 .8.1 1.4.4 1.8.3.4.6.7 1 .8.4.1.9.1 1.4-.1.5-.1 1-.4 1.6-.8 2-1.5 3.6-4.2 4.6-8.1 1-3.9 1.9-9.3 2.5-16.2v.1z"/></svg>