<svg version="1.0" id="Слой_1" xmlns="http://www.w3.org/2000/svg" x="0" y="0" viewBox="0 0 160 100" xml:space="preserve"><style>.st0{fill:#234e9e}.st1{fill:none;stroke:#234e9e;stroke-width:.216;stroke-miterlimit:10}.st2{fill:#1e4e9d}.st17{fill:none;stroke:#fff;stroke-width:1.1769;stroke-miterlimit:22.926}</style><path class="st0" d="M40.9 64.1h-.2v-4.2h2.8v4.2h-.1v-4h-2.5z"/><path class="st1" d="M40.9 64.2h-.2v-4.3h2.9v4.3h-.2v-4.1h-2.5z"/><path class="st0" d="M45.4 64.1h-.2v-4.2h2.3l.6.6v1.3l-.6.6h-2.1v1.7zm0-4v2.1h2l.5-.5v-1.2l-.5-.5-2 .1z"/><path class="st1" d="M45.4 64.2h-.2v-4.3h2.3l.6.6v1.4l-.6.6h-2.1v1.7zm0-4.1v2.1h2l.5-.5v-1.2l-.5-.5c.1.1-2 .1-2 .1z"/><path class="st0" d="M51.8 59.9l.6.6v3.1l-.6.6H50l-.6-.6v-3.1l.6-.6h1.8zm0 .2h-1.7l-.5.5v3l.5.5h1.7l.5-.5v-3l-.5-.5z"/><path class="st1" d="M51.8 59.9l.6.6v3.1l-.6.6H50l-.6-.6v-3.1l.6-.6h1.8zm0 .2h-1.7l-.5.5v3l.5.5h1.7l.5-.5v-3l-.5-.5z"/><path class="st0" d="M54.3 64.1H54v-4.2h.2v4l2.4-4h.3v4.2h-.2v-4z"/><path class="st1" d="M54.3 64.2H54v-4.3h.2v4l2.4-4h.3v4.3h-.2v-4.1z"/><path class="st0" d="M60.7 60.5l-.4-.4h-1.7l-.4.1-.1-.1.5-.2h1.8l.5.5v1.1l-.4.5.4.4v1.2l-.5.5h-1.9l-.4-.1v-.2l.5.2h1.7l.5-.5v-1l-.5-.4H59v-.2h1.3l.4-.4z"/><path class="st1" d="M60.7 60.5l-.4-.4h-1.7l-.4.1-.1-.1.5-.2h1.8l.5.5v1.1l-.4.5.5.5v1.1l-.6.6h-1.9l-.4-.2v-.2l.5.2h1.7l.5-.5v-1l-.5-.4H59v-.2h1.3l.4-.4z"/><path class="st0" d="M65.3 62.4v1.2l-.6.6h-2.3V60h2.3l.4.4v1.2l-.3.3.5.5zm-2.7-.6h2l.3-.3v-1.1l-.3-.3h-2v1.7zm2.1.2h-2v2h2l.5-.4v-1.1l-.5-.5z"/><path class="st1" d="M65.3 62.4v1.2l-.6.6h-2.3v-4.3h2.3l.4.4v1.2l-.3.3.5.6zm-2.7-.6h2l.3-.3v-1.1l-.3-.3h-2v1.7zm2.1.2h-2v2h2l.5-.5v-1.1l-.5-.4z"/><path class="st0" d="M69.1 59.9l.6.6v3.1l-.6.6h-1.8l-.6-.6v-3.1l.6-.6h1.8zm-.1.2h-1.7l-.5.5v3l.5.5H69l.5-.5v-3l-.5-.5z"/><path class="st1" d="M69.1 59.9l.6.6v3.1l-.6.6h-1.8l-.6-.6v-3.1l.6-.6h1.8zm-.1.2h-1.7l-.5.5v3l.5.5H69l.5-.5v-3l-.5-.5z"/><path class="st0" d="M74.5 65.2h-.2v-1H71v1h-.2V64h.3l.3-.4.4-3.6H74v4h.4l.1 1.2zM71.4 64h2.5v-3.9H72l-.4 3.5-.2.4z"/><path class="st1" d="M74.5 65.2h-.2v-1H71v1h-.2V64h.3l.3-.4.4-3.6h2.3v4h.4v1.2zM71.3 64h2.5v-3.9H72l-.4 3.5-.3.4z"/><path class="st0" d="M76.1 64.1h-.3v-4.2h.2v4l2.4-4h.3v4.2h-.2v-4z"/><path class="st1" d="M76.1 64.2h-.3v-4.3h.2v4l2.4-4h.3v4.3h-.2v-4.1z"/><path class="st0" d="M81.5 64.1h-.2v-4h-1.4v-.2h3v.2h-1.4z"/><path class="st1" d="M81.5 64.2h-.2v-4.1h-1.4v-.2h3v.2h-1.4z"/><path class="st0" d="M84.1 59.9h2.6v.2h-2.4v1.7h2.2v.2h-2.2v2h2.4v.1h-2.6z"/><path class="st1" d="M84.1 59.9h2.6v.2h-2.4v1.7h2.2v.2h-2.2v2h2.4v.2h-2.6z"/><path class="st0" d="M90.9 64.1h-.2v-4h-1.9l-.4 3.6-.3.3-.5.2V64l.4-.2.2-.2.4-3.7h2.3z"/><path class="st1" d="M90.9 64.2h-.2v-4.1h-1.9l-.4 3.6-.3.3-.5.2V64l.4-.1.2-.3.4-3.7h2.3z"/><path class="st0" d="M92.6 59.9h.2v1.8h2.1l.6.6v1.3l-.6.6h-2.3v-4.3zm2.2 2h-2V64h2l.5-.5v-1.1l-.5-.5z"/><path class="st1" d="M92.6 59.9h.2v1.8h2.1l.6.6v1.3l-.6.6h-2.3v-4.3zm2.2 2h-2V64h2l.5-.5v-1.1l-.5-.5z"/><path class="st0" d="M102 63.5l.1.2-.5.4h-1.8l-.5-.5v-3.1l.5-.6h1.7l.6.6v.6h-.2v-.6l-.4-.4h-1.6l-.4.4v3l.4.5h1.6z"/><path class="st1" d="M102 63.6l.1.1-.5.5h-1.8l-.5-.6v-3.1l.5-.6h1.8l.5.6v.6h-.2v-.6l-.4-.4h-1.6l-.5.4v3l.5.5h1.7z"/><path class="st0" d="M103.8 64.1h-.3v-4.2h.2v4l2.4-4h.3v4.2h-.2v-4z"/><path class="st1" d="M103.8 64.2h-.3v-4.3h.2v4l2.4-4h.3v4.3h-.2v-4.1z"/><path class="st0" d="M110.9 64.1h-.2v-4h-1.9l-.4 3.6-.3.3-.5.2V64l.4-.2.2-.2.4-3.7h2.3z"/><path class="st1" d="M110.9 64.2h-.2v-4.1h-1.9l-.4 3.6-.3.3-.5.2-.1-.2.5-.1.2-.3.4-3.7h2.3z"/><path class="st0" d="M114.9 59.9l.6.6v3.1l-.6.6h-1.8l-.6-.6v-3.1l.6-.6h1.8zm-.1.2h-1.7l-.5.5v3l.5.5h1.7l.5-.5v-3l-.5-.5z"/><path class="st1" d="M114.9 59.9l.6.6v3.1l-.6.6h-1.8l-.6-.6v-3.1l.6-.6h1.8zm-.1.2h-1.7l-.5.5v3l.5.5h1.7l.5-.5v-3l-.5-.5z"/><path class="st0" d="M119.9 62.4v1.2l-.6.6H117V60h2.3l.4.4v1.2l-.3.3.5.5zm-2.6-.6h2l.3-.3v-1.1l-.3-.3h-2v1.7zm2 .2h-2v2h2l.5-.4v-1.1l-.5-.5z"/><path class="st1" d="M119.9 62.4v1.2l-.6.6H117v-4.3h2.3l.4.4v1.2l-.3.3.5.6zm-2.6-.6h2l.3-.3v-1.1l-.3-.3h-2v1.7zm2 .2h-2v2h2l.5-.5v-1.1l-.5-.4z"/><path class="st0" d="M123.7 59.9l.6.6v3.1l-.6.6h-1.8l-.6-.6v-3.1l.6-.6h1.8zm0 .2H122l-.5.5v3l.5.4h1.6l.5-.5v-3l-.4-.4z"/><path class="st1" d="M123.7 59.9l.6.6v3.1l-.6.6h-1.8l-.6-.6v-3.1l.6-.6h1.8zm0 .2H122l-.5.5v3l.5.4h1.7l.5-.5v-3l-.5-.4z"/><path class="st0" d="M126.1 64.1h-.2v-4.2h2.5v.2h-2.3z"/><path class="st1" d="M126.1 64.2h-.2v-4.3h2.6v.2h-2.4z"/><path class="st0" d="M131.9 59.9l.6.6v3.1l-.6.6h-1.8l-.6-.6v-3.1l.6-.6h1.8zm0 .2h-1.6l-.5.5v3l.5.5h1.6l.5-.5v-3l-.5-.5z"/><path class="st1" d="M131.9 59.9l.6.6v3.1l-.6.6h-1.8l-.6-.6v-3.1l.6-.6h1.8zm0 .2h-1.7l-.5.5v3l.5.5h1.7l.5-.5v-3l-.5-.5z"/><path class="st0" d="M136.9 64.1h-.2v-4.2h.2v2h.9L139 60l.5-.1v.1l-.4.2L138 62l1.1 1.9.4.1v.2l-.5-.2-1.2-1.9h-.9z"/><path class="st1" d="M136.8 64.2h-.1v-4.3h.1v2h1L139 60l.5-.1.1.1-.5.2L138 62l1.1 1.9.5.1-.1.2-.5-.2-1.2-1.9h-1z"/><path class="st0" d="M140.6 64.2l-.2-.1 1.4-4.2h.4l1.4 4.2-.2.1-.5-1.4H141l-.4 1.4zm2.3-1.6l-.8-2.5h-.1l-.8 2.5h1.7z"/><path class="st1" d="M140.6 64.2l-.2-.1 1.4-4.2h.4l1.4 4.2-.2.1-.5-1.4H141l-.4 1.4zm2.3-1.6l-.8-2.5h-.1l-.8 2.5h1.7z"/><path class="st0" d="M144.9 59.9h2.6v.2h-2.4v1.6h2.1l.6.6v1.3l-.6.6h-2.3v-4.3zm2.2 2h-2V64h2l.5-.5v-1.1l-.5-.5z"/><path class="st1" d="M144.9 59.9h2.6v.2h-2.4v1.7h2.1l.6.6v1.3l-.6.6h-2.3v-4.4zm2.2 2h-2V64h2l.5-.5v-1.1l-.5-.5z"/><path class="st0" d="M149.2 59.9h2.6v.2h-2.4v1.7h2.2v.2h-2.2v2h2.4v.1h-2.6z"/><path class="st1" d="M149.2 59.9h2.6v.2h-2.4v1.7h2.2v.2h-2.2v2h2.4v.2h-2.6z"/><path class="st0" d="M156 64.1h-.2v-4h-1.9l-.4 3.6-.3.3-.5.2V64l.4-.2.2-.2.4-3.7h2.3z"/><path class="st1" d="M156 64.2h-.2v-4.1h-1.9l-.4 3.6-.3.3-.5.2-.1-.2.5-.1.2-.3.4-3.7h2.3z"/><path class="st0" d="M160.2 62.4H159l-1 1.6-.5.2-.1-.2.4-.1.9-1.5h-.7l-.6-.6v-1.3l.6-.6h2.2v4.2h-.2l.2-1.7zm-2-2.3l-.5.5v1.2l.5.5h2v-2.1l-2-.1z"/><path class="st1" d="M160.2 62.4H159l-1 1.6-.5.2-.1-.2.4-.1.9-1.5h-.7l-.6-.6v-1.4l.6-.6h2.3v4.3h-.2l.1-1.7zm-2-2.3l-.5.5v1.2l.5.5h2v-2.1l-2-.1z"/><path class="st2" d="M17 35.3c4.3 0 8.2 1.8 11 4.6 2.8 2.8 4.6 6.7 4.6 11s-1.7 8.2-4.6 11c-2.8 2.8-6.7 4.6-11 4.6s-8.2-1.7-11-4.6c-2.8-2.8-4.6-6.7-4.6-11s1.7-8.2 4.6-11c2.8-2.9 6.7-4.6 11-4.6"/><path d="M16.4 45.2c1-.1 2 .6 2.1 1.6.1 1-.6 2-1.6 2.1-1 .1-2-.6-2.1-1.6-.1-1 .6-1.9 1.6-2.1zm5.7 3.1c.4.9.1 2-.9 2.5-.9.4-2 .1-2.5-.9-.4-.9-.1-2 .9-2.5.9-.4 2-.1 2.5.9zM21 54.6c-.7.7-1.9.7-2.6 0-.7-.7-.7-1.9 0-2.6.7-.7 1.9-.7 2.6 0 .7.7.7 1.9 0 2.6zm-6.4.9c-.9-.5-1.2-1.6-.8-2.5.5-.9 1.6-1.2 2.5-.8.9.5 1.2 1.6.8 2.5-.5.9-1.6 1.3-2.5.8zm-2.8-5.8c.2-1 1.1-1.7 2.1-1.5 1 .2 1.7 1.1 1.5 2.1-.2 1-1.1 1.7-2.1 1.5-1-.1-1.7-1.1-1.5-2.1z" fill="none" stroke="#006fb5" stroke-width=".216" stroke-miterlimit="22.926"/><path d="M17.4 45.3c1 .1 1.7.9 1.7 1.9-.1 1-.9 1.7-1.9 1.7-1-.1-1.7-.9-1.7-1.9.1-1 .9-1.7 1.9-1.7zm4.9 4c.2 1-.4 1.9-1.3 2.2-1 .2-1.9-.4-2.2-1.3-.2-1 .4-1.9 1.3-2.2 1-.3 2 .3 2.2 1.3zm-2.2 5.9c-.8.5-2 .3-2.5-.6-.5-.8-.3-2 .6-2.5.8-.5 2-.3 2.5.6.5.8.2 1.9-.6 2.5zm-6.3-.4c-.8-.6-.9-1.8-.2-2.5.6-.8 1.8-.9 2.5-.2.8.6.9 1.8.2 2.5-.6.8-1.8.9-2.5.2zm-1.7-6c.4-.9 1.4-1.4 2.4-1 .9.4 1.4 1.4 1 2.4-.4.9-1.4 1.4-2.4 1-.9-.5-1.3-1.5-1-2.4z" fill="none" stroke="#0079bc" stroke-width=".216" stroke-miterlimit="22.926"/><path d="M18.5 45.4c1 .3 1.5 1.3 1.3 2.3-.3 1-1.3 1.5-2.3 1.3-1-.3-1.5-1.3-1.3-2.3.3-1 1.3-1.6 2.3-1.3zm4 4.9c0 1-.8 1.9-1.8 1.9s-1.9-.8-1.9-1.8.8-1.9 1.8-1.9c1.1 0 1.9.8 1.9 1.8zm-3.4 5.4c-1 .3-2-.2-2.4-1.1-.3-1 .2-2 1.1-2.4 1-.3 2 .2 2.4 1.1.4 1-.1 2.1-1.1 2.4zM13 54.2c-.6-.8-.5-2 .3-2.6.8-.6 2-.5 2.6.3.6.8.5 2-.3 2.6-.9.6-2 .5-2.6-.3zm-.5-6.4c.6-.8 1.7-1.1 2.6-.5.8.6 1.1 1.7.5 2.6-.6.8-1.7 1.1-2.6.5-.8-.6-1-1.8-.5-2.6z" fill="none" stroke="#3b85c4" stroke-width=".216" stroke-miterlimit="22.926"/><path d="M19.5 45.5c1 .5 1.3 1.7.8 2.6-.5 1-1.7 1.3-2.6.8-1-.5-1.3-1.7-.8-2.6.5-.9 1.7-1.3 2.6-.8zm3.3 5.9c-.2 1.1-1.2 1.8-2.3 1.6-1.1-.2-1.8-1.2-1.6-2.3.2-1.1 1.2-1.8 2.3-1.6 1 .2 1.8 1.2 1.6 2.3zm-4.6 4.9c-1.1.2-2.1-.6-2.2-1.6-.2-1.1.6-2.1 1.7-2.2 1.1-.2 2.1.6 2.2 1.7.1.9-.6 1.9-1.7 2.1zm-6.1-2.8c-.5-1-.1-2.1.9-2.6s2.1-.1 2.6.9.1 2.1-.9 2.6c-.9.4-2.1 0-2.6-.9zm.9-6.7c.8-.8 2-.7 2.8 0 .8.8.7 2 0 2.8-.8.8-2 .7-2.8 0-.8-.8-.8-2 0-2.8z" fill="none" stroke="#5b91cb" stroke-width=".216" stroke-miterlimit="22.926"/><path d="M20.6 45.6c.9.7 1.1 2.1.4 3-.7.9-2.1 1.1-3 .4-.9-.7-1.1-2.1-.4-3 .7-.9 2.1-1.1 3-.4zm2.4 6.9c-.4 1.1-1.6 1.7-2.7 1.3-1.1-.4-1.7-1.6-1.3-2.7.4-1.1 1.6-1.7 2.7-1.3s1.7 1.6 1.3 2.7zm-5.8 4.4c-1.2 0-2.1-1-2.1-2.2 0-1.2 1-2.1 2.2-2.1 1.2 0 2.1 1 2.1 2.2 0 1.2-1 2.1-2.2 2.1zm-5.9-4.1c-.3-1.1.3-2.3 1.4-2.7 1.1-.3 2.3.3 2.7 1.4.3 1.1-.3 2.3-1.4 2.7-1.2.3-2.4-.3-2.7-1.4zm2.1-7c1-.7 2.3-.4 3 .5.7 1 .4 2.3-.5 3-1 .7-2.3.4-3-.5-.7-1-.5-2.3.5-3z" fill="none" stroke="#729fd2" stroke-width=".221" stroke-miterlimit="22.926"/><path d="M21.7 45.8c.9.9.9 2.4 0 3.4-.9.9-2.4.9-3.4 0-.9-.9-.9-2.4 0-3.4 1-1 2.5-1 3.4 0zm1.6 7.8c-.6 1.2-2 1.6-3.2 1-1.2-.6-1.6-2-1-3.2.6-1.2 2-1.6 3.2-1 1.1.6 1.6 2 1 3.2zm-7 3.9c-1.3-.2-2.2-1.4-2-2.7.2-1.3 1.4-2.2 2.7-2 1.3.2 2.2 1.4 2 2.7-.2 1.3-1.4 2.2-2.7 2zM10.4 52c-.2-1.3.7-2.5 2-2.7 1.3-.2 2.5.7 2.7 2 .2 1.3-.7 2.5-2 2.7-1.3.2-2.5-.7-2.7-2zm3.4-7.2c1.2-.6 2.6-.1 3.2 1.1.6 1.2.1 2.6-1 3.2-1.2.6-2.6.1-3.2-1.1-.6-1.2-.2-2.6 1-3.2z" fill="none" stroke="#89abd8" stroke-width=".262" stroke-miterlimit="22.926"/><path d="M22.8 45.9c.9 1.1.7 2.8-.4 3.7-1.1.9-2.8.7-3.7-.4-.9-1.1-.7-2.8.4-3.7 1.2-1 2.8-.8 3.7.4zm.7 8.8c-.8 1.2-2.5 1.5-3.7.7-1.2-.8-1.5-2.5-.7-3.7.8-1.2 2.5-1.5 3.7-.7 1.2.9 1.5 2.5.7 3.7zm-8.2 3.4c-1.4-.4-2.2-1.9-1.8-3.3.4-1.4 1.9-2.2 3.3-1.8 1.4.4 2.2 1.9 1.8 3.3-.5 1.4-1.9 2.2-3.3 1.8zm-5.7-6.8c-.1-1.5 1.1-2.7 2.5-2.7s2.7 1.1 2.7 2.5c.1 1.5-1.1 2.7-2.5 2.7-1.5.1-2.7-1-2.7-2.5zm4.6-7.5c1.4-.5 2.9.2 3.4 1.6.5 1.4-.2 2.9-1.6 3.4-1.4.5-2.9-.2-3.4-1.6-.4-1.4.3-2.9 1.6-3.4z" fill="none" stroke="#9db7df" stroke-width=".302" stroke-miterlimit="22.926"/><path d="M24 46c.9 1.4.5 3.2-.9 4.1-1.4.9-3.2.5-4.1-.9-.9-1.4-.5-3.2.9-4.1 1.4-.9 3.2-.5 4.1.9zm-.2 9.9c-1 1.3-2.9 1.5-4.1.4-1.3-1-1.5-2.9-.4-4.1 1-1.3 2.9-1.5 4.1-.4 1.2 1 1.4 2.8.4 4.1zm-9.5 2.8c-1.5-.6-2.3-2.3-1.7-3.8.6-1.5 2.3-2.3 3.8-1.7 1.5.6 2.3 2.3 1.7 3.8-.6 1.5-2.3 2.3-3.8 1.7zm-5.6-8.1c.1-1.6 1.5-2.9 3.1-2.8 1.6.1 2.9 1.5 2.8 3.1-.1 1.6-1.5 2.9-3.1 2.8-1.7-.1-2.9-1.5-2.8-3.1zm6-7.9c1.6-.4 3.2.5 3.6 2.1.4 1.6-.5 3.2-2.1 3.6-1.6.4-3.2-.5-3.6-2.1s.5-3.2 2.1-3.6z" fill="none" stroke="#b1c4e6" stroke-width=".34" stroke-miterlimit="22.926"/><path d="M25.1 46.1c.9 1.6.3 3.6-1.3 4.4-1.6.9-3.6.3-4.4-1.3-.9-1.6-.3-3.6 1.3-4.4 1.6-.8 3.6-.3 4.4 1.3zM24 57c-1.2 1.3-3.3 1.4-4.6.1-1.3-1.2-1.4-3.3-.1-4.6 1.2-1.3 3.3-1.4 4.6-.1 1.3 1.3 1.3 3.3.1 4.6zm-10.7 2.3c-1.6-.8-2.3-2.7-1.6-4.3.8-1.6 2.7-2.3 4.3-1.6 1.6.8 2.3 2.7 1.6 4.3-.8 1.7-2.7 2.4-4.3 1.6zm-5.5-9.5c.2-1.8 1.9-3 3.6-2.8 1.8.2 3 1.9 2.8 3.6-.2 1.8-1.9 3-3.6 2.8-1.8-.2-3.1-1.8-2.8-3.6zm7.3-8.2c1.8-.3 3.5.8 3.8 2.6.3 1.8-.8 3.5-2.6 3.8-1.8.3-3.5-.8-3.8-2.6-.3-1.7.8-3.4 2.6-3.8z" fill="none" stroke="#c1cfea" stroke-width=".378" stroke-miterlimit="22.926"/><path d="M26.3 46.2c.8 1.8.1 3.9-1.7 4.8-1.8.8-3.9.1-4.8-1.7-.8-1.8-.1-3.9 1.7-4.8 1.8-.8 4-.1 4.8 1.7zm-2 12c-1.4 1.4-3.7 1.3-5.1-.1-1.4-1.4-1.3-3.7.1-5.1 1.4-1.4 3.7-1.3 5.1.1 1.4 1.5 1.3 3.8-.1 5.1zM12.2 60c-1.7-1-2.4-3.1-1.4-4.9.9-1.7 3.1-2.4 4.9-1.4 1.7.9 2.4 3.1 1.4 4.9-1 1.7-3.2 2.3-4.9 1.4zM6.8 49c.4-1.9 2.2-3.2 4.2-2.9 1.9.4 3.2 2.2 2.9 4.2-.4 1.9-2.2 3.2-4.2 2.9-2-.4-3.2-2.2-2.9-4.2zm8.8-8.5c2-.3 3.8 1.1 4 3.1.3 2-1.1 3.8-3.1 4-2 .3-3.8-1.1-4-3.1-.3-1.9 1.1-3.7 3.1-4z" fill="none" stroke="#d1dbef" stroke-width=".415" stroke-miterlimit="22.926"/><path d="M27.5 46.4c.8 2-.1 4.3-2.1 5.1-2 .8-4.3-.1-5.1-2.1-.8-2 .1-4.3 2.1-5.1 2-.9 4.3.1 5.1 2.1zm-3 13c-1.6 1.4-4.1 1.2-5.5-.4-1.4-1.6-1.2-4.1.4-5.5 1.7-1.4 4.1-1.2 5.5.4 1.5 1.7 1.3 4.1-.4 5.5zm-13.4 1.2c-1.8-1.1-2.4-3.6-1.3-5.4 1.1-1.8 3.6-2.4 5.4-1.3 1.8 1.1 2.4 3.6 1.3 5.4-1.1 1.9-3.5 2.4-5.4 1.3zM5.9 48.2c.5-2.1 2.6-3.4 4.7-2.9s3.4 2.6 2.9 4.7-2.6 3.4-4.7 2.9c-2.1-.4-3.4-2.6-2.9-4.7zM16 39.4c2.2-.2 4.1 1.4 4.2 3.6.2 2.2-1.4 4.1-3.6 4.2-2.2.2-4.1-1.4-4.2-3.6-.1-2.1 1.5-4 3.6-4.2z" fill="none" stroke="#e1e8f6" stroke-width=".451" stroke-miterlimit="22.926"/><path d="M28.8 46.5c.8 2.2-.3 4.7-2.6 5.5-2.2.8-4.7-.3-5.5-2.6-.8-2.2.3-4.7 2.6-5.5 2.2-.8 4.7.4 5.5 2.6zm-4 14.2c-1.9 1.5-4.5 1.1-6-.7-1.5-1.9-1.1-4.5.7-6 1.9-1.5 4.5-1.1 6 .7s1.1 4.5-.7 6zm-14.8.6c-2-1.3-2.5-4-1.2-5.9 1.3-2 4-2.5 5.9-1.2 2 1.3 2.5 4 1.2 5.9-1.2 2-3.9 2.5-5.9 1.2zM4.9 47.4c.6-2.3 3-3.6 5.3-2.9 2.3.6 3.6 3 2.9 5.3-.6 2.3-3 3.6-5.3 2.9-2.2-.6-3.5-3-2.9-5.3zm11.6-9.1c2.4-.1 4.3 1.8 4.4 4.1.1 2.4-1.8 4.3-4.1 4.4-2.4.1-4.3-1.8-4.4-4.1-.1-2.3 1.7-4.3 4.1-4.4z" fill="none" stroke="#f0f3fb" stroke-width=".486" stroke-miterlimit="22.926"/><path d="M30 46.6c.8 2.4-.5 5-3 5.8-2.4.8-5-.5-5.8-3-.8-2.4.5-5 3-5.8 2.4-.8 5 .6 5.8 3zm-5 15.3c-2.1 1.5-5 1-6.5-1-1.5-2.1-1-5 1-6.5 2.1-1.5 5-1 6.5 1 1.6 2.1 1.1 5-1 6.5zm-16.1 0c-2.1-1.5-2.5-4.4-1-6.5 1.5-2.1 4.4-2.5 6.5-1 2.1 1.5 2.5 4.4 1 6.5-1.5 2.1-4.4 2.5-6.5 1zM4 46.6c.8-2.4 3.4-3.8 5.8-3 2.4.8 3.8 3.4 3 5.8-.8 2.4-3.4 3.8-5.8 3-2.5-.7-3.8-3.4-3-5.8zm13-9.5c2.6 0 4.6 2.1 4.6 4.6 0 2.6-2.1 4.6-4.6 4.6-2.6 0-4.6-2.1-4.6-4.6 0-2.5 2-4.6 4.6-4.6z" fill="none" stroke="#fff" stroke-width=".52" stroke-miterlimit="22.926"/><path d="M17 67.4c9.1 0 16.6-7.4 16.6-16.6 0-9.1-7.4-16.6-16.6-16.6C7.9 34.2.4 41.6.4 50.8.5 60 7.9 67.4 17 67.4z" fill="none" stroke="#2e4659" stroke-width=".822" stroke-miterlimit="22.926"/><circle class="st17" cx="17" cy="41.8" r="4.8"/><path class="st17" d="M30.1 46.5c.8 2.5-.5 5.1-3 5.9-2.5.8-5.1-.5-5.9-3-.8-2.5.5-5.1 3-5.9 2.5-.8 5.1.6 5.9 3zm-5 15.5c-2.1 1.5-5 1.1-6.5-1s-1.1-5 1-6.5 5-1.1 6.5 1c1.6 2.1 1.1 5-1 6.5zM8.9 62c-2.1-1.5-2.5-4.4-1-6.5 1.5-2.1 4.4-2.6 6.5-1s2.5 4.4 1 6.5c-1.5 2.1-4.4 2.5-6.5 1z"/><path class="st2" d="M153.6 50.7h-5.2l2.5-10 2.7 10zm-16.9-6.8h.9c.7 0 1.6-.1 2.1-.5s.6-1.2.6-1.8c0-.6-.1-1.3-.6-1.7-.5-.4-1.4-.5-2.1-.5h-1l.1 4.5zm-16.1-5c-1 0-1.7.5-2.1 1.4-.6 1.3-.7 3.3-.7 4.6 0 1.4.1 3.4.7 4.7.4.9 1.1 1.4 2.1 1.4s1.7-.5 2.1-1.4c.6-1.3.7-3.3.7-4.7 0-1.4-.1-3.4-.7-4.7-.5-.8-1.1-1.3-2.1-1.3zm-54.2 0c-1 0-1.7.5-2.1 1.4-.6 1.3-.7 3.3-.7 4.6 0 1.4.1 3.4.7 4.7.4.9 1.1 1.4 2.1 1.4s1.7-.5 2.1-1.4c.6-1.3.7-3.3.7-4.7 0-1.4-.1-3.4-.7-4.7-.4-.8-1.1-1.3-2.1-1.3zm79.3 16.2V54c0-.5.6-.9 1-.9h10.6c.6 0 1.1.4 1.1 1v1h2v-4.4h-.8c-.3 0-.7 0-.9-.3-.3-.2-.5-1.1-.6-1.5l-3.4-12.2h-5.3L145.6 49c-.1.4-.3.9-.6 1.3-.2.3-.6.4-.9.4h-.6V55c.9.1 2.2.1 2.2.1zm-9-9.2v3.5c0 .3 0 1 .2 1.2.2.2.7.2 1 .2h.6l.1 2.3h-8.3l-.1-2.3h.6c.3 0 .8 0 1-.2.2-.2.2-.9.2-1.2v-8.9c0-.3 0-.9-.2-1.2-.2-.2-.7-.2-1-.2h-.5v-2.3h9.3c1.4 0 3.3.2 4.5 1.1 1.1.8 1.4 2.1 1.4 3.4 0 1.3-.3 2.6-1.4 3.4-1.2.9-3 1.1-4.5 1.1h-2.9zm-24.6-.9c0-2.3.6-4.6 2.2-6.3 1.7-1.7 3.9-2.3 6.2-2.3 2.3 0 4.5.6 6.2 2.3 1.7 1.7 2.2 4 2.2 6.3s-.6 4.6-2.2 6.3c-1.7 1.7-3.9 2.3-6.2 2.3-2.3 0-4.5-.6-6.1-2.3-1.7-1.7-2.3-4-2.3-6.3zm-6.1-1.8l3.9 6.6c.2.3.4.6.7.8.3.2.5.2.8.2h.6v2.3h-8.6v-2.3h.6c.2 0 .6 0 .8-.1.1-.1.2-.2.2-.3v-.3c0-.1-.1-.2-.1-.3l-2.1-3.6-2.2 1.9v1.4c0 .3 0 .9.2 1.2.2.2.7.2.9.2h.4v2.3h-7.9v-2.3h.5c.3 0 .8 0 1-.2.2-.2.2-.9.2-1.2v-8.9c0-.3 0-.9-.2-1.2-.2-.2-.7-.2-1-.2h-.5v-2.3h7.6v2.3c-.3 0-.7 0-.9.2-.2.2-.2.9-.2 1.2v4l4.6-4.3.3-.3c.1-.1.1-.2.1-.3 0-.1-.1-.2-.2-.3-.2-.1-.4-.1-.6-.1h-.9V37h7.4v2.3h-.4c-.3 0-.6.2-.9.3-.4.2-.8.6-1.1.9l-3 2.7zm-23.4.2h4v-2.9c0-.3 0-.9-.2-1.1-.2-.2-.6-.2-.8-.2h-.1v-2.3h7.7v2.3h-.5c-.3 0-.8 0-1 .2-.2.2-.2.9-.2 1.2v8.9c0 .3 0 .9.2 1.2.2.2.7.2 1 .2h.5v2.3h-7.7v-2.3h.1c.3 0 .7 0 .8-.2.2-.2.2-.9.2-1.1V46h-4v3.6c0 .3 0 .9.2 1.1.2.2.6.2.8.2h.1v2.3H76v-2.3h.5c.3 0 .7 0 .9-.2.2-.2.2-.9.2-1.2v-8.9c0-.3 0-1-.2-1.2-.2-.2-.7-.2-1-.2h-.5v-2.3h7.7v2.3h-.1c-.2 0-.7 0-.8.2-.2.2-.2.9-.2 1.1l.1 2.9zM58 45c0-2.3.6-4.6 2.2-6.3 1.7-1.7 3.9-2.3 6.2-2.3 2.3 0 4.5.6 6.2 2.3 1.7 1.7 2.2 4 2.2 6.3s-.6 4.6-2.2 6.3c-1.7 1.7-3.9 2.3-6.2 2.3-2.3 0-4.5-.6-6.1-2.3-1.7-1.7-2.3-4-2.3-6.3zm-11.5-.5l4.6-4.3.3-.3c.1-.1.1-.2.1-.3 0-.1-.1-.2-.2-.3-.2-.1-.4-.1-.6-.1h-.8v-2.3h7.7v2.3h-.8c-.3 0-.6.2-.9.3-.4.2-.8.6-1.1.9l-2.9 2.8 3.9 6.6c.2.3.4.6.7.8.3.2.5.2.8.2h.7v2.3h-8.6v-2.3h.6c.2 0 .6 0 .8-.1.1-.1.2-.2.2-.3v-.3c0-.1-.1-.2-.1-.3l-2.1-3.6-2.2 1.9v1.4c0 .3 0 .9.2 1.2.2.2.7.2.9.2h.3v2.3h-8.2v-2.3h.7c.3 0 .8 0 1-.2.2-.2.2-.9.2-1.2v-8.9c0-.3 0-.9-.2-1.2-.2-.2-.7-.2-1-.2H40v-2.3h7.6v2.3c-.3 0-.7 0-.9.2-.2.2-.2.9-.2 1.2v3.9z"/><path d="M153.6 50.7h-5.2l2.5-10 2.7 10zm-16.9-6.8h.9c.7 0 1.6-.1 2.1-.5s.6-1.2.6-1.8c0-.6-.1-1.3-.6-1.7-.5-.4-1.4-.5-2.1-.5h-1l.1 4.5h0zm-16.1-5c-1 0-1.7.5-2.1 1.4-.6 1.3-.7 3.3-.7 4.6 0 1.4.1 3.4.7 4.7.4.9 1.1 1.4 2.1 1.4s1.7-.5 2.1-1.4c.6-1.3.7-3.3.7-4.7 0-1.4-.1-3.4-.7-4.7-.5-.8-1.1-1.3-2.1-1.3zm-54.2 0c-1 0-1.7.5-2.1 1.4-.6 1.3-.7 3.3-.7 4.6 0 1.4.1 3.4.7 4.7.4.9 1.1 1.4 2.1 1.4s1.7-.5 2.1-1.4c.6-1.3.7-3.3.7-4.7 0-1.4-.1-3.4-.7-4.7-.4-.8-1.1-1.3-2.1-1.3zm79.3 16.2h0V54c0-.5.6-.9 1-.9h10.6c.6 0 1.1.4 1.1 1v1h2v-4.4h-.8c-.3 0-.7 0-.9-.3-.3-.2-.5-1.1-.6-1.5l-3.4-12.2h-5.3L145.6 49c-.1.4-.3.9-.6 1.3-.2.3-.6.4-.9.4h-.6V55h0c.9.1 2.2.1 2.2.1zm-9-9.2v3.5c0 .3 0 1 .2 1.2.2.2.7.2 1 .2h.6l.1 2.3h-8.3l-.1-2.3h.6c.3 0 .8 0 1-.2.2-.2.2-.9.2-1.2v-8.9c0-.3 0-.9-.2-1.2-.2-.2-.7-.2-1-.2h-.5v-2.3h9.3c1.4 0 3.3.2 4.5 1.1 1.1.8 1.4 2.1 1.4 3.4 0 1.3-.3 2.6-1.4 3.4-1.2.9-3 1.1-4.5 1.1h-2.9zm-24.6-.9c0-2.3.6-4.6 2.2-6.3 1.7-1.7 3.9-2.3 6.2-2.3 2.3 0 4.5.6 6.2 2.3 1.7 1.7 2.2 4 2.2 6.3s-.6 4.6-2.2 6.3c-1.7 1.7-3.9 2.3-6.2 2.3-2.3 0-4.5-.6-6.1-2.3-1.7-1.7-2.3-4-2.3-6.3zm-6.1-1.8l3.9 6.6c.2.3.4.6.7.8.3.2.5.2.8.2h.6v2.3h-8.6v-2.3h.6c.2 0 .6 0 .8-.1.1-.1.2-.2.2-.3v-.3c0-.1-.1-.2-.1-.3l-2.1-3.6-2.2 1.9v1.4c0 .3 0 .9.2 1.2.2.2.7.2.9.2h.4v2.3h-7.9v-2.3h.5c.3 0 .8 0 1-.2.2-.2.2-.9.2-1.2v-8.9c0-.3 0-.9-.2-1.2-.2-.2-.7-.2-1-.2h-.5v-2.3h7.6v2.3h0c-.3 0-.7 0-.9.2-.2.2-.2.9-.2 1.2v4l4.6-4.3.3-.3c.1-.1.1-.2.1-.3 0-.1-.1-.2-.2-.3-.2-.1-.4-.1-.6-.1h-.9V37h7.4v2.3h-.4c-.3 0-.6.2-.9.3-.4.2-.8.6-1.1.9l-3 2.7zm-23.4.2h4v-2.9c0-.3 0-.9-.2-1.1-.2-.2-.6-.2-.8-.2h-.1v-2.3h7.7v2.3h-.5c-.3 0-.8 0-1 .2-.2.2-.2.9-.2 1.2v8.9c0 .3 0 .9.2 1.2.2.2.7.2 1 .2h.5v2.3h-7.7v-2.3h.1c.3 0 .7 0 .8-.2.2-.2.2-.9.2-1.1V46h-4v3.6c0 .3 0 .9.2 1.1.2.2.6.2.8.2h.1v2.3H76v-2.3h.5c.3 0 .7 0 .9-.2.2-.2.2-.9.2-1.2v-8.9c0-.3 0-1-.2-1.2-.2-.2-.7-.2-1-.2h-.5v-2.3h7.7v2.3h-.1c-.2 0-.7 0-.8.2-.2.2-.2.9-.2 1.1l.1 2.9h0zM58 45c0-2.3.6-4.6 2.2-6.3 1.7-1.7 3.9-2.3 6.2-2.3 2.3 0 4.5.6 6.2 2.3 1.7 1.7 2.2 4 2.2 6.3s-.6 4.6-2.2 6.3c-1.7 1.7-3.9 2.3-6.2 2.3-2.3 0-4.5-.6-6.1-2.3-1.7-1.7-2.3-4-2.3-6.3zm-11.5-.5l4.6-4.3.3-.3c.1-.1.1-.2.1-.3 0-.1-.1-.2-.2-.3-.2-.1-.4-.1-.6-.1h-.8v-2.3h7.7v2.3h-.8c-.3 0-.6.2-.9.3-.4.2-.8.6-1.1.9l-2.9 2.8 3.9 6.6c.2.3.4.6.7.8.3.2.5.2.8.2h.7v2.3h-8.6v-2.3h.6c.2 0 .6 0 .8-.1.1-.1.2-.2.2-.3v-.3c0-.1-.1-.2-.1-.3l-2.1-3.6-2.2 1.9v1.4c0 .3 0 .9.2 1.2.2.2.7.2.9.2h.3v2.3h-8.2v-2.3h.7c.3 0 .8 0 1-.2.2-.2.2-.9.2-1.2v-8.9c0-.3 0-.9-.2-1.2-.2-.2-.7-.2-1-.2H40v-2.3h7.6v2.3h0c-.3 0-.7 0-.9.2-.2.2-.2.9-.2 1.2v3.9h0z" fill="none" stroke="#1e4e9d" stroke-width=".411" stroke-miterlimit="22.926"/></svg>