<svg version="1.0" id="Layer_1" xmlns="http://www.w3.org/2000/svg" x="0" y="0" viewBox="0 0 160 100" xml:space="preserve"><style>.st0{fill:#152128}</style><path class="st0" d="M65.9 31c1 0 1.9.9 1.9 1.9v10.9c0 1.1.7 1.9 1.5 1.9s2-.7 2.6-1.6l7.8-11.6c.6-.9 1.9-1.6 3-1.6h8.7c1 0 1.4.7.8 1.6L80.8 48.8c-.6.9-.6 2.3 0 3.1l12.4 16.9c.6.9.3 1.6-.8 1.6h-9c-1 0-2.4-.7-3-1.6L72 56.6c-.6-.9-1.8-1.6-2.7-1.6-.8 0-1.5.9-1.5 1.9v11.5c0 1.1-.9 1.9-1.9 1.9h-6.5c-1 0-1.9-.9-1.9-1.9V33c0-1.1.9-1.9 1.9-1.9l6.5-.1zM97.9 70.4c-1 0-1.9-.9-1.9-1.9V33c0-1.1.9-1.9 1.9-1.9h16.5c1 0 2.8 0 3.8.1 0 0 3.2.2 4.9.7 1.7.5 3.1 1.5 4 3 .9 1.5 1.4 3.6 1.4 6.3 0 1.8-.2 3.4-.5 4.6-.3 1.2-.9 2.2-1.8 3-.9.8-2.2 1.3-3.8 1.6 0 .2.8.6 1.9.7 0 0 1.3.2 2.3 1 1 .7 1.7 1.7 2 2.9.3 1.2.5 2.7.5 4.6 0 3.1-.5 5.5-1.4 7-.9 1.6-2.3 2.6-4 3.2-1.8.5-4.2.8-7.2.8l-18.6-.2zm10.3-30.7c-1 0-1.9.9-1.9 1.9v3.2c0 1.1.9 1.9 1.9 1.9h3.6c1 0 2.8 0 3.8-.1 0 0 .3 0 .9-.2.6-.2 1-.6 1.3-1.1.2-.5.4-1.3.4-2.4 0-1.2-.2-2.1-.6-2.6-.4-.5-1.3-.7-2.6-.7h-6.8zm0 14.4c-1 0-1.9.9-1.9 1.9v3.8c0 1.1.9 1.9 1.9 1.9h3.9c1 0 2.8 0 3.8-.1 0 0 .2 0 .8-.2.7-.2 1.2-.6 1.5-1.2.3-.6.5-1.4.5-2.5 0-1.6-.3-2.6-.9-3-.6-.5-1.8-.7-3.6-.7l-6 .1zM152.9 40.2c-1 0-1.9.9-1.9 1.9v26.3c0 1.1-.9 1.9-1.9 1.9h-6.5c-1 0-1.9-.9-1.9-1.9V42.2c0-1.1-.9-1.9-1.9-1.9h-6c-1 0-1.9-.9-1.9-1.9V33c0-1.1.9-1.9 1.9-1.9h26.1c1 0 1.9.9 1.9 1.9v5.3c0 1.1-.9 1.9-1.9 1.9h-6z"/><path d="M42.4 38.2H30.2c-1 0-2 .8-2.3 1.8l-3.3 12.5c-.3 1 .3 2 1.3 2.3L36 57.6c1 .3 1.5 1.3 1.2 2.2l-4.9 16.6c-.3 1 .1 1.3.9.6l9.5-7.4c.8-.6 1.4-1.9 1.4-2.9V40.1c.1-1-.7-1.9-1.7-1.9" fill="#93a2ad"/><path d="M27.3 62.5l-9.9-2.8c-1-.3-1.5-1.2-1.3-2.2.2-.9.7-2.5.9-3.5l3.8-14c.3-1-.3-1.8-1.3-1.8h-10c-1 0-1.8.8-1.8 1.8v26.6c0 1 .6 2.3 1.4 2.9l13.2 10.3c.8.6 1.7.3 1.9-.6l4.3-14.5c.3-.9-.2-1.9-1.2-2.2" fill="#fdb913"/><path class="st0" d="M49.4 31.2H2.6c-1 0-1.8.8-1.8 1.8v37.2c0 1 .6 2.3 1.4 2.9l22.3 17.4c.8.6 2.1.6 2.9 0l22.3-17.4c.8-.6 1.4-1.9 1.4-2.9V33c.1-1-.7-1.8-1.7-1.8M28.5 64.8l-4.3 14.5c-.3 1-1.2 1.3-1.9.6L9.1 69.6c-.8-.6-1.4-1.9-1.4-2.9V40.1c0-1 .8-1.8 1.8-1.8h9.9c1 0 1.6.8 1.3 1.8L17 54.2c-.3 1-.7 2.5-.9 3.5-.2.9.3 1.9 1.3 2.2l9.9 2.8c1 .1 1.5 1.1 1.2 2.1m15.7 1.9c0 1-.6 2.3-1.4 3l-9.5 7.4c-.8.6-1.2.3-.9-.6l4.9-16.6c.3-1-.3-2-1.2-2.2L26 54.9c-1-.3-1.5-1.3-1.3-2.3L28 40c.3-1 1.3-1.8 2.3-1.8h12.2c1 0 1.8.8 1.8 1.8v26.7h-.1zm5.1-51.3H45c-1 0-1.8.9-1.8 2.1v1.1c0 1.1-.8 2.1-1.8 2.1h-8.1c-1 0-1.8-.9-1.8-2.1v-1.1c0-1.1-.8-2.1-1.8-2.1h-7.1c-1 0-1.8.9-1.8 2.1v1.1c0 1.1-.8 2.1-1.8 2.1h-8.3c-1 0-1.8-.9-1.8-2.1v-1.1c0-1.1-.8-2.1-1.8-2.1H2.6c-1 0-1.8.9-1.8 2.1V26c0 1.1.8 2.1 1.8 2.1h46.8c1 0 1.8-.9 1.8-2.1v-8.5c0-1.2-.8-2.1-1.9-2.1"/></svg>