<svg xmlns="http://www.w3.org/2000/svg" width="160" height="100"><path fill="#19171A" d="M7.968 33v9.683H9.69V33H7.968zm2.688 2.297v7.36h7.757v19.257h7.06V35.297H10.656zM0 35.33v26.618h14.79v-7.359H7.034V35.33H0zm15.757 19.225v9.715h1.715v-9.715h-1.715z"/><path fill="#E0001A" d="M34.682 34.543v28.735h6.24V34.543h-6.24zm110.009 0v9.536c-1.343-.98-3.526-1.14-3.526-1.14-6.719-.173-9.587 5.51-9.568 9.958-.051 5.831 3.795 10.592 9.542 10.138 1.338-.141 2.439-.666 3.552-1.543v1.786h6.521V34.543h-6.521zm-92.537 6.943c-5.114 0-10.138 4.205-10.138 10.828.006 7.457 4.672 11.777 10.835 11.592 4.704-.154 7.961-3.131 9.146-7.303h-6.432c-.327.665-1.229 1.445-3.11 1.445-2.407 0-3.68-1.785-3.68-3.559h13.581c.774-7.735-4.212-13.003-10.202-13.003zm45.638.416c-3.283 0-5.978 2.515-5.978 2.515v-2.144H85.12v21.004h6.694v-10.72c.044-5.235 5.978-5.613 5.978-5.613v-5.042zm1.536 0v4.896s.576-.14 2.995-.063c3.072.115 2.713 2.623 2.713 2.623s-1.498-.915-3.654-.934c-2.355-.058-7.084 1.382-7.084 7.642-.013 5.51 4.41 7.117 7.027 7.117 2.521 0 3.981-1.235 3.981-1.235v1.331h6.093V48.962c0-2.777-.512-3.532-1.779-4.94-1.773-1.952-5.978-2.118-5.978-2.118l-4.314-.002zm-22.093.339v2.202c-4.313-4.365-14.387-1.209-14.029 8.634.307 9.216 10.055 11.987 14.029 8.415v2.439c-.02 2.797-3.437 2.7-3.437 2.7-2.983-.14-3.623-2.028-3.623-2.028h-7.52c1.575 10.497 19.995 10.899 20.859.845V42.241h-6.279zm35.616 0v21.037h6.433V50.869c0-2.995 4.768-3.2 4.768 0v12.409h6.336V47.554c0-3.175-4.135-7.84-11.104-3.322v-1.991h-6.433zm-60.697 4.762a3.477 3.477 0 013.469 3.079h-6.932a3.48 3.48 0 013.463-3.079zm21.19 1.728c2.24 0 4.077 1.817 4.077 4.063 0 2.254-1.837 4.052-4.077 4.052a4.03 4.03 0 01-4.045-4.052 4.045 4.045 0 014.045-4.063zm67.725.173c2.233 0 4.044 1.83 4.044 4.076a4.045 4.045 0 01-8.089 0c.006-2.246 1.805-4.076 4.045-4.076zm-38.394 3.923c1.491 0 2.688 1.235 2.688 2.727a2.67 2.67 0 01-2.688 2.682c-1.492 0-2.713-1.185-2.713-2.682-.001-1.491 1.222-2.727 2.713-2.727z"/></svg>