<svg xmlns="http://www.w3.org/2000/svg" viewBox="0 0 160 100"><path d="M19.979 58.378c-1.299-.335-1.376-.411-1.963-2.421L15.061 43h-3.848L4.128 55.133c-.942 1.622-1.759 2.885-3.746 3.322L0 60.543h7.365l.382-2.088-.484-.051c-1.096-.129-1.479-.334-1.479-.746 0-.283.153-.619.408-1.108l2.268-4.249 3.134-5.616 1.045 5.616.382 2.008.408 1.983c.102.49.179.851.179 1.134 0 .566-.332.773-1.453.928l-.841.104-.382 2.086h8.97l.382-2.086c-.126-.028-.305-.08-.305-.08z"/><path d="M30.707 60.541l.356-2.111.535-.052c1.453-.153 1.81-.515 2.115-2.164l1.071-6.13-7.9 5.873-.026.257c-.306 1.649-.051 2.01 1.351 2.164l.484.052-.356 2.111h-8.945l.357-2.111.535-.052c1.453-.153 1.81-.515 2.115-2.164l1.529-8.886c.305-1.648.051-2.009-1.351-2.164l-.484-.051.355-2.113h8.945l-.357 2.113-.536.051c-1.453.154-1.809.515-2.115 2.164l-1.071 6.13 7.9-5.873.026-.257c.306-1.648.051-2.009-1.351-2.164l-.485-.051.359-2.113h8.945l-.356 2.113-.536.051c-1.452.154-1.809.515-2.115 2.164l-1.529 8.886c-.306 1.649-.051 2.01 1.351 2.164l.484.052-.357 2.111h-8.943zM58.787 63.838c.103-2.523.051-3.297-3.033-3.297H46.07c-3.083 0-2.625.464-4.587 3.479l-1.58-.181 1.809-5.485c2.243-.026 3.16.051 4.027-1.52 1.86-3.35 1.886-4.25 3.058-8.811.383-2.086.128-2.679-1.172-2.833l-.637-.077.383-2.113h16.157l-.383 2.112-.637.077c-1.351.155-1.784.721-2.141 2.833l-1.325 7.65c-.433 2.447.077 2.73 1.81 2.68l-.434 5.485-1.631.001zM56.111 48.1c.382-2.214.306-2.627-.536-2.627h-2.268c-.586 0-.765.516-1.045 1.546-1.224 4.971-1.198 5.306-3.262 9.53-.79 1.443-.433 1.624.23 1.624h4.307c.764 0 .815-.026 1.274-2.603l1.3-7.47zM78.026 60.541H61.869l.383-2.086.561-.051c1.351-.18 1.733-.593 2.039-2.19l1.605-8.886c.052-.283.103-.773.103-1.005 0-.721-.433-1.107-1.35-1.185l-.562-.051L65.03 43h14.882l1.402 5.692-1.785.567c-1.248-2.756-3.186-4.173-5.785-4.173-.994 0-1.861.206-2.191.54-.331.284-.484.67-.663 1.751l-.483 2.603c.407.051.585.051 1.019.051 1.86 0 2.268-.386 2.855-2.653h1.808l-1.401 7.779h-1.81c.051-.413.051-.593.051-.772 0-1.674-.611-2.138-2.931-2.112l-.765 4.25c-.127.722-.127.722-.127.954 0 .618.611.9 1.987.9 3.033 0 4.969-1.08 8.129-4.533l1.683.902-2.879 5.795zM95.047 52.607c-1.171.438-2.599.645-4.765.645h-2.115l-.536 2.962c-.025.206-.077.798-.077 1.03 0 .695.485 1.107 1.352 1.16l.865.051-.382 2.086h-9.175l.382-2.086.561-.051c1.351-.18 1.734-.593 2.04-2.19l1.605-8.886c.051-.309.101-.747.101-1.005 0-.721-.433-1.107-1.351-1.185l-.56-.051.357-2.087h8.716c2.778 0 4.001.206 5.071.85 1.045.644 1.683 1.906 1.683 3.374 0 2.448-1.452 4.508-3.772 5.383zm-1.784-7.108c-.383-.283-1.045-.438-1.861-.438-.79 0-1.325.155-1.631.463-.229.232-.28.334-.458 1.442l-.739 4.07h.637c1.835 0 2.395-.129 3.211-.644.993-.669 1.656-1.854 1.656-2.988.001-.772-.33-1.544-.815-1.905zM120.3 60.541h-15.112l.383-2.086.561-.051c1.325-.129 1.758-.619 2.038-2.19l1.606-8.886c.051-.361.077-.669.102-.954 0-.695-.28-1.133-1.351-1.236l-.561-.051.356-2.087h9.201l-.382 2.086-.893.051c-1.325.18-1.759.593-2.04 2.189l-1.605 8.913a5.635 5.635 0 00-.102 1.031c0 .721.332.979 1.504.979 3.848 0 6.575-3.246 7.543-4.688l1.757.952-3.005 6.028z"/><path d="M137.652 60.541h-16.157l.383-2.086.56-.051c1.352-.129 1.759-.645 2.04-2.19l1.605-8.886c.051-.361.077-.669.102-.927 0-.773-.331-1.159-1.35-1.262l-.561-.051.383-2.088h14.881l1.403 5.692-1.784.567c-1.25-2.756-3.186-4.173-5.786-4.173-2.6 0-2.625 1.056-2.854 2.292l-.483 2.602c.408.052.586.052 1.018.052 1.861 0 2.269-.386 2.854-2.653h1.809l-1.4 7.779h-1.811c.026-.309.051-.566.051-.824 0-1.957-1.147-2.035-2.93-2.061l-.765 4.25c-.051.334-.101.592-.101.824 0 .773.433 1.03 1.962 1.03 3.033 0 4.97-1.081 8.129-4.534l1.683.902-2.881 5.796zM154.827 59.356c-1.656.85-3.797 1.185-7.441 1.185h-7.544l.383-2.086.56-.051c1.352-.207 1.733-.593 2.039-2.19l1.606-8.887c.051-.36.103-.669.103-.953 0-.695-.281-1.133-1.351-1.236l-.562-.051.357-2.087h8.156c5.402 0 8.868 1.236 8.868 7.059-.001 4.043-2.014 7.675-5.174 9.297zm-3.389-14.243c-2.243 0-2.37.979-2.6 2.318l-1.605 9.067c-.077.336-.128.619-.128.824 0 .747.51.979 1.963.979 3.568 0 6.524-3.864 6.524-8.552-.001-3.014-1.453-4.636-4.154-4.636z"/></svg>