<svg xmlns="http://www.w3.org/2000/svg" width="160" height="100"><path fill="#EC1C24" d="M0 38.005v1.379h.526c1.054 0 2.027.243 2.027 3.729v19.86c0 3.285-.81 3.729-1.987 3.729H0v1.379h22.981l1.824-9.768H22.86c-1.013 3.525-3.972 7.255-8.025 7.255-1.256 0-2.513-.243-2.513-3.04V43.112c0-3.486.972-3.729 2.025-3.729h1.096v-1.379H0zm28.844 0v1.379h.729c1.783 0 1.824 1.905 1.824 3.729v13.619c0 3.526.041 12.166 13.942 12.166 12.322 0 12.282-8.761 12.282-12.166V44.247c0-2.351-.122-4.864 2.27-4.864h.284v-1.378h-8.39v1.379h.285c2.351 0 2.391 2.189 2.391 4.864v12.484c0 4.214-.893 8.835-6.647 8.835s-6.647-4.62-6.647-8.835v-13.62c0-1.824.082-3.729 1.784-3.729h.77v-1.379H28.844z"/><path fill="#EC1C24" d="M73.924 51.904l-6.706 12.352c-1.285 2.367-2.032 2.242-3.289 2.444v1.379h12.119V66.7c-1.459.081-4.857.312-4.857-1.106 0-1.217-.229-.743 1.188-3.357l3.539-6.533 8.056 14.281c.232.412.405.935.405 1.299 0 .769-.689 1.053-1.093 1.053h-.284v2.611h73.496l-57.77-1.996c-1.662-.08-3.307-1.193-4.134-2.707l-10.96-20.044 4.688-8.11c1.766-3.056 4.831-2.467 6.737-2.709v-1.379H83.587v1.379h.608c1.095 0 .925-.695.925.643 0 1.174-.544 2.097-1.095 2.959l-2.744 4.3-6.207-10.229c-.752-1.238-1.392-2.123-1.313-2.966.062-.684.989-1.009 1.438-1.009h.283v-3.227H1.579l58.253 2.789c.689 0 2.091.343 3.647 2.796l10.445 16.466zm26.43-13.899h21.509l2.614 9.415h-1.5c-.689-4.701-5.965-6.699-8.357-6.699h-1.945v7.063c3.162.04 4.052-2.027 4.215-5.107h1.582l1.839 13.175h-1.582c-.161-3-2.933-5.434-6.055-5.353V62.77c0 2.594 1.054 2.797 2.311 2.797 3.729 0 8.887-5.542 10.184-9.514l1.621.566-3.171 11.461h-23.265v-1.379h.81c1.542 0 1.744-1.904 1.744-3.729v-19.86c0-1.824-.203-3.729-1.744-3.729h-.81v-1.379zm30.383 0h15.444v1.379h-1.095c-1.055 0-2.027.243-2.027 3.729v19.413c0 2.798 1.256 3.041 2.514 3.041 4.053 0 7.011-3.729 8.024-7.255h1.945l-1.824 9.769h-22.982v-1.379h.568c1.177 0 1.986-.444 1.986-3.729V43.112c0-3.486-.972-3.729-2.025-3.729h-.528v-1.379zM157.149 28c.48 0 .946.123 1.403.368.456.247.811.598 1.066 1.055a2.9 2.9 0 01.382 1.432c0 .492-.126.963-.377 1.417-.25.455-.601.807-1.053 1.057a2.867 2.867 0 01-2.839 0 2.67 2.67 0 01-1.058-1.057 2.879 2.879 0 01-.377-1.417c0-.497.127-.975.383-1.432.255-.458.611-.81 1.068-1.055a2.937 2.937 0 011.402-.368m0 .474c-.401 0-.791.103-1.169.308-.379.206-.676.5-.891.88a2.393 2.393 0 00-.321 1.193c0 .41.107.804.316 1.181.21.377.505.671.883.881a2.4 2.4 0 001.182.317c.41 0 .807-.106 1.185-.317.376-.21.671-.504.879-.881a2.4 2.4 0 00.313-1.181 2.4 2.4 0 00-.318-1.193 2.207 2.207 0 00-.891-.88 2.438 2.438 0 00-1.168-.308m-1.251 3.957h.494v-1.303h.29c.175 0 .309.035.398.105.132.095.303.334.519.713l.272.484h.605l-.375-.601c-.18-.285-.332-.488-.455-.609a.81.81 0 00-.26-.163.956.956 0 00.638-.28.822.822 0 00.096-1.036.759.759 0 00-.386-.297c-.162-.058-.423-.084-.783-.084h-1.055v3.071h.002zm.494-1.727h.602c.287 0 .483-.043.587-.129a.417.417 0 00.157-.34.415.415 0 00-.076-.244.455.455 0 00-.208-.161c-.09-.036-.256-.053-.499-.053h-.564l.001.927z"/></svg>