<svg xmlns="http://www.w3.org/2000/svg" width="160" height="100"><path fill="#2D4C27" d="M6.235 20c3.289 0 5.967 2.678 5.967 5.945 0 3.291-2.678 5.971-5.967 5.971-3.271 0-5.948-2.681-5.948-5.971 0-3.268 2.677-5.944 5.948-5.945M0 33.57h1.205v33.401H0zM2.821 33.57h1.207v33.401H2.821zM5.643 33.57h1.206v33.401H5.643zM8.463 33.57h1.204v33.401H8.463zM11.26 33.57h1.209v31.332l-1.19 2.069h-.019zM12.469 64.902V45.387l.812-1.39v19.517z"/><path fill="#2D4C27" d="M9.665 50.271l.799-1.412v18.11h-.799zM6.846 55.133l.799-1.393v13.231h-.799zM4.027 60.02l.797-1.391v8.342h-.797zM1.205 64.902l.819-1.406v3.475h-.819zM19.294 33.568h11.277L13.182 63.674V44.159zM.051 76.361h1.337v5.279H.051zM4.548 81.641v-5.279h1.558l1.222 1.934c.349.557.7 1.213.961 1.809h.026a17.663 17.663 0 01-.112-2.201v-1.541h1.222v5.279H8.028l-1.259-2.039a18.71 18.71 0 01-1.022-1.863l-.028.008c.037.697.053 1.441.053 2.303v1.592H4.548v-.002zM16.913 81.49c-.246.109-.796.229-1.513.229-2.037 0-3.087-1.137-3.087-2.641 0-1.803 1.433-2.805 3.217-2.805.692 0 1.213.125 1.449.236l-.27.947a3.162 3.162 0 00-1.119-.195c-1.057 0-1.879.574-1.879 1.748 0 1.055.699 1.721 1.889 1.721.401 0 .848-.076 1.109-.17l.204.93zM24.926 78.943c0 1.732-1.17 2.783-2.894 2.783-1.749 0-2.771-1.184-2.771-2.688 0-1.582 1.127-2.766 2.866-2.766 1.811.001 2.799 1.216 2.799 2.671m-4.257.075c0 1.033.542 1.76 1.433 1.76.899 0 1.417-.766 1.417-1.793 0-.949-.508-1.762-1.425-1.762-.9 0-1.425.767-1.425 1.795M28.697 77.361h-1.582v-1.002h4.529v1.002h-1.61v4.28h-1.337zM37.863 79.406h-2.167v1.254h2.421v.981h-3.759v-5.28h3.637v.977h-2.299v1.098h2.167zM44.135 81.641l-.534-.957c-.217-.367-.356-.643-.525-.947h-.017c-.122.305-.271.58-.455.947l-.487.957h-1.522l1.705-2.672-1.644-2.609h1.529l.517.963c.176.322.306.58.446.879h.019c.138-.338.251-.572.401-.879l.498-.963h1.521l-1.661 2.576 1.748 2.703h-1.538v.002zM55.678 79.406h-2.169v1.254h2.422v.981h-3.76v-5.28h3.637v.977h-2.299v1.098h2.169zM58.845 76.361h1.337v4.276h2.343v1.004h-3.68zM68.826 79.406h-2.17v1.254h2.423v.981h-3.761v-5.28h3.638v.977h-2.3v1.098h2.17zM76.322 81.49c-.243.109-.795.229-1.511.229-2.037 0-3.088-1.137-3.088-2.641 0-1.803 1.434-2.805 3.217-2.805.691 0 1.213.125 1.452.236l-.271.945a3.223 3.223 0 00-1.12-.195c-1.059 0-1.879.574-1.879 1.75 0 1.055.699 1.721 1.888 1.721.403 0 .847-.078 1.111-.172l.201.932zM80.461 77.361H78.88v-1.002h4.528v1.002h-1.611v4.28h-1.336zM86.119 76.43a13.046 13.046 0 011.776-.109c.874 0 1.487.119 1.906.416.35.25.542.619.542 1.105 0 .672-.536 1.135-1.043 1.299v.023c.412.15.641.502.79.988.181.594.367 1.283.479 1.488h-1.363c-.095-.15-.235-.58-.412-1.23-.157-.658-.41-.84-.951-.848h-.402v2.078h-1.32v-5.21h-.002zm1.321 2.271h.526c.665 0 1.057-.297 1.057-.76 0-.486-.368-.729-.979-.736-.324 0-.508.023-.604.039v1.457zM98.67 78.943c0 1.732-1.171 2.783-2.895 2.783-1.749 0-2.772-1.184-2.772-2.688 0-1.582 1.13-2.766 2.868-2.766 1.811.001 2.799 1.216 2.799 2.671m-4.257.075c0 1.033.54 1.76 1.433 1.76.898 0 1.417-.766 1.417-1.793 0-.949-.509-1.762-1.426-1.762-.901 0-1.424.767-1.424 1.795M101.55 81.641v-5.279h1.556l1.225 1.934c.35.557.7 1.213.96 1.809h.026a17.649 17.649 0 01-.114-2.201v-1.541h1.225v5.279h-1.399l-1.258-2.039a18.319 18.319 0 01-1.023-1.863l-.025.008c.034.697.053 1.441.053 2.303v1.592h-1.226v-.002zM109.587 76.361h1.339v5.279h-1.339zM118.413 81.49c-.243.109-.794.229-1.512.229-2.037 0-3.087-1.137-3.087-2.641 0-1.803 1.433-2.805 3.218-2.805.691 0 1.216.125 1.452.236l-.271.945a3.21 3.21 0 00-1.12-.195c-1.056 0-1.877.574-1.877 1.75 0 1.055.697 1.721 1.889 1.721.4 0 .848-.078 1.108-.172l.2.932zM121.337 80.41c.358.166.91.328 1.478.328.613 0 .935-.227.935-.572 0-.326-.281-.516-.986-.744-.98-.303-1.619-.791-1.619-1.559 0-.898.839-1.59 2.229-1.59.665 0 1.154.127 1.504.268l-.297.961a3.062 3.062 0 00-1.232-.248c-.576 0-.857.234-.857.506 0 .338.334.488 1.094.746 1.041.344 1.528.83 1.528 1.572 0 .885-.759 1.639-2.376 1.639-.675 0-1.34-.158-1.669-.32l.268-.987zM136.715 81.398a7.282 7.282 0 01-1.967.295c-1.075 0-1.853-.242-2.396-.711-.54-.455-.838-1.143-.829-1.92.008-1.758 1.434-2.756 3.366-2.756.76 0 1.345.131 1.633.258l-.281.955c-.321-.127-.726-.23-1.37-.23-1.11 0-1.951.566-1.951 1.711 0 1.09.762 1.73 1.854 1.73.306 0 .551-.031.654-.08v-1.102h-.907v-.93h2.193v2.78h.001zM139.764 76.43a13.002 13.002 0 011.774-.109c.873 0 1.484.119 1.904.416.35.25.542.619.542 1.105 0 .672-.534 1.135-1.041 1.299v.023c.41.15.64.502.789.988.183.594.367 1.283.481 1.488h-1.363c-.097-.15-.235-.58-.41-1.23-.158-.658-.412-.84-.955-.848h-.402v2.078h-1.317v-5.21h-.002zm1.319 2.271h.525c.664 0 1.056-.297 1.056-.76 0-.486-.366-.729-.979-.736-.322 0-.506.023-.603.039v1.457h.001zM152.311 78.943c0 1.732-1.173 2.783-2.894 2.783-1.748 0-2.771-1.184-2.771-2.688 0-1.582 1.129-2.766 2.867-2.766 1.811.001 2.798 1.216 2.798 2.671m-4.258.075c0 1.033.543 1.76 1.436 1.76.899 0 1.414-.766 1.414-1.793 0-.949-.505-1.762-1.425-1.762-.899 0-1.425.767-1.425 1.795M156.522 76.361V79.4c0 .908.384 1.369 1.065 1.369.698 0 1.084-.438 1.084-1.369v-3.039H160v2.959c0 1.629-.919 2.404-2.457 2.404-1.485 0-2.359-.734-2.359-2.422v-2.943h1.338v.002z"/><g fill="#2D4A2B"><path d="M30.99 44.244v7.948c0 3.857-.127 6.694-.381 10.191h.085c.97-2.408 2.49-5.343 3.671-7.752l5.105-10.387h3.039v22.227h-2.911v-7.684c0-4.75.083-7.521.336-10.488h-.084c-1.013 2.77-2.322 5.211-3.417 7.453L31.118 66.47h-3.08V44.244h2.952zM50.868 44.244v9.53h7.976v-9.53h3.248v22.227h-3.248V56.082h-7.976v10.389h-3.249V44.244h3.249zM70.367 44.244v10.092h.59l6.034-10.092h3.544l-6.961 10.387c3.502.594 4.644 2.937 5.358 5.639.591 2.113 1.012 4.287 1.899 6.2H77.54c-.674-1.452-1.14-3.661-1.645-5.54-.718-2.705-1.647-4.717-5.023-4.717h-.504V66.47h-3.165V44.244h3.164zM98.218 55.191c0 8.346-3.627 11.543-8.227 11.543-4.726 0-7.891-3.926-7.891-11.411 0-7.354 3.418-11.345 8.355-11.345 4.851.001 7.763 4.125 7.763 11.213zm-12.743.166c0 4.584 1.139 9.135 4.769 9.135 3.626 0 4.597-4.85 4.597-9.202 0-4.154-.971-9.069-4.642-9.069-3.585.001-4.724 4.617-4.724 9.136zM104.465 46.519h-5.189v-2.275h13.631v2.275h-5.191v19.953h-3.251V46.519zM126.45 55.918h-7.128v8.344h8.101v2.21h-11.351V44.245h10.843v2.209h-7.594v7.32h7.129v2.144zM134.218 44.244v10.092h.591l6.034-10.092h3.546l-6.963 10.387c3.504.594 4.643 2.937 5.36 5.639.59 2.113 1.01 4.287 1.896 6.2h-3.292c-.674-1.452-1.139-3.661-1.645-5.54-.718-2.705-1.647-4.717-5.021-4.717h-.508V66.47h-3.164V44.244h3.166zM159.582 66.076c-.889.361-2.323.59-4.093.59-5.528 0-9.535-3.494-9.535-11.045 0-8.773 5.569-11.576 10.084-11.576 1.688 0 2.953.263 3.503.56l-.718 2.142c-.675-.23-1.353-.461-2.827-.461-3.037 0-6.625 2.309-6.625 9.104 0 6.795 3.206 9.035 6.708 9.035 1.225 0 2.28-.23 2.955-.461l.548 2.112z"/></g></svg>