<svg xmlns="http://www.w3.org/2000/svg" width="160" height="100"><path fill="#B189BD" d="M54.693 40.505v24.662h.845V40.505"/><path fill="#929497" d="M132.583 43.574l-1.371 2.221a5.07 5.07 0 00-2.176-.485c-.291 0-.562.051-.818.158-.313.124-.469.295-.469.515 0 .287.239.5.718.644.08.032.453.103 1.121.217 2.222.382 3.332 1.352 3.332 2.911 0 1.213-.569 2.145-1.707 2.796-.985.573-2.214.858-3.699.858-1.65 0-3.19-.374-4.619-1.134l1.473-2.418c1.093.658 2.165.989 3.212.989.313 0 .586-.06.821-.173.302-.144.45-.335.45-.573 0-.383-.439-.666-1.32-.845a25.346 25.346 0 01-2.459-.646c-.871-.44-1.305-1.165-1.305-2.18 0-1.137.529-2.019 1.588-2.651.927-.553 2.077-.831 3.448-.831 1.424-.002 2.687.206 3.78.627M110.524 43.271h4.069v5.234c0 .698.128 1.209.384 1.533.312.394.859.59 1.641.59.783 0 1.328-.196 1.641-.59.267-.324.4-.835.4-1.533v-5.234h4.051v5.907c0 2.82-2.032 4.229-6.092 4.229-4.061 0-6.094-1.408-6.094-4.229v-5.907zM105.518 40.331h4.066V53.08h-4.066zM102.383 46.141v6.938h-4.07v-6.938H96.99v-2.87h1.323V40.32h4.07v2.951h2.288v2.87zM83.899 43.271h4.066v5.234c0 .698.13 1.209.387 1.533.312.394.858.59 1.638.59.781 0 1.329-.196 1.642-.59.271-.324.402-.835.402-1.533v-5.234h4.047v5.907c0 2.82-2.027 4.229-6.091 4.229-4.06 0-6.091-1.408-6.091-4.229v-5.907zM151.984 43.271v1.263c.871-1.061 2.093-1.59 3.703-1.59 2.875 0 4.313 1.358 4.313 4.072v6.063h-4.065v-4.787c0-.833-.052-1.377-.152-1.633-.248-.633-.802-.945-1.671-.945-1.419 0-2.128.758-2.128 2.276v5.09h-4.065v-9.809h4.065zM74.529 40.411h8.119v12.708h-5.029v-9.502l-3.431 9.502h-5.22l-3.237-9.462v9.462h-4.543V40.411h7.974l2.765 8.546zM66.847 60.219c0-1.236-1.061-2.411-2.393-2.411-.809 0-1.665.43-2.317 1.157a4.1 4.1 0 00-1.046 2.775c0 1.791 1.141 3.377 3.093 3.377.491 0 1.584-.287 2.583-1.539l-.254-.334c-.571.539-1.172.795-1.806.795-1.111 0-2.347-.888-2.362-3.045 1.888-.063 3.867-.221 4.138-.271.285-.064.364-.187.364-.504m-1.743.078a73.72 73.72 0 01-2.68.047c.24-1.283.935-1.951 1.664-1.951.872 0 1.413.765 1.397 1.586 0 .224-.098.318-.381.318M70.887 64.926h-3.535v-.411c.999-.096 1.141-.189 1.141-1.239V56.68c0-1.077-.093-1.125-1.09-1.205v-.381a12.1 12.1 0 002.344-.557v8.738c0 1.05.125 1.144 1.141 1.239l-.001.412zM77.401 60.219c0-1.236-1.062-2.411-2.394-2.411-.809 0-1.666.43-2.312 1.157-.653.713-1.05 1.682-1.05 2.775 0 1.791 1.142 3.377 3.092 3.377.492 0 1.586-.287 2.584-1.539l-.254-.334c-.57.539-1.173.795-1.806.795-1.111 0-2.349-.888-2.362-3.045 1.886-.063 3.866-.221 4.137-.271.286-.064.365-.187.365-.504m-1.744.078c-.92.033-1.79.047-2.678.047.236-1.283.933-1.951 1.664-1.951.869 0 1.408.765 1.395 1.586 0 .224-.095.318-.381.318M84.012 63.166l.268.332c-.698.922-1.759 1.619-2.696 1.619-1.998 0-3.172-1.619-3.172-3.313 0-1.22.525-2.284 1.587-3.108.826-.635 1.775-.888 2.377-.888.65 0 1.174.206 1.427.413.208.172.252.316.252.492 0 .334-.346.68-.522.68-.08 0-.158-.046-.3-.174-.476-.44-1.032-.649-1.586-.649-1.047 0-1.964.873-1.964 2.536 0 2.203 1.504 2.934 2.394 2.934.681-.001 1.203-.188 1.935-.874M89.286 64.356l-1.078.554c-.27.143-.521.207-.665.207-.999 0-1.553-.631-1.553-1.889v-4.611h-1.094l-.063-.156.428-.461h.729v-1.158l1.029-1.048.223.032V58h1.792c.141.155.095.506-.095.617h-1.696v4.074c0 1.284.522 1.52.918 1.52.397 0 .76-.158.981-.266l.144.411zM92.28 59.488c.508-.794 1.191-1.682 1.949-1.682.538 0 .921.412.921.795a.89.89 0 01-.51.776c-.189.079-.332.063-.424-.032-.223-.237-.416-.334-.668-.334-.412 0-.92.477-1.27 1.365v2.898c0 1.049.079 1.144 1.3 1.238v.412h-3.646v-.412c.982-.095 1.095-.189 1.095-1.238v-3.278c0-1.049-.08-1.108-.982-1.238v-.348a8.932 8.932 0 002.235-.649v1.727zM99.317 64.926h-3.488v-.411c.998-.096 1.11-.189 1.11-1.271v-3.278c0-.969-.046-1.045-.999-1.188v-.385a10.004 10.004 0 002.249-.616v5.467c0 1.082.112 1.177 1.127 1.271v.411zM105.703 63.166l.272.332c-.699.922-1.762 1.619-2.694 1.619-2 0-3.174-1.619-3.174-3.313 0-1.22.525-2.284 1.587-3.108.823-.635 1.774-.888 2.377-.888.65 0 1.172.206 1.428.413.203.172.251.316.251.492 0 .334-.349.68-.521.68-.079 0-.159-.046-.302-.174-.478-.44-1.031-.649-1.586-.649-1.045 0-1.964.873-1.964 2.536 0 2.203 1.505 2.934 2.395 2.934.678-.001 1.202-.188 1.931-.874M97.463 56.432c-.415 0-.793-.383-.793-.812 0-.474.379-.821.809-.821.442 0 .791.348.791.821a.813.813 0 01-.807.812"/><path fill="#D71921" d="M49.629 40.027l-.141 18.723-5.11 6.449h-10.79L48.44 46.751h-4.134c-2.517 0-3.215 1.31-3.215 1.31L27.324 65.234l-10.591-.035L31.6 46.754h-4.024c-2.519 0-3.221 1.31-3.221 1.31L10.588 65.235 0 65.202l17.219-21.367s3.164-3.831 6.76-3.831L30.763 40h4.417v2.601c1.246-1.112 3.306-2.573 5.531-2.573h8.918v-.001z"/><path fill="#929497" d="M142.771 43.271v.95c-.847-.85-2.03-1.276-3.548-1.276-1.683 0-3.072.515-4.166 1.547-1.049.995-1.577 2.22-1.577 3.67 0 1.445.539 2.67 1.609 3.687 1.116 1.038 2.504 1.56 4.168 1.56 1.629 0 2.783-.473 3.513-1.418v1.089h4.051v-9.808h-4.05zm-.602 6.513c-.482.4-1.106.601-1.875.601-.783 0-1.416-.201-1.907-.601-.48-.401-.718-.939-.718-1.608 0-.648.237-1.18.718-1.59.491-.412 1.124-.616 1.907-.616.769 0 1.394.204 1.875.616.489.41.733.942.733 1.59.002.669-.243 1.207-.733 1.608"/></svg>