<svg xmlns="http://www.w3.org/2000/svg" width="160" height="100"><g fill="#2C3135"><path d="M.592 90.865c-.167 0-.213-.014-.213-.211v-7.066c0-.165.016-.213.213-.213h3.472c1.062 0 1.698.016 2.198.288.44.244.864.714.864 1.594 0 .439-.122 1.317-1.138 1.639 1.138.27 1.366 1.182 1.366 1.727 0 .501-.06 1.062-.561 1.531-.698.652-1.895.712-2.714.712H.592zm2.395-4.563h.804c.288 0 .741-.044.741-.682 0-.456-.409-.622-.696-.622h-.849v1.304zm0 2.942h.91c.593 0 .818-.365.818-.712 0-.531-.454-.714-.849-.714h-.879v1.426zM20.602 83.376c.198 0 .273.015.289.228l.621 7.081c0 .121-.06.181-.197.181h-2.062c-.166 0-.288 0-.288-.227l-.077-4.153h-.075a31.724 31.724 0 01-.439 1.741l-.424 1.471c-.047.167-.091.197-.302.197h-1.289c-.212 0-.259-.03-.304-.197l-.455-1.576c-.137-.456-.273-.88-.424-1.637h-.061l-.06 4.153c0 .227-.122.227-.288.227h-2.063c-.122 0-.196-.029-.196-.181l.636-7.081c.017-.213.091-.228.289-.228h2.259c.138 0 .259.015.303.168l.606 2.047c.122.395.243.805.38 1.561h.06c.105-.575.227-.955.363-1.439l.637-2.168c.046-.151.167-.167.304-.167l2.257-.001zM23.172 83.512c0-.121.091-.137.212-.149l2.184-.244c.047 0 .09.015.09.106v2.927c0 .438-.029 1.014-.06 1.456h.046A9.795 9.795 0 0126.432 86l1.319-2.32c.136-.228.181-.271.424-.302l2.228-.259c.091 0 .121.03.121.184v7.475c0 .089-.059.089-.121.089h-2.228c-.107 0-.137-.014-.137-.197v-2.636c0-.378.045-1.093.077-1.411h-.061c-.151.394-.364.881-.864 1.789l-1.245 2.306c-.045.075-.091.149-.242.149h-2.32c-.167 0-.212-.014-.212-.211v-7.144h.001zM36.362 91.126c-.457 0-.834-.155-1.168-.305v2.698c0 .198-.031.228-.166.244l-2.442.287c-.121 0-.121-.062-.121-.258v-8.216c0-.851-.303-1.518-.303-1.774 0-.06.046-.092.122-.107l1.758-.528a1.1 1.1 0 01.319-.047c.166 0 .288.318.41.652.576-.487 1.092-.652 1.758-.652 2.107 0 3.078 1.607 3.078 3.987-.001 2.623-.972 4.019-3.245 4.019zm-.258-6.097c-.259 0-.561.091-.91.363v3.881c.242.105.531.153.789.153.652 0 .986-.411.986-2.275-.002-1.607-.381-2.122-.865-2.122zM47.77 87.682h-4.292c.092 1.062.517 1.471 1.275 1.471.91 0 1.38-.24 1.955-.561.077-.047.122-.06.167-.06.076 0 .136.06.196.166l.684 1.275a.25.25 0 01.046.12c0 .06-.046.106-.153.168-1.03.697-2.137.864-2.97.864-2.519 0-3.806-1.489-3.806-3.943 0-2.336 1.394-4.064 3.729-4.064 2.397 0 3.413 1.563 3.413 4.353-.001.196-.093.211-.244.211zm-3.26-2.897c-.637 0-.879.32-1.032 1.275h1.972c-.06-.985-.348-1.275-.94-1.275zM58.758 85.65c-.044.091-.076.138-.136.138-.046 0-.106-.03-.181-.076-.532-.334-1.017-.562-1.546-.562-.593 0-1.213.484-1.213 2.017 0 1.471.607 1.927 1.229 1.927.5 0 .91-.229 1.304-.456.104-.06.181-.092.241-.092.076 0 .138.063.198.183l.576 1.122a.433.433 0 01.061.18c0 .671-2.018 1.095-2.668 1.095-2.411 0-3.639-1.532-3.639-3.881 0-2.472 1.38-4.124 3.881-4.124.865 0 1.7.272 2.381.773.105.076.152.137.152.213 0 .059-.031.121-.06.212l-.58 1.331zM60.921 90.865c-.167 0-.212-.014-.212-.211v-7.066c0-.165.016-.213.212-.213h3.472c1.061 0 1.698.016 2.198.288.439.244.864.714.864 1.594 0 .439-.123 1.317-1.137 1.639 1.137.27 1.364 1.182 1.364 1.727 0 .501-.06 1.062-.561 1.531-.697.652-1.895.712-2.714.712h-3.486zm2.394-4.563h.805c.287 0 .743-.044.743-.682 0-.456-.409-.622-.698-.622h-.851v1.304zm0 2.942h.911c.592 0 .819-.365.819-.712 0-.531-.454-.714-.849-.714h-.88v1.426zM75.829 87.682h-4.291c.091 1.062.516 1.471 1.274 1.471.91 0 1.379-.24 1.956-.561.076-.047.121-.06.166-.06.077 0 .138.06.198.166l.683 1.275a.257.257 0 01.045.12c0 .06-.045.106-.152.168-1.032.697-2.137.864-2.971.864-2.517 0-3.806-1.489-3.806-3.943 0-2.336 1.394-4.064 3.729-4.064 2.396 0 3.412 1.563 3.412 4.353-.001.196-.092.211-.243.211zm-3.26-2.897c-.637 0-.88.32-1.032 1.275h1.971c-.06-.985-.348-1.275-.939-1.275zM81.628 90.655c0 .166-.015.212-.212.212h-2.304c-.167 0-.212-.015-.212-.212v-5.277h-1.654c-.167 0-.212-.047-.212-.214v-1.576c0-.165.045-.213.212-.213h6.186c.152 0 .242.016.242.151l-.229 1.638c0 .048-.045.214-.228.214h-1.592v5.276l.003.001zM88.178 91.126c-2.427 0-3.729-1.595-3.729-4.021 0-2.365 1.35-3.987 3.745-3.987s3.685 1.622 3.685 4.019c-.001 2.335-1.353 3.989-3.701 3.989zm-.016-6.157c-.637 0-1.017.456-1.017 2.168 0 1.683.38 2.137 1.017 2.137s1.015-.472 1.015-2.15c0-1.685-.378-2.155-1.015-2.155zM97.45 90.655c0 .166-.017.212-.213.212h-2.304c-.167 0-.215-.015-.215-.212v-5.277h-1.649c-.169 0-.214-.047-.214-.214v-1.576c0-.165.045-.213.214-.213h6.185c.152 0 .241.016.241.151l-.226 1.638c0 .048-.047.214-.228.214H97.45v5.277zM107.154 87.682h-4.293c.091 1.062.516 1.471 1.274 1.471.91 0 1.38-.24 1.956-.561.075-.047.122-.06.166-.06.077 0 .138.06.197.166l.682 1.275a.233.233 0 01.047.12c0 .06-.047.106-.15.168-1.033.697-2.138.864-2.973.864-2.518 0-3.807-1.489-3.807-3.943 0-2.336 1.396-4.064 3.731-4.064 2.395 0 3.411 1.563 3.411 4.353.001.196-.09.211-.241.211zm-3.262-2.897c-.636 0-.878.32-1.03 1.275h1.971c-.062-.985-.349-1.275-.941-1.275zM116.6 90.668c0 .092-.061.151-.197.168l-2.44.259c-.061 0-.106.015-.151.015-.092 0-.137-.029-.183-.137l-.863-1.561c-.151-.273-.213-.486-.287-.653-.078.167-.138.41-.274.653l-.909 1.561c-.061.091-.092.122-.168.122-.045 0-.074 0-.149-.016l-2.398-.438c-.137-.031-.212-.092-.212-.168 0-.061.031-.121.093-.196l2.349-3.186-2.122-3.002c-.061-.091-.092-.15-.092-.212 0-.075.061-.122.213-.151l2.396-.424c.061-.018.123-.018.15-.018.093 0 .124.047.185.139l.684 1.317c.075.168.179.456.24.591.076-.165.168-.41.289-.591l.803-1.317c.061-.106.092-.139.166-.139.048 0 .108.018.183.03l2.367.487c.149.029.211.091.211.167 0 .058-.029.12-.09.194l-2.229 2.928 2.365 3.38a.46.46 0 01.07.198zM122.051 83.544c0-.123.092-.138.152-.138l2.502-.258c.061 0 .075.061.075.121v7.459c0 .091 0 .137-.105.137h-2.456c-.15 0-.166-.06-.166-.197v-2.697h-1.518v2.773c0 .107-.029.121-.105.121h-2.441c-.151 0-.182-.046-.182-.197v-7.096c0-.121.03-.149.151-.165l2.487-.259c.046 0 .09.017.09.106v2.772h1.517v-2.485h-.001v.003zM126.639 83.512c0-.121.091-.137.213-.149l2.184-.244c.045 0 .09.015.09.106v2.927c0 .438-.029 1.014-.06 1.456h.046c.241-.638.5-1.122.787-1.608l1.318-2.32c.138-.228.185-.271.425-.302l2.229-.259c.092 0 .121.03.121.184v7.475c0 .089-.06.089-.121.089h-2.229c-.104 0-.136-.014-.136-.197v-2.636c0-.378.046-1.093.076-1.411h-.06c-.153.394-.365.881-.865 1.789l-1.241 2.306c-.049.075-.092.149-.244.149h-2.319c-.168 0-.214-.014-.214-.211v-7.144zM138.581 90.655c0 .212 0 .212-.15.212h-2.351c-.153 0-.228 0-.228-.197v-7.08c0-.167.06-.181.211-.197l2.214-.227c.092-.016.153-.03.195-.03.076 0 .107.044.107.181v2.641h.546c.515 0 .712-.364.818-.835l.121-.515c.333-1.258 1.395-1.606 2.351-1.606.168 0 .333.015.378.181l.349 1.425c0 .03.016.044.016.076 0 .104-.061.195-.166.213l-.273.044c-.409.077-.484.304-.591.578l-.182.544c-.121.378-.348.713-.833.85v.046c.47.138.804.531.939 1.093l.105.408c.182.743.424.651.683.698l.181.03c.183.028.228.137.228.258 0 .045 0 .073-.015.121l-.302 1.334c-.03.167-.077.228-.457.228-.636 0-2.138.076-2.517-1.729l-.136-.697c-.106-.484-.303-.743-.791-.743h-.453v2.697h.003zM144.553 83.512c0-.121.091-.137.214-.149l2.185-.244c.045 0 .089.015.089.106v2.927c0 .438-.028 1.014-.06 1.456h.047c.242-.638.5-1.122.787-1.608l1.319-2.32c.136-.228.183-.271.424-.302l2.229-.259c.091 0 .121.03.121.184v7.475c0 .089-.061.089-.121.089h-2.229c-.105 0-.135-.014-.135-.197v-2.636c0-.378.045-1.093.074-1.411h-.06c-.152.394-.367.881-.864 1.789l-1.245 2.306c-.044.075-.09.149-.241.149h-2.32c-.167 0-.214-.014-.214-.211v-7.144z"/></g><path fill="#2C3135" d="M151.842 46.068c0-1.23.278-2.233 1.027-3.121 1.31-1.55 2.912-2.076 4.305-1.94.639.065 1.274-.211 1.472-.803l1.281-3.858c.265-.804-.223-1.376-.869-1.437-2.72-.249-5.329.715-7.98 3.658a23.415 23.415 0 00-1.055-2.982c-.247-.578-.863-.863-1.498-.619l-3.339 1.281c-.579.227-.838.809-.607 1.407.587 1.527 1.173 3.847 1.173 6.795v17.624c0 .601.503 1.104 1.106 1.104h3.878c.602 0 1.106-.503 1.106-1.104V46.068zm-30.22 11.705c-.43 0-1.865-.039-1.865-2.639V40.243h2.39c.427 0 .866-.336.976-.749l.905-3.377c.111-.413-.146-.751-.576-.751h-3.696v-5.839c0-.645-.501-.974-1.066-.822-1.378.368-3.633.975-3.944 1.058-.714.191-1.081.677-1.081 1.408v4.194h-1.868a.778.778 0 00-.775.777v3.323c0 .426.349.775.775.775h1.868v15.777c0 4.905 3.45 7.649 7.664 7.649.976 0 1.884-.194 2.654-.454.616-.218 1.021-.7.756-1.506l-1.116-3.334c-.205-.613-.743-.889-1.346-.72-.252.07-.489.121-.655.121zM133.91 34.87c-5.593 0-8.59 3.514-8.59 9.584v9.64c0 6.071 2.998 9.585 8.59 9.585 5.591 0 8.586-3.514 8.586-9.585v-9.64c0-6.071-2.996-9.584-8.586-9.584zm2.49 20.218c0 1.794-.789 2.939-2.49 2.939-1.704 0-2.493-1.146-2.493-2.939V43.457c0-1.792.789-2.937 2.493-2.937 1.701 0 2.49 1.145 2.49 2.937v11.631zm-72.599 6.984c0 .608.498 1.104 1.106 1.104h3.877a1.11 1.11 0 001.108-1.104V36.476c0-.61-.5-1.108-1.108-1.108h-3.877a1.11 1.11 0 00-1.106 1.108v25.596zm47.026-.962c-.616-1.678-1.084-3.932-1.084-7.013V43.976c0-4.419-1.937-6.628-3.562-7.702-2.729-1.804-6.479-1.874-11.426-.228-.619.207-.936.843-.77 1.475l.945 3.532c.171.634.811.86 1.345.677 3.585-1.245 5.402-1.504 6.667-.668.884.583.928 1.795.928 3.578v1.449s-1.948-.985-3.816-.985c-4.475 0-7.144 2.828-7.178 7.853v1.358c0 6.616 2.915 9.363 6.739 9.363 2 0 4.117-1.354 5.197-2.706 0 0 .415 1.198.85 2.015.331.626.922.831 1.595.595l2.943-1.054c.6-.209.846-.825.627-1.418zm-6.958-4.28s-.895 1.494-2.559 1.494c-1.645 0-2.563-.937-2.563-2.937v-3.083c0-1.449 1.006-2.504 2.563-2.504 1.436 0 2.559.832 2.559.832v6.198zm-61.64 4.28c-.618-1.678-1.086-3.932-1.086-7.013l.002-10.122c0-4.419-1.938-6.628-3.562-7.702-2.729-1.804-6.479-1.874-11.422-.228-.624.207-.94.843-.773 1.475l.946 3.532c.17.634.811.86 1.345.677 3.583-1.245 5.402-1.504 6.666-.668.883.583.929 1.795.929 3.578l-.002 1.449s-1.949-.985-3.817-.985c-4.474 0-7.145 2.828-7.176 7.853v1.358c0 6.616 2.916 9.363 6.74 9.363 1.999 0 4.117-1.354 5.196-2.706 0 0 .415 1.198.851 2.015.33.626.924.831 1.594.595l2.945-1.054c.592-.208.843-.824.624-1.417zm-6.958-4.28s-.895 1.494-2.562 1.494c-1.643 0-2.559-.937-2.559-2.937v-3.083c0-1.449 1.005-2.504 2.559-2.504 1.437 0 2.562.832 2.562.832v6.198zm55.185-20.811l-3.01-1.054c-.673-.236-1.266-.031-1.596.595a18.74 18.74 0 00-.69 1.495c-1.031-1.138-2.452-2.186-4.382-2.186-3.821 0-7.514 2.45-7.514 9.363v9.506c0 6.913 3.268 9.197 7.093 9.197 1.365 0 2.788-.563 3.878-1.339 0 0 .11.648.11 1.361 0 1.744-.327 2.754-1.301 3.434-1.132.789-3.176.824-6.856-.344-.625-.199-1.203.086-1.405.71l-1.127 3.464c-.195.604.107 1.221.716 1.401 2.465.749 4.611 1.066 6.582 1.066 2.34 0 4.073-.544 5.634-1.633 1.654-1.154 3.63-3.497 3.63-8.098 0 0-.223-5.469-.223-10.018v-8.49c0-3.08.468-5.334 1.087-7.011.219-.597-.029-1.212-.626-1.419zm-6.33 20.305s-.794 1.315-2.495 1.315c-1.702 0-2.494-1.401-2.494-3.048V43.38c0-1.939.96-3.046 2.604-3.046 1.482 0 2.384 1.163 2.384 1.163v14.827h.001zM6.094 42.982c0-1.875-.112-3.515-.112-3.515h.201s.279 2.028 1.251 4.326l7.76 18.362c.237.566.912 1.021 1.533 1.021h3.434c.61 0 1.107-.497 1.107-1.104V26.948c0-.609-.497-1.106-1.107-1.106h-3.878a1.11 1.11 0 00-1.107 1.106v16.799c0 2.123.111 4.252.111 4.252h-.2s-.777-3.188-1.433-4.763c-.207-.497-6.911-16.372-6.911-16.372-.235-.562-.926-1.021-1.535-1.021H1.107c-.609 0-1.107.496-1.107 1.105v35.125c0 .608.498 1.104 1.107 1.104h3.877c.61 0 1.109-.499 1.109-1.104l.001-19.091z"/><path fill="#FA0A19" d="M60.985 35.609a37.587 37.587 0 00-4.075-.726c-.718-.087-1.174.257-1.324.979l-2.563 12.286c-.37 1.768-.513 3.944-.642 5.935h-.203c-.128-1.991-.273-4.167-.641-5.935L48.97 35.851c-.139-.666-.667-1.047-1.333-.966a37.685 37.685 0 00-4.071.724c-.649.155-.961.742-.805 1.326l6.809 25.409c.182.677.728 1.074 1.398 1.074h2.621c.678 0 1.219-.406 1.4-1.074l6.801-25.386c.182-.681-.158-1.198-.805-1.349zM34.375 5.634l6.818 25.446c.163.608.718.957 1.371.8a41.69 41.69 0 019.715-1.144c3.314 0 6.57.386 9.717 1.134.647.157 1.203-.157 1.375-.807L70.186 5.63l-35.811.004z"/></svg>