<svg xmlns="http://www.w3.org/2000/svg" viewBox="0 0 160 100"><path d="M.112 60.663v-3.45h8.331V34.792h3.399v25.872l-11.73-.001zM0 68.572v-3.451h23.354V44.843h3.398v23.729H0zm0 7.466v-3.456h37.604V54.87h3.4v21.168H0z"/><path fill="none" d="M.112 57.211h8.333V34.793h3.397v25.872H.112v-3.454zM0 65.119h23.354V44.846h3.398v23.728H0v-3.455zm0 7.465h37.604V54.872h3.399v21.166H0v-3.454z"/><path fill="#E53517" d="M.165 30.138H49.94v4.79H.165v-4.79zm0 10.25H49.94v4.792H.165v-4.792zm0 10.026H49.94v4.792H.165v-4.792z"/><path fill="none" stroke="#000" stroke-width=".279" stroke-miterlimit="3.864" d="M.167 30.138h49.775v4.792H.167v-4.792zm0 10.25h49.775v4.792H.167v-4.792zm0 10.026h49.775v4.792H.167v-4.792z"/><path d="M65.404 60.691V47.557h-2.511v13.134h-7.982V29.793h7.982v11.601h2.511V29.793h7.982v30.898zM87.935 60.691V46.333l-4.336 14.358h-6.825V29.793h6.551v14.575l4.274-14.575h6.893v30.898zM96.515 55.911h.805c.574 0 2.119-.267 2.119-1.543V29.794h18.008v30.899h-8.053V35.96h-2.59v19.217c0 2.16-.286 5.515-5.976 5.515h-4.311V55.91l-.002.001zM120.484 29.792h13.648v5.479h-6.251v6.813h5.568v5.471h-5.568v6.976h6.569v6.16h-13.966zM157.841 29.792h-17.254s-1.435 19.925-1.636 20.956c-.204 1.035-.377 3.783-2.384 3.783h-.373V66.26h5.298v-5.568h12.531v5.568H160V54.531h-2.16l.001-24.739zm-10.426 6.016h3.03v18.663h-4.749c1.618-4.943 1.719-18.663 1.719-18.663"/></svg>