<svg xmlns="http://www.w3.org/2000/svg" width="160" height="100"><path fill="#C50084" d="M0 25v53.828l66.905-6.002-52.762-4.928L1.148 25z"/><path fill="#D4D4D4" d="M131.171 78.828l6.621-12.361-70.887 6.359z"/><path fill="#A3006C" d="M1.148 25l12.995 42.898 52.762 4.928 70.887-6.359L160 25z"/><path fill="#FFF" d="M37.784 40.486h3.198v13.907h-3.198zM50.579 46.051h-8.207v2.782h8.207v5.561h3.198V40.486h-3.198zM97.029 50.319v-9.833H93.83v13.907h3.199l9.597-9.831v9.831h3.198V40.486h-3.198zM128.6 40.486h-17.107v2.782h6.746v11.126h3.615V43.268h6.746zM32.497 40.486h-2.712v2.779h2.297v8.348h-9.596v-8.348h2.288v-2.779h-2.706a2.782 2.782 0 00-2.781 2.782v8.345a2.78 2.78 0 002.781 2.779h10.429a2.78 2.78 0 002.78-2.779v-8.345a2.782 2.782 0 00-2.78-2.782M88.545 40.486H78.117a2.782 2.782 0 00-2.783 2.782v11.125h3.197V43.268h9.599v4.172h-8.206v2.779h8.206v4.174h3.198V43.268a2.78 2.78 0 00-2.783-2.782M56.84 43.266v8.349h-1.602v2.778h2.016a2.779 2.779 0 002.782-2.779v-8.348h9.597v11.127h3.199l.001-13.906H59.621a2.777 2.777 0 00-2.781 2.779"/><path fill="#FFF" d="M26.169 39.096h2.225v6.955h-2.225zM99.392 39.096h4.871v2.224h-4.871z"/></svg>