<svg xmlns="http://www.w3.org/2000/svg" width="160" height="100"><path fill="#E27E3B" d="M160 50.629c0 14.146-9.569 25.632-21.354 25.632-11.788 0-21.358-11.485-21.358-25.632 0-14.145 9.569-25.629 21.358-25.629C150.431 24.999 160 36.484 160 50.629z"/><path fill="#E6E7E8" d="M128.277 46.217c0-3.526 3.098-10.144 10.036-10.144 6.946 0 10.04 6.618 10.04 10.144 0 3.523-2.457 6.635-3.312 8.115-.857 1.479-1.385 4.805-1.385 4.805l-1.07 1.068h-8.545l-1.065-1.068s-.426-3.326-1.28-4.805c-.857-1.481-3.419-4.592-3.419-8.115zm5.764 14.629h8.545v1.493l-.539.748h-7.473l-.535-.748.002-1.493zm.536 2.774h7.473v2.562l-.426.854h-6.618l-.429-.854V63.62zm1.71 4.056h4.056l-.424.75h-3.208l-.424-.75z"/><path fill="#231F20" d="M126.302 51.17c0 2.494-1.526 4.207-3.879 4.207-2.337 0-3.889-1.715-3.889-4.207 0-2.473 1.672-4.217 3.889-4.217 2.274-.008 3.879 1.67 3.879 4.217zm-1.919-.014c0-1.291-.578-2.533-1.961-2.533-1.399 0-1.986 1.296-1.986 2.539 0 1.236.636 2.5 1.978 2.5 1.355.002 1.969-1.318 1.969-2.506zM133.453 52.813c.018 1.541-1.465 2.572-3.245 2.572-3.54 0-3.299-2.633-3.314-2.85h1.878c-.08.818.763 1.273 1.518 1.258.556-.01 1.24-.111 1.328-.845.173-1.474-4.612-.413-4.612-3.471 0-1.624 1.623-2.516 3.203-2.516 2.243 0 3.247 1.328 3.247 2.753h-1.929s.093-1.135-1.355-1.135c-.566 0-1.192.222-1.265.745-.192 1.379 4.509.36 4.546 3.489zM141.002 49.92c0 1.164-.566 2.072-1.623 2.558l1.336 2.667h-2.042l-1.187-2.549h-1.209v2.549h-1.86v-7.961h4.07c1.435.001 2.515 1.202 2.515 2.736zm-1.902 0c-.029-.557-.35-1.058-.905-1.058h-1.939v2.144h1.939c.548 0 .929-.59.905-1.086zM149.054 55.145h-1.979l-.481-1.369h-3.132l-.473 1.369h-1.998l2.897-7.969h2.272l2.894 7.969zm-3.023-3.032l-.991-2.918v.02l-1.018 2.898h2.009zM157.368 55.154h-1.947l-.009-4.396-1.948 3.256-1.944-3.139v4.279h-2.012v-7.978l2.058.013 1.86 3.235 1.972-3.235 1.97-.013z"/><path fill="#D0D0D8" d="M125.791 51.036c0 2.323-1.388 3.822-3.495 3.822-2.089 0-3.499-1.503-3.499-3.822 0-2.299 1.523-3.84 3.499-3.84 2.033-.004 3.495 1.467 3.495 3.84zm-1.045-.018c0-1.377-.644-3.021-2.45-3.021-1.823 0-2.476 1.701-2.476 3.031 0 1.336.713 2.994 2.468 2.994 1.77-.001 2.458-1.724 2.458-3.004zm8.194 1.691c.016 1.206-1.158 2.156-2.844 2.156-1.667 0-2.337-.61-2.636-1.137a2.392 2.392 0 01-.261-.815l-.004-.042h1.022c.086.371.319.665.602.871.391.283.898.42 1.362.408.521-.008 1.655-.096 1.794-1.258.084-.725-.504-1.059-.95-1.221a6.373 6.373 0 00-.8-.225l-.869-.206c-1.195-.308-2.066-.733-2.066-1.929 0-1.271 1.292-2.104 2.805-2.104 1.791 0 2.618.889 2.802 1.895h-1.071a1.54 1.54 0 00-.136-.348c-.25-.451-.76-.812-1.634-.812-.578 0-1.611.228-1.734 1.152-.104.724.51 1.034.93 1.187.429.15 1.025.256 1.622.416 1.165.311 2.053.764 2.066 2.012zm7.537-2.946c0 1.011-.475 1.771-1.389 2.189l-.424.194.104.211 1.132 2.264h-1.05l-1.149-2.457-.06-.135h-1.968v2.592h-.99v-7.188h3.688c1.172.001 2.106.98 2.106 2.33zm-1.029-.019c-.039-.673-.452-1.51-1.371-1.51h-2.425v3.084h2.425c.904 0 1.4-.916 1.371-1.574zm8.913 4.878h-1.047l-.431-1.241-.054-.149h-3.83l-.054.149-.428 1.241h-1.064l2.527-6.958.261-.237h1.274l.307.208 2.539 6.987zm-3.226-6.138l-.205-.141-.224.138-1.461 3.962h3.326l-1.436-3.959zm11.726 6.144h-1.074l-.01-4.952-.178-.128-.245.136-2.016 3.375-2.006-3.23-.224-.142-.196.12v4.822h-1.141V47.43l1.38.01 1.952 3.396.188.077.198-.074 2.076-3.398 1.294-.008.002 7.195z"/><path fill="#909BBE" d="M125.897 51.146c0 2.318-1.388 3.818-3.494 3.818-2.093 0-3.5-1.504-3.5-3.818 0-2.3 1.523-3.84 3.5-3.84 2.029-.007 3.494 1.464 3.494 3.84zm-1.046-.021c0-1.379-.642-3.025-2.448-3.025-1.823 0-2.472 1.703-2.472 3.032 0 1.339.709 2.995 2.463 2.995 1.772 0 2.457-1.725 2.457-3.002zm8.195 1.689c.02 1.211-1.157 2.158-2.843 2.158-1.669 0-2.338-.605-2.631-1.135a2.321 2.321 0 01-.263-.818l-.005-.041h1.02c.089.375.32.668.605.871.39.287.893.416 1.363.406.518-.01 1.649-.094 1.79-1.254.087-.728-.505-1.059-.948-1.225-.254-.093-.542-.162-.804-.227l-.865-.205c-1.198-.302-2.067-.731-2.067-1.926 0-1.27 1.292-2.106 2.804-2.106 1.79 0 2.624.89 2.809 1.896h-1.075a1.812 1.812 0 00-.141-.342c-.249-.452-.756-.814-1.637-.814-.575 0-1.602.226-1.729 1.154-.1.721.511 1.035.928 1.184.434.152 1.026.26 1.625.418 1.163.305 2.051.755 2.064 2.006zm7.536-2.945c0 1.01-.477 1.771-1.384 2.19l-.426.196.106.205 1.132 2.27h-1.058l-1.14-2.461-.064-.129h-1.966v2.59h-.988v-7.191h3.684c1.168.001 2.104.98 2.104 2.33zm-1.028-.021c-.038-.666-.454-1.506-1.374-1.506h-2.424v3.082h2.424c.906 0 1.407-.913 1.374-1.576zm8.911 4.882h-1.047l-.434-1.243-.053-.152h-3.826l-.054.152-.427 1.243h-1.065l2.53-6.963.256-.237h1.272l.309.211 2.539 6.989zm-3.227-6.14l-.198-.135-.229.135-1.459 3.959h3.327l-1.441-3.959zm11.73 6.146h-1.079l-.005-4.951-.179-.133-.241.141-2.017 3.369-2.01-3.232-.219-.134-.2.12v4.82h-1.14v-7.201l1.375.01 1.958 3.392.187.079.198-.076 2.074-3.395 1.296-.011v7.202h.002z"/><path fill="#1D3151" d="M126.109 51.357c0 2.322-1.385 3.822-3.492 3.822-2.091 0-3.5-1.503-3.5-3.822 0-2.301 1.522-3.84 3.5-3.84 2.031-.003 3.492 1.467 3.492 3.84zm-1.041-.017c0-1.377-.644-3.026-2.45-3.026-1.823 0-2.476 1.705-2.476 3.032 0 1.34.713 2.995 2.47 2.995 1.769 0 2.456-1.725 2.456-3.001zm8.193 1.689c.013 1.209-1.161 2.157-2.845 2.157-1.668 0-2.335-.606-2.635-1.138a2.276 2.276 0 01-.259-.814l-.005-.042h1.021c.09.37.321.663.604.87.392.283.895.42 1.364.406.521-.006 1.651-.095 1.793-1.256.085-.725-.507-1.06-.953-1.224a7.399 7.399 0 00-.799-.224l-.866-.203c-1.199-.311-2.068-.734-2.068-1.93 0-1.271 1.291-2.105 2.804-2.105 1.792 0 2.618.889 2.807 1.895h-1.075a1.5 1.5 0 00-.136-.346c-.251-.453-.757-.811-1.636-.811-.576 0-1.606.228-1.732 1.15-.102.723.513 1.035.93 1.186.428.153 1.026.258 1.625.418 1.16.31 2.05.762 2.061 2.011zm7.535-2.944c0 1.009-.473 1.772-1.386 2.188l-.423.193.1.211 1.139 2.264h-1.058l-1.143-2.455-.061-.133h-1.973v2.588h-.985v-7.187h3.686c1.171.001 2.104.98 2.104 2.331zm-1.03-.021c-.036-.672-.45-1.51-1.372-1.51h-2.423v3.082h2.423c.907.001 1.408-.91 1.372-1.572zm8.915 4.877h-1.047l-.435-1.241-.052-.149h-3.828l-.052.149-.436 1.241h-1.06l2.527-6.959.259-.236h1.273l.309.211 2.542 6.984zm-3.229-6.136l-.204-.135-.221.13-1.465 3.964h3.329l-1.439-3.959zm11.73 6.148h-1.076l-.009-4.958-.176-.126-.245.135-2.017 3.373-2.008-3.231-.223-.14-.193.122v4.825h-1.141v-7.202l1.376.009 1.956 3.393.189.078.197-.076 2.072-3.395 1.297-.01v7.203h.001z"/><path fill="#2B4972" d="M125.966 51.25c0 2.304-1.375 3.783-3.455 3.783-2.07 0-3.465-1.482-3.465-3.783 0-2.279 1.51-3.801 3.465-3.801 2.004-.009 3.455 1.446 3.455 3.801zm-.966-.017c0-1.385-.65-3.065-2.489-3.065-1.857 0-2.511 1.738-2.511 3.074 0 1.342.717 3.028 2.5 3.028 1.805 0 2.5-1.756 2.5-3.037zm2.454 1.887h.945c.098.373.332.662.614.866.399.287.913.424 1.387.418.516-.008 1.684-.098 1.828-1.293.09-.752-.528-1.097-.978-1.262a6.428 6.428 0 00-.801-.227l-.867-.205c-1.198-.307-2.042-.727-2.042-1.893 0-1.24 1.267-2.068 2.769-2.068 1.749 0 2.565.855 2.762 1.824h-.999a1.354 1.354 0 00-.136-.326c-.256-.465-.776-.836-1.667-.836-.576 0-1.643.23-1.771 1.188-.104.748.536 1.075.953 1.224.433.153 1.028.26 1.627.42 1.161.308 2.021.751 2.039 1.973.011 1.18-1.134 2.115-2.811 2.115-1.654 0-2.314-.598-2.602-1.115a2.36 2.36 0 01-.25-.803zm13.198-3.14c0 .992-.466 1.74-1.362 2.152l-.46.208.12.245 1.107 2.213h-.971l-1.132-2.438-.072-.153h-2.032v2.591h-.912v-7.117h3.651c1.142.003 2.063.964 2.063 2.299zm-.951-.028c-.042-.676-.46-1.539-1.414-1.539h-2.458v3.158h2.458c.933 0 1.444-.944 1.414-1.619zm8.817 4.847h-.964l-.425-1.218-.062-.177h-3.88l-.063.177-.425 1.218h-.981l2.508-6.901.239-.222h1.25l.286.199 2.517 6.924zm-3.138-6.114l-.001-.014-.012-.005-.223-.152-.251.156-1.488 4.021h3.436l-1.461-4.006zm11.658 6.121h-1.003l-.008-4.915v-.021l-.214-.155-.269.154-.011.01-1.981 3.32-1.975-3.18-.004-.008-.25-.154-.238.143v4.806h-1.06v-7.128l1.318.012 1.946 3.371.002.014.217.09.225-.084.008-.012 2.06-3.379 1.238-.012v7.128h-.001z"/><path fill="none" stroke="#586F95" stroke-width=".181" stroke-miterlimit="2.613" d="M126.003 51.25c0 2.319-1.385 3.82-3.492 3.82-2.093 0-3.501-1.501-3.501-3.82 0-2.297 1.524-3.839 3.501-3.839 2.032-.008 3.492 1.465 3.492 3.839h0zm-1.041-.017c0-1.38-.644-3.027-2.451-3.027-1.823 0-2.474 1.706-2.474 3.036 0 1.34.71 2.99 2.463 2.99 1.774 0 2.462-1.724 2.462-2.999h0zm8.193 1.689c.012 1.207-1.156 2.154-2.846 2.154-1.665 0-2.334-.606-2.635-1.133a2.285 2.285 0 01-.26-.819l-.001-.04h1.016c.09.371.324.668.606.875.391.281.895.412 1.363.406.52-.008 1.65-.102 1.788-1.258.091-.729-.501-1.059-.949-1.224a6.763 6.763 0 00-.8-.224l-.867-.207c-1.196-.305-2.066-.735-2.066-1.929 0-1.269 1.291-2.106 2.804-2.106 1.792 0 2.623.893 2.807 1.898h-1.072a1.688 1.688 0 00-.142-.346c-.251-.452-.752-.814-1.633-.814-.579 0-1.608.229-1.732 1.154-.101.719.511 1.035.931 1.187.428.151 1.02.259 1.624.418 1.161.31 2.05.76 2.064 2.008h0zm7.536-2.942c0 1.006-.478 1.766-1.387 2.184l-.425.197.106.207 1.133 2.266h-1.055l-1.145-2.458-.062-.128h-1.97v2.586h-.987v-7.188h3.689c1.168 0 2.103.981 2.103 2.334h0zm-1.028-.022c-.038-.671-.452-1.507-1.375-1.507h-2.42v3.082h2.42c.906 0 1.405-.916 1.375-1.575h0zm8.909 4.877h-1.044l-.433-1.238-.051-.154h-3.831l-.054.154-.432 1.238h-1.062l2.527-6.96.257-.239h1.277l.308.213 2.538 6.986h0zm-3.229-6.14l-.2-.137-.224.137-1.461 3.959h3.326l-1.441-3.959h0zm11.733 6.148h-1.077l-.012-4.952-.174-.129-.245.135-2.016 3.373-2.007-3.232-.223-.136-.202.12v4.82h-1.136v-7.201l1.379.012 1.951 3.392.188.077.197-.07 2.074-3.398 1.299-.012v7.201h.004z"/><path fill="#E27E3B" d="M21.578 51.406c0 6.921-4.243 11.676-10.776 11.676C4.306 63.082 0 58.327 0 51.406c0-6.88 4.64-11.723 10.801-11.723 6.314-.023 10.777 4.644 10.777 11.723zm-5.323-.045c0-3.584-1.612-7.034-5.453-7.034-3.889 0-5.521 3.604-5.521 7.056 0 3.431 1.765 6.944 5.499 6.944 3.754.001 5.475-3.669 5.475-6.966zm24.868 4.602c.042 4.289-4.063 7.145-9.01 7.145-9.833 0-9.167-7.318-9.209-7.919h5.212c-.223 2.275 2.119 3.537 4.216 3.491 1.545-.02 3.446-.305 3.689-2.342.485-4.09-12.809-1.149-12.809-9.641 0-4.517 4.505-6.991 8.901-6.991 6.225 0 9.01 3.69 9.01 7.652h-5.368s.263-3.164-3.756-3.164c-1.567 0-3.313.616-3.508 2.078-.535 3.828 12.518.997 12.632 9.691zm20.578-8.031c0 3.23-1.566 5.752-4.5 7.102l3.709 7.406h-5.675l-3.292-7.075h-3.356v7.075h-5.171V40.326h11.307c3.978 0 6.978 3.341 6.978 7.606zm-5.276 0c-.086-1.547-.973-2.942-2.518-2.942h-5.388v5.952h5.388c1.522-.002 2.586-1.637 2.518-3.01zm27.34 14.507H78.27l-1.327-3.799H68.24l-1.325 3.799h-5.539l8.037-22.138h6.314l8.038 22.138zm-8.391-8.423l-2.761-8.099v.05l-2.822 8.049h5.583zm31.095 8.447h-5.406l-.023-12.207-5.411 9.044-5.411-8.71v11.873h-5.587V40.302l5.718.045 5.167 8.979 5.479-8.979 5.475-.045v22.161h-.001z"/></svg>