<svg xmlns="http://www.w3.org/2000/svg" viewBox="0 0 160 100"><path fill="#0B5ED7" d="M54.277 36.588h-8.596v11.193h-8.948V36.588h-8.596v28.161h8.596V53.672h8.948v11.077h8.596V36.588zM84.18 59.091V36.588h-8.597v28.161h15.543l1.292-5.659-8.238.001zM69.229 36.588h-8.596v28.161h8.596V36.588zm34.848 0h-8.592v28.161h8.592V36.588zm42.381 7.187c0-1.532 1.532-2.241 4.002-2.241 2.709 0 5.654.592 7.655 1.421l-.704-6.131c-2.241-.472-4.242-.824-7.888-.824-6.947 0-11.657 2.741-11.657 8.484 0 9.897 13.426 7.896 13.426 12.491 0 1.764-1.301 2.705-4.478 2.705-2.822 0-7.184-.941-9.773-2.238l.944 6.484c2.589.943 6.119 1.412 8.948 1.412 7.179 0 13.066-2.357 13.066-9.428.001-9.421-13.541-7.656-13.541-12.135m-24.249 14.26c8 0 13.067-4.127 13.067-11.314 0-7.892-5.415-10.721-14.247-10.721-3.413 0-7.535.236-10.477.588v28.161h8.596v-6.714h3.061zm4.591-11.194c0 3.65-1.766 6.128-6.243 6.128h-1.408V41.331c.5-.028.968-.028 1.408-.028 4.237-.001 6.243 2 6.243 5.538M11.657 58.035c8.004 0 13.066-4.127 13.066-11.314C24.724 38.829 19.309 36 10.481 36c-3.418 0-7.536.236-10.481.588v28.161h8.596v-6.714h3.061zm4.594-11.194c0 3.65-1.769 6.128-6.243 6.128H8.596V41.331c.5-.028.973-.028 1.413-.028 4.238-.001 6.242 2 6.242 5.538"/></svg>