<svg xmlns="http://www.w3.org/2000/svg" viewBox="0 0 160 100"><path fill="#EF7C00" d="M2.721 65.303h28.848V38.087H2.721v27.216zm22.877-16.606c0-1.927-1.301-3.266-3.139-3.266h-2.79v6.532h2.898c1.907 0 3.031-1.359 3.031-3.266m-2.79-6.235c3.343 0 5.768 2.051 5.768 6.235 0 4.206-2.848 6.235-5.768 6.235h-3.139v5.996h-2.97V45.431H9.277v15.498H6.309V42.462h16.499zM0 35.366h34.291v32.659H0V35.366z"/><path fill="#181716" d="M156.691 66.966v-3.879h.52v2.849l-.008.361.235-.381h.002l1.992-2.818.007-.01h.559v3.9h-.517v-2.85l.006-.361-.236.373-.001.002-1.99 2.826-.009.01h-.56v-.022zm-3.563 0v-3.879h.52V64.778l1.75-1.686.007-.006h.674l-.042.04-1.876 1.78 2.079 2.043.041.039H155.545l-.006-.008-1.891-1.892v1.899h-.519l-.001-.021zm-4.464 0v-3.879h.518v2.849l-.006.361.233-.381h.002l1.991-2.818.007-.01h.561v3.9h-.519v-2.85l.007-.361-.235.373-.001.002-1.991 2.826-.009.01h-.558v-.022zm-3.262-3.043c-.179.244-.305.603-.305 1.11 0 .514.124.875.303 1.119.243.332.583.451.836.451.255 0 .596-.119.839-.451.178-.244.305-.605.305-1.119 0-.508-.127-.866-.305-1.11a1.064 1.064 0 00-.839-.452c-.253 0-.593.122-.834.452m-.307 2.721v1.99h-.52v-4.779l-.029-.745-.001-.023H145.043v.754c.08-.196.217-.427.447-.591a1.24 1.24 0 01.748-.223c.535 0 .954.189 1.238.531.293.349.447.854.447 1.475 0 .659-.174 1.139-.445 1.463-.319.382-.772.552-1.24.552-.254 0-.482-.072-.677-.198a1.498 1.498 0 01-.478-.521l.012.315zm-4.106-3.136V63.087h2.924V63.531H142.712V66.988h-.52v-3.457h-1.204l.001-.023zm-3.186 3.458v-3.879h.519V64.778l1.749-1.686.008-.006h.675l-.041.04-1.877 1.78 2.08 2.043.04.039H140.222l-.007-.008-1.893-1.892v1.899h-.518l-.001-.021zm-3.232-3.142c-.218.248-.332.596-.344.931h2.177l.001-.026c0-.172-.022-.482-.159-.752-.134-.267-.38-.494-.829-.505h-.035c-.349-.001-.62.14-.811.352m2.376 1.201v.173H134.228v.004c0 .236.049.584.228.873.176.287.482.52.998.527h.03c.194 0 .384-.012.574-.05a2.14 2.14 0 00.565-.194l.034-.018v.489l-.015.007a2.596 2.596 0 01-.584.169 3.643 3.643 0 01-.582.043c-.561 0-1.012-.189-1.32-.548-.303-.352-.47-.866-.47-1.527 0-.601.171-1.079.46-1.411.301-.348.733-.535 1.238-.535.729 0 1.12.332 1.329.75.207.414.234.913.234 1.248m-6.556-.855V63.086h2.585v3.901h-.517V63.53h-1.547v.691l.001.357c.007 1.324.014 2.469-.935 2.469-.07 0-.145-.002-.219-.008a1.238 1.238 0 01-.215-.039l-.017-.004V66.566l.03.008a.503.503 0 00.16.029c.612 0 .682-.646.682-1.56l-.003-.409c-.003-.15-.005-.306-.005-.464m-8.315.879h-.938v1.496h.938c.104 0 .333-.004.535-.099.2-.095.375-.281.375-.653 0-.365-.173-.55-.371-.645a1.297 1.297 0 00-.539-.099m-1.458 1.916v-3.878h.519v1.519h.975c.143 0 .493.006.81.155.319.151.604.45.604 1.032 0 .586-.286.887-.606 1.038-.317.149-.669.155-.808.155h-1.496v-.021h.002zm-3.743-2.795V63.086H119.46v3.899h-.519V63.53h-1.546v1.048c.007 1.322.015 2.467-.934 2.467-.072 0-.144-.002-.217-.008h-.001a1.221 1.221 0 01-.215-.037l-.016-.006V66.563l.03.008a.381.381 0 00.079.021v.001a.445.445 0 00.079.009c.613 0 .683-.646.683-1.56l-.003-.409c-.002-.149-.005-.305-.005-.463m-3.546-.346c-.219.248-.333.596-.345.93h2.177v-.023c0-.172-.023-.484-.157-.754-.133-.267-.381-.495-.832-.505l-.034-.001c-.351 0-.619.14-.809.353m2.375 1.201v.173h-2.722v.004c0 .236.05.584.228.873.176.287.486.52 1.001.528h.029c.193 0 .383-.013.573-.05.189-.037.377-.1.563-.195l.035-.018v.49l-.015.007a2.541 2.541 0 01-.584.168 3.535 3.535 0 01-.583.043c-.56 0-1.011-.189-1.32-.548-.302-.351-.469-.865-.469-1.526 0-.6.171-1.079.461-1.412h-.001c.302-.348.735-.535 1.24-.535.727 0 1.12.332 1.327.752.209.412.237.911.237 1.246m-6.369-1.517V63.087h2.925V63.531H111.059v3.455h-.519v-3.455h-1.204v-.023h-.001zm-3.936 3.457v-3.878h.519v2.849l-.007.359.235-.379 1.992-2.818.007-.01h.562V66.986h-.519v-2.848l.007-.361-.236.373v.002l-1.993 2.826-.006.008h-.56v-.021h-.001zm-3.382-1.33c-.07.296-.188.576-.378.91h2.05v-3.014h-1.579v1.059c-.001.415-.023.738-.093 1.045m-.428-1.053v-1.496h2.614v3.459H104.768v1.48h-.519v-1.039h-3.118v1.039h-.518v-1.48h.431c.219-.326.356-.623.436-.932.083-.312.109-.642.109-1.031m-3.709-.689c-.249.308-.362.741-.362 1.148 0 .402.112.836.363 1.143.203.252.5.42.9.42.398 0 .695-.168.9-.42.248-.307.361-.74.361-1.143 0-.407-.112-.841-.361-1.148a1.112 1.112 0 00-.9-.422c-.401 0-.699.169-.901.422m-.41 2.601c-.314-.35-.496-.852-.496-1.453 0-.607.18-1.11.495-1.462.314-.353.767-.552 1.311-.552.543 0 .996.199 1.311.552.313.352.493.854.493 1.462 0 .602-.181 1.104-.496 1.453-.315.354-.767.553-1.308.553-.54 0-.994-.199-1.31-.553m-2.412-1.309h-.997v1.36h1.074c.268 0 .462-.07.594-.176a.601.601 0 00.224-.479.646.646 0 00-.236-.521c-.142-.113-.356-.184-.659-.184m0-1.654h-.997v1.208h.997c.038 0 .223 0 .397-.071a.505.505 0 00.333-.498.624.624 0 00-.196-.474c-.112-.096-.28-.165-.534-.165m-1.516 3.434v-3.878h1.548c.39 0 .685.105.885.277.224.191.332.467.332.77a.838.838 0 01-.143.492.977.977 0 01-.365.299.904.904 0 01.491.331c.131.174.206.396.206.636 0 .545-.29.82-.601.958a1.843 1.843 0 01-.721.138h-1.63v-.021h-.002zm-2.45-1.78h-.399V64.741h.399c.442 0 .665-.126.774-.269a.6.6 0 00.112-.377.532.532 0 00-.228-.459c-.157-.11-.39-.164-.667-.164-.181 0-.346.023-.5.061a2.293 2.293 0 00-.429.155l-.032.015v-.035l-.018-.412v-.018l.016-.006c.172-.068.34-.121.504-.152.175-.036.343-.051.503-.051.445 0 .773.106.995.277.257.198.375.48.375.781a.913.913 0 01-.155.529.85.85 0 01-.397.307c.176.045.389.139.541.328.117.148.198.354.198.64 0 .329-.136.636-.427.853-.254.188-.626.305-1.128.305-.156 0-.356-.016-.584-.066a3.131 3.131 0 01-.584-.19l-.017-.006.002-.018.053-.437.005-.035.03.018c.172.096.347.17.528.219.18.048.371.072.572.072.262 0 .545-.063.743-.203a.602.602 0 00.266-.512c0-.302-.12-.477-.308-.577-.191-.103-.457-.129-.743-.129m-5.232 1.78v-3.878h.519v2.849l-.007.359.235-.379 1.991-2.818.007-.01h.562V66.986h-.52v-2.848l.008-.361-.238.373v.002l-1.989 2.826-.01.008h-.558v-.021zm-3.296-3.072c-.249.308-.363.741-.363 1.148 0 .402.113.836.363 1.143.205.252.501.42.9.42s.695-.168.899-.42c.248-.307.363-.74.363-1.143 0-.407-.114-.841-.362-1.148a1.113 1.113 0 00-.9-.422 1.11 1.11 0 00-.9.422m-.409 2.601c-.314-.35-.494-.852-.494-1.453 0-.607.179-1.11.493-1.462.314-.353.766-.552 1.311-.552.543 0 .996.199 1.311.552.314.352.494.854.494 1.462 0 .602-.182 1.104-.496 1.453-.315.354-.768.553-1.309.553-.542 0-.995-.199-1.31-.553m-3.646-2.571c-.179.243-.306.603-.306 1.11 0 .514.127.875.304 1.119.242.332.584.451.838.451s.594-.119.836-.451c.179-.244.306-.605.306-1.119 0-.507-.128-.867-.306-1.11a1.06 1.06 0 00-.836-.452c-.253 0-.593.122-.836.452m-.305 2.72v1.99h-.518v-4.779l-.03-.745-.001-.023H78.152v.754c.079-.196.216-.427.447-.591.183-.133.427-.223.748-.223.534 0 .953.189 1.239.531.292.348.445.854.445 1.475 0 .658-.175 1.137-.444 1.461-.317.382-.771.553-1.239.553a1.24 1.24 0 01-.678-.197 1.513 1.513 0 01-.477-.523l.011.317zm-4.714.322v-3.878h3.007v3.899h-.518v-3.455h-1.968v3.455h-.519l-.002-.021zm-6.044-4.875a1.55 1.55 0 01-.505-.439l-.011-.015.011-.015.228-.263.016-.021.019.021c.158.191.323.297.471.354.147.055.282.065.382.065s.235-.01.383-.065c.147-.058.312-.163.47-.354l.017-.021.019.021.226.263.011.015-.009.015c-.14.187-.313.336-.506.439-.188.101-.396.156-.61.156s-.424-.056-.612-.156m-1.044 4.875v-3.878h.52v2.849l-.007.359.234-.379 1.992-2.818.007-.01h.56V66.986h-.518v-2.848l.008-.361-.237.373-.001.002-1.992 2.826-.007.008h-.56v-.021h.001zm-4.463 0v-3.878h.519v2.849l-.007.359.236-.379 1.99-2.818.007-.01h.562V66.986h-.519v-2.848l.007-.361-.236.373v.002l-1.99 2.826-.008.008h-.561v-.021zm-3.563 0v-3.878h.52V64.776l1.75-1.684.006-.006h.676l-.042.04-1.877 1.779 2.08 2.043.04.038H60.796l-.007-.006-1.892-1.892V66.985h-.519v-.021h-.002zm-1.231-3.912c.158.02.348.057.557.125l.017.006-.002.018-.021.421-.005.032-.029-.012a2.253 2.253 0 00-.885-.179c-.436 0-.791.157-1.037.429-.252.278-.391.676-.391 1.148 0 .514.151.891.391 1.145.276.291.67.426 1.089.426.107 0 .236-.008.378-.031.144-.023.301-.065.462-.132l.028-.012.003.031.046.405.001.018-.016.007c-.158.06-.307.1-.453.12a2.848 2.848 0 01-.45.031c-.624 0-1.125-.199-1.471-.544-.357-.354-.55-.862-.55-1.464 0-.547.18-1.086.551-1.467.323-.332.791-.547 1.41-.547.088 0 .217.003.377.026m-3.307 0c.158.02.348.057.556.125l.018.006-.001.018-.023.421-.002.032-.03-.012a2.263 2.263 0 00-.885-.179c-.436 0-.789.157-1.035.429-.252.278-.392.676-.392 1.148 0 .514.152.891.392 1.145.276.291.668.426 1.088.426.107 0 .237-.008.377-.031a2.1 2.1 0 00.463-.132l.027-.012.003.031.045.405.002.018-.016.007c-.159.06-.307.1-.452.12a2.857 2.857 0 01-.45.031c-.625 0-1.125-.199-1.471-.544-.357-.354-.551-.862-.551-1.464 0-.547.181-1.086.552-1.467.324-.332.792-.547 1.409-.547.088 0 .217.003.376.026m-5.348 5.565a1.377 1.377 0 01-.235-.046l-.018-.006.002-.019.044-.421.004-.029.027.012c.062.02.13.033.195.041.066.006.131.009.188.009a.407.407 0 00.332-.147c.083-.097.145-.242.204-.424l.163-.496-1.388-3.975-.011-.031h.552l.006.016 1.014 2.939.102.327.103-.319.977-2.947.005-.016h.538l-.01.031-1.646 4.727c-.079.229-.175.425-.311.565a.739.739 0 01-.561.224c-.089 0-.182-.003-.276-.015m-2.662-6.464h-.751v2.135h.751c.14 0 .422-.014.666-.152.244-.141.454-.406.454-.914 0-.53-.247-.799-.509-.93a1.402 1.402 0 00-.611-.139m-1.294 4.811V61.682h1.39c.49 0 .887.152 1.164.42.282.27.438.659.438 1.121 0 .463-.155.854-.437 1.123-.274.266-.672.418-1.165.418h-.849v2.222h-.542v-.021h.001zm84.257-1.774h-1.826V64.749h1.825a1.362 1.362 0 00-.415-.93c-.229-.212-.557-.348-.991-.348-.133 0-.291.015-.461.056a2.372 2.372 0 00-.461.16l-.031.015-.001-.035-.021-.42-.001-.016.014-.008c.153-.067.3-.117.457-.148.158-.033.321-.047.508-.047.643 0 1.108.201 1.423.525.361.371.524.901.524 1.473 0 .643-.205 1.135-.539 1.471-.366.368-.889.552-1.476.552a2.29 2.29 0 01-.483-.053 3.25 3.25 0 01-.418-.13l-.016-.006v-.016l.016-.421.001-.034.031.014c.144.068.289.117.438.15s.307.051.478.051c.447 0 .782-.154 1.016-.388.267-.27.4-.651.409-1.025M123.087 50.815h2.084c.934 0 1.845.335 1.845 1.417 0 .951-.85 1.299-1.673 1.299h-2.257l.001-2.716zm0-3.764h2.084c.821 0 1.469.368 1.469 1.265 0 .843-.75 1.11-1.469 1.11h-2.084v-2.375zm-1.563-1.39v9.261h3.904c1.715 0 3.201-.801 3.201-2.689 0-.842-.399-1.674-1.125-2.125l-.19-.117.171-.145c.495-.42.718-.968.718-1.616 0-1.735-1.354-2.569-2.964-2.569h-3.715zM118 50.473v.392c0 1.595-.793 2.804-2.495 2.804-.819 0-1.487-.555-1.487-1.4 0-1.674 2.013-1.795 3.25-1.795H118zm.172 4.449h1.448l-.057-2.169v-3.719c.002-2.229-1.042-3.509-3.338-3.509-.947 0-1.851.187-2.716.567l-.145.064v1.593l.359-.198a5.235 5.235 0 012.502-.636c1.326 0 1.756.787 1.775 2.002l.003.165h-.325c-2.252 0-5.271.34-5.271 3.252 0 1.8 1.445 2.724 3.115 2.724.887 0 1.72-.238 2.376-.846l.274-.252v.962zm-12.057-9.261h-1.563v9.261h1.563v-4.055l4.055 4.055h2.213l-5.017-4.926 4.571-4.335h-2.09l-3.732 3.59v-3.59zm-9.963 11.341l-.158 1.465.196.056c.389.11.811.146 1.213.146 1.234 0 1.792-.864 2.161-1.925l3.859-11.083h-1.627l-2.327 7.021-2.424-7.021h-1.661l3.252 9.312-.351 1.07c-.17.518-.37 1.167-1.035 1.167-.267 0-.558-.017-.811-.106l-.287-.102zm-7.559-6.719c0-.942.203-1.968.875-2.67.395-.413.959-.697 1.537-.697.576 0 1.141.285 1.536.697.673.702.875 1.728.875 2.67 0 .945-.197 1.986-.875 2.693-.395.412-.96.691-1.536.691-.578 0-1.142-.279-1.537-.691-.676-.706-.875-1.747-.875-2.693m-.117-4.622h-1.519l.077 1.949v11.059h1.56v-4.753l.276.268a3.023 3.023 0 002.136.875c2.773 0 4.021-2.246 4.021-4.775 0-2.576-1.199-4.758-4.021-4.758-.868 0-1.657.285-2.25.926l-.28.305v-1.096zm-11.751 0h-1.923v9.261h1.562v-6.469l2.763 6.469h1.243l2.781-6.348v6.348h1.562v-9.261h-1.752l-3.203 7.103-3.033-7.103zm-10.219 4.638c0-1.639.819-3.383 2.685-3.383s2.684 1.744 2.684 3.383-.828 3.369-2.684 3.369c-1.857 0-2.685-1.73-2.685-3.369m-1.611 0c0 2.621 1.527 4.76 4.297 4.76 2.768 0 4.296-2.139 4.296-4.76 0-2.631-1.509-4.774-4.296-4.774-2.79 0-4.297 2.143-4.297 4.774m-7.489-.016c0-.942.2-1.968.873-2.67.395-.413.959-.697 1.537-.697.577 0 1.141.285 1.536.697.673.702.874 1.728.874 2.67 0 .945-.197 1.986-.874 2.693-.395.412-.958.691-1.536.691-.579 0-1.141-.279-1.537-.691-.677-.706-.873-1.747-.873-2.693m-.121-4.622h-1.52l.08 1.949-.001 11.059h1.563v-4.753l.274.268a3.023 3.023 0 002.135.875c2.775 0 4.021-2.246 4.021-4.775 0-2.576-1.198-4.758-4.021-4.758-.867 0-1.656.284-2.249.926l-.281.305-.001-1.096zm-5.377 9.261h1.614v-12.46h-8.988v12.46h1.613V43.921h5.761v11.001z"/><path fill="none" d="M0 35.366h160v33.268H0z"/></svg>