<svg xmlns="http://www.w3.org/2000/svg" xmlns:xlink="http://www.w3.org/1999/xlink" viewBox="0 0 160 100"><path fill="#009E4D" d="M18.2 33.88c-3.66-1.626-5.84-2.255-8.007-2.255-2.274 0-3.73.814-3.73 2.072 0 3.796 12.879 2.727 12.879 11.51 0 4.842-4.063 7.656-9.708 7.656-4.427 0-6.607-1.146-9.12-2.443v-5.432c3.623 2.4 5.84 3.247 8.634 3.247 2.423 0 3.729-.848 3.729-2.326 0-4.134-12.88-2.62-12.88-11.662 0-4.362 3.769-7.248 9.636-7.248 2.833 0 5.386.594 8.563 1.96l.003 4.92M36.232 51.71c-2.148.777-3.963 1.15-5.774 1.15-5.999 0-9.876-3.495-9.876-8.81 0-5.218 4.027-8.905 9.652-8.905 1.738 0 3.96.445 5.737 1.108v3.994c-1.407-.747-3.035-1.157-4.368-1.157-3.22 0-5.291 1.935-5.291 4.92 0 3.028 2.036 5.022 5.104 5.022 1.295 0 2.446-.297 4.815-1.184v3.861M82.998 42.092c.22-2.372 1.596-3.743 3.706-3.743 2.074 0 3.478 1.409 3.7 3.743h-7.406zm3.335-6.942c-5.264 0-9.01 3.717-9.01 8.95 0 5.27 3.896 8.758 9.901 8.758 1.33 0 4.547 0 7.612-2.269v-3.336c-2.51 1.789-4.172 2.404-6.314 2.404-3.383 0-5.451-1.75-5.639-4.739H95.14c.255-6.234-3.838-9.768-8.806-9.768M97.213 52.548h5.359V35.465h-5.359v17.083zM117.483 47.88c-1.116 1.004-2.044 1.407-3.187 1.407-2.523 0-4.12-2.077-4.12-5.189 0-3.411 1.597-5.376 4.297-5.376.966 0 2.229.445 3.011 1.002v8.155zm0-20.565v8.9c-1.446-.7-2.891-1.068-4.45-1.068-4.887 0-8.27 3.612-8.27 8.84 0 5.115 3.384 8.876 7.969 8.876 1.819 0 3.224-.475 4.751-1.694v1.374h5.359V27.315h-5.359M130.773 42.092c.224-2.372 1.593-3.743 3.698-3.743 2.077 0 3.496 1.409 3.717 3.743h-7.415zm3.333-6.942c-5.262 0-9.002 3.717-9.002 8.95 0 5.27 3.895 8.758 9.894 8.758 1.329 0 4.553 0 7.625-2.269v-3.336c-2.514 1.789-4.177 2.404-6.331 2.404-3.364 0-5.443-1.75-5.63-4.739h12.25c.256-6.234-3.844-9.768-8.806-9.768"/><g transform="matrix(1.25 0 0 -1.25 -509.963 159.04)"><defs><path id="a" d="M407.971 105.632V67.846H535.97v37.786"/></defs><clipPath id="b"><use xlink:href="#a" overflow="visible"/></clipPath><g clip-path="url(#b)" fill="#009E4D"><path d="M528.718 94.947h.063c1.272 2.844 2.696 4.178 4.35 4.178.857 0 1.595-.327 2.839-1.246l-1.18-3.789c-1.126.71-1.865 1.007-2.545 1.007-1.573 0-2.58-1.483-3.527-3.989v-5.894h-4.293v13.662h4.293v-3.929M490.229 104.609c.402-1.062-.322-2.543-1.614-3.305-1.296-.762-2.666-.52-3.066.542-.407 1.064.314 2.546 1.609 3.304 1.294.765 2.665.523 3.071-.541"/></g></g><path fill="#009E4D" d="M55.533 41.675c0-4.628-3.146-6.525-6.251-6.525-2.111 0-3.846.892-5.399 2.855h-.074v-10.69h-5.363v25.182h5.363V41.675c1.255-1.815 2.327-2.59 3.583-2.59 1.669 0 2.776 1.185 2.776 3.738v6c1.799-.924 3.628-1.491 5.364-1.704l.001-5.444M68.987 35.145c-2.185 0-3.853.813-5.561 2.765v-2.443h-5.362v11.607c1.858.185 4.227 1.038 5.362 2.444V41.54c1.41-2.115 2.41-2.82 3.743-2.82 1.52 0 2.674 1.003 2.674 3.412v10.37h5.363V41.688c0-5.03-3.553-6.543-6.22-6.543M78.168 57.408h-6.231v4.427h6.011v1.9h-6.011v4.567h6.417v1.897h-8.506V55.513h8.321v1.895M83.257 70.21h1.909V55.507h-1.91v14.701zM94.616 61.974c1.352 0 2.192.934 2.255 2.399h-4.862c.264-1.531 1.144-2.399 2.607-2.399zm-2.64 3.674h6.8c0-3.585-1.64-5.315-4.203-5.315-2.661 0-4.509 1.967-4.509 4.9 0 2.682 1.67 5.159 4.674 5.159 1.64 0 2.698-.364 3.87-1.142v-1.858c-1.134.742-2.231 1.17-3.387 1.17-1.85-.003-2.948-.994-3.245-2.914M111.238 63.06c-1.097-.75-1.83-.972-2.666-.972-1.748 0-2.958 1.341-2.958 3.304 0 1.998 1.288 3.203 3.278 3.203.817 0 1.596-.212 2.56-.642v1.882c-.643.302-1.868.555-2.88.555-2.89 0-4.896-1.988-4.896-4.828 0-3.205 1.833-5.23 4.766-5.23 1.12 0 1.872.261 2.797.667v2.061M119.934 60.518h3.064v1.72h-3.064v4.971c0 1.14.825 1.468 1.38 1.468.692 0 1.404-.243 2.177-.719v1.79c-.67.369-1.7.644-2.33.644-2.08 0-3.13-1.292-3.13-3.038v-5.116h-1.682v-.214l3.585-3.507v2.001M130.297 60.518v2.242h.039c.973-1.716 1.898-2.427 2.8-2.427.777 0 1.505.365 2.305 1.121l-1.013 1.684c-.58-.575-1.332-.971-1.786-.971-1.314 0-2.345 1.335-2.345 2.991v5.052h-1.908v-9.69h1.908M155 63.06c-1.103-.75-1.836-.972-2.677-.972-1.742 0-2.942 1.341-2.942 3.304 0 1.998 1.288 3.203 3.265 3.203.82 0 1.593-.212 2.57-.642v1.882c-.658.302-1.885.555-2.893.555-2.886 0-4.901-1.988-4.901-4.828 0-3.205 1.841-5.23 4.775-5.23 1.122 0 1.869.261 2.802.667v2.061M140.5 70.21h1.91v-9.692h-1.91v9.691z"/><g transform="matrix(1.25 0 0 -1.25 -509.963 159.04)"><defs><path id="c" d="M407.971 105.632V67.846H535.97v37.786"/></defs><clipPath id="d"><use xlink:href="#c" overflow="visible"/></clipPath><g clip-path="url(#d)" fill="#009E4D"><path d="M521.949 81.603c.149-.374-.112-.904-.571-1.173-.462-.27-.953-.183-1.092.191-.139.378.114.903.577 1.173.46.276.946.188 1.086-.191M453.602 80.977c-.27 0-.383-.044-.493-.167-.043-.048-.061-.096-.077-.195l-1.369-5.191c-.321-1.821-2.559-3.64-5.475-3.64h-4.054l.704 2.669h2.604c.266 0 .474.098.648.292.064.076.147.194.159.314l1.08 4.537c.32 1.822 2.244 3.834 5.16 3.834h4.152l-.531-2.454h-2.508v.001zm.936-3.165l.464 1.68h4.218c.521 2.437.111 4.693-1.367 6.171-2.992 2.993-9.252 1.976-13.916-2.486-.728-.693-1.343-1.442-1.904-2.208h2.54l-.591-1.684h-3.034c-.29-.53-.562-1.056-.77-1.591h3.598l-.576-1.684h-3.535c-.604-2.573-.219-4.973 1.302-6.496 2.955-2.955 9.196-1.916 13.857 2.545.815.777 1.489 1.614 2.098 2.473h-3.263l.498 1.681h3.814c.28.534.537 1.063.738 1.597h-4.171"/></g></g></svg>