<svg xmlns="http://www.w3.org/2000/svg" viewBox="0 0 160 100"><path fill="none" stroke="#005088" stroke-width=".534" stroke-miterlimit="22.926" d="M157.068 37.868A2.937 2.937 0 00160 34.934c0-1.616-1.316-2.934-2.932-2.934s-2.933 1.318-2.933 2.934a2.939 2.939 0 002.933 2.934z"/><path fill="#004784" d="M137.58 44.486v4.131l-2.863 5.265 2.863-4.855v4.512l-.186.343.186-.314v1.443h-4.217v-3.375l4.217-7.15zm0-4.541v3.748l-4.216 7.754v-4.351l4.216-7.151zm0-4.541v3.363l-4.216 7.755v-3.967l4.216-7.151zm-1.927-1.274l1.776-.004-4.065 7.472v-3.557h-.016l2.305-3.911zm-2.683.012c.131-.001.26-.003.394-.003l1.381-.006-2.13 3.921c-.781.033-1.488.132-2.124.294l2.479-4.206zm-11.046 8.796c.291-2.974 1.493-5.319 3.719-6.838l-3.719 6.838zm-.067 5.05v-3.516h-.005c0-.194.004-.385.009-.575l5.016-8.505a11.618 11.618 0 012.257-.788l-7.277 13.384zm0 4.924v-4.465l8.285-14.051c.6-.103 1.231-.175 1.901-.216l-2.415 4.441c-2.373.924-3.5 2.917-3.491 5.728v.69l-4.28 7.873zm4.286 2.086h-4.285V52.99l4.279-7.262.004 4.231-2.134 3.923 2.134-3.617.002 4.733zm-7.991-9.352v4.229l-2.18 4.008 2.18-3.697v4.842h-3.934v-2.711l3.934-6.671zm0-4.542v3.846l-3.934 7.237v-4.411l3.934-6.672zm0-4.54v3.462l-3.934 7.235v-4.025l3.934-6.672zm-16.61-.768v-1.655h.899l-.899 1.655zm0 5.233v-3.824l1.806-3.064h1.938l-3.744 6.888zm0 4.923v-3.92l3.981-6.756v3.352l-3.981 7.324zm0 4.925v-4.306l3.981-6.753v3.734l-3.981 7.325zm0 4.152v-3.918l3.981-6.754v3.677l2.269-3.732-5.209 9.581 11.644-19.741h1.771L105.26 53.883l11.644-19.741h1.247v.959l-3.934 7.235v-.956l-8.453 13.649h-4.222zM83.708 34.123h-1.539v2.827l1.539-2.827zm2.677 0h-1.771l-2.098 3.559h1.932l1.937-3.559zm2.678 0h-1.771l-2.098 3.559h1.934l1.935-3.559zm2.678 0h-1.77l-2.098 3.559h.514v2.609l3.354-6.168zm2.676 0H92.65l-4.264 7.228v3.864l6.031-11.092zm4.166 3.558h.18v-.304l-.18.304zm-2.678 0h1.932l.926-1.698v-1.86h-.757l-2.101 3.558zm-2.676 0h1.933l1.936-3.559h-1.769l-2.1 3.559zm-.609 4.671V38.71l-4.233 7.182v4.247l4.233-7.787zM88.387 55h4.233v-2.668l-.914 1.551.914-1.682v-4.41l-3.592 6.092 3.592-6.605v-4.026l-4.233 7.181V55zm-9.995-1.244c.31-.352.554-.761.714-1.211l-.714 1.211zm-21.476-19.61h-2.497v4.594l2.497-4.594zm1.736 1.73v-1.73h-.829L54.42 39.92v3.742l4.232-7.786zm0 4.924v-3.521l-4.233 7.182v4.127l4.233-7.788zm0 4.925V41.82L54.419 49v2.283c0 .564.126 1.1.351 1.581l3.882-7.139zm6.297-11.579h-.239v.443l.239-.443zm2.678 0h-1.771l-1.147 1.946v3.421l2.918-5.367zm1.272 2.587v-2.587h-.364l-3.825 6.487v3.804l4.189-7.704zm0 4.926V38.07l-4.189 7.104v4.188l4.189-7.703zm6.221 8.565v.286c0 .463-.316.857-.75.985l-1.409 2.388 1.283-2.359c-.059.01-.119.016-.181.016h-2.396l-1.384 2.344 1.275-2.344h-2.571l-1.383 2.344 1.293-2.375v-4.357l-3.97 6.732 3.97-7.3V42.61l-4.189 7.104v1.825h-1.076l-1.383 2.344 1.275-2.344h-2.572l-1.382 2.344 1.275-2.344H59.68c-.456 0-.847-.305-.979-.72l-1.807 3.063 1.765-3.25a1.211 1.211 0 01-.008-.124V46.36l-3.86 6.549a3.771 3.771 0 003.389 2.136h17.382a3.76 3.76 0 002.814-1.271l.814-1.5c.087-.316.133-.648.133-.99v-3.65l-3.685 6.25 3.685-6.778v-4.013l-4.203 7.131zm0-4.541v4.23l4.205-7.733v-3.628l-4.205 7.131zm.54-11.537h-.54v.995l.54-.995zm2.679 0h-1.77L75.121 36.6v3.464l3.218-5.918zm.985 0h-.079l-4.126 6.996v3.848l4.205-7.732v-3.112zm75.52 8.8a6.05 6.05 0 011.717.839l-2.096 3.855a2.112 2.112 0 00-.833-.99 3.062 3.062 0 00-.77-.346l1.982-3.358zm-2.431-.419c.729.044 1.394.144 1.995.297l-1.847 3.396c-.587-.145-1.317-.219-2.189-.231l2.041-3.462zm-2.659-.029h1.716c.148 0 .293.002.436.006l-1.895 3.483h-2.314l2.057-3.489zm-2.966 0h2.439l-1.896 3.489h-1.479v2.721l-2.812 5.174 2.812-4.773v2.375h1.171l-1.306 2.398 1.416-2.398h2.567l-1.306 2.398 1.417-2.398h.129c1.139 0 1.978-.046 2.513-.139l-1.381 2.538 1.513-2.563.105-.023c.513-.133.968-.422 1.369-.871.402-.455.606-1.012.606-1.675 0-.289-.032-.555-.094-.798l2.31-3.918c.121.103.233.209.342.323.396.413.726.854.991 1.321l-4.463 8.207 4.638-7.868c.41.846.615 1.776.615 2.793 0 .118-.002.237-.008.354l-2.567 4.721 2.538-4.303c-.11 1.089-.456 2.036-1.042 2.843-.718.991-1.535 1.664-2.461 2.019-.918.353-2.25.531-3.993.531h-9.814v-3.775l5.131-8.703zm-.936-2.958v2.958h.411l-4.607 8.475v-4.315l4.196-7.118zm0-4.541v3.328l-4.196 7.721v-3.93l4.196-7.119zm-2.198-.809h1.772l-3.771 6.932v-3.545l1.999-3.387zm-1.999 0h1.093l-1.093 2.008V34.19zM156.215 34.681h1.025c.218 0 .389-.023.511-.069a.553.553 0 00.281-.214.608.608 0 00.094-.325.535.535 0 00-.184-.419c-.125-.111-.32-.166-.588-.166h-1.14l.001 1.193zm-.477 2.013v-3.606h1.598c.321 0 .565.033.734.099.167.064.3.179.398.343.101.164.151.345.151.543a.902.902 0 01-.249.647c-.167.175-.42.287-.767.335.125.059.221.12.287.178.14.13.271.29.396.479l.627.983h-.602l-.477-.751a6.406 6.406 0 00-.347-.495 1.011 1.011 0 00-.239-.24.723.723 0 00-.22-.098 1.535 1.535 0 00-.264-.017h-.553v1.602h-.473v-.002z"/><path fill="#EC1C24" d="M156.305 59.106h.434c-.026.286-.125.511-.3.674-.178.163-.406.245-.687.245-.279 0-.507-.082-.683-.245s-.276-.388-.303-.674h.435a.49.49 0 00.157.339c.091.076.223.115.395.115.174 0 .305-.039.396-.115a.479.479 0 00.156-.339m-2.4 1.154h.874v3.084l1.879-3.084h.931v4.633h-.876v-3.024l-1.873 3.024h-.936l.001-4.633zm-7.333 0h.875v3.084l1.878-3.084h.93v4.633h-.874v-3.024l-1.875 3.024h-.935V60.26h.001zm-7.363 4.633V60.26h.936v1.824h1.833V60.26h.937v4.633h-.937v-2.025h-1.833v2.025h-.936zm-4.901-1.833l-.639-1.72-.626 1.72h1.265zm1.723 1.833h-1.02l-.404-1.053h-1.852l-.381 1.053h-.992l1.805-4.633h.988l1.856 4.633zm-11.499-4.633h3.684v4.633h-.934v-3.855h-1.813v3.855h-.937V60.26zm-8.095 4.633V60.26h1.399l.843 3.161.831-3.161h1.4v4.633h-.867v-3.646l-.918 3.646h-.901l-.918-3.646v3.646h-.869zm-6.927-2.32c0 .525.123.921.363 1.192.242.271.55.406.924.406.372 0 .678-.135.918-.402.237-.27.356-.671.356-1.209 0-.531-.117-.928-.348-1.188-.233-.262-.543-.393-.927-.393-.386 0-.698.134-.935.397-.233.265-.351.663-.351 1.197m-.965.032c0-.475.069-.869.212-1.189a2.23 2.23 0 01.431-.635 1.73 1.73 0 01.6-.416c.288-.123.622-.184.999-.184.681 0 1.228.211 1.636.635.411.423.617 1.012.617 1.767 0 .747-.204 1.331-.612 1.755-.407.422-.952.633-1.63.633-.689 0-1.237-.211-1.645-.629-.405-.421-.608-1.001-.608-1.737m-6.425-2.345h.937v1.971c.208-.02.35-.074.424-.161.073-.085.188-.325.34-.72.194-.502.39-.813.585-.938.194-.121.506-.181.938-.181l.135-.003v.689l-.131-.002c-.192 0-.331.024-.42.071a.545.545 0 00-.215.216 5.047 5.047 0 00-.244.599 2.42 2.42 0 01-.184.401.945.945 0 01-.354.303c.209.06.382.178.517.357.136.178.285.431.448.758l.631 1.27h-1.1l-.554-1.197a8.514 8.514 0 01-.167-.317c-.123-.229-.221-.369-.297-.426-.078-.059-.197-.087-.354-.089v2.028h-.936l.001-4.629zm-10.146 2.8l-.639-1.72-.626 1.72h1.265zm1.723 1.833h-1.019l-.404-1.053h-1.852l-.382 1.053h-.994l1.806-4.633h.989l1.856 4.633zM82.2 60.26h3.683v4.633h-.935v-3.855h-1.813v3.855h-.937V60.26h.002zm-7.333 0h3.684v4.633h-.936v-3.855h-1.813v3.855h-.936l.001-4.633zm-7.188 0h1.046l1.08 2.406.922-2.406h.976l-1.565 3.52c-.17.383-.344.673-.52.871a.88.88 0 01-.686.301c-.277 0-.492-.02-.646-.055V64.2c.131.011.251.014.359.014.217 0 .372-.039.465-.119.094-.078.184-.249.271-.51l-1.702-3.325zm-5.507.783v1.314h.511c.37 0 .618-.023.743-.072a.62.62 0 00.398-.588.606.606 0 00-.15-.417.658.658 0 00-.375-.205 4.492 4.492 0 00-.672-.032h-.455zm-.933 3.85V60.26h1.5c.568 0 .94.024 1.112.07.267.068.489.221.668.453.179.234.269.534.269.902 0 .283-.052.523-.154.717a1.332 1.332 0 01-.88.677c-.224.044-.546.067-.97.067h-.611v1.748h-.934v-.001zm-6.303-4.633h3.141v.777h-2.205v3.855h-.936V60.26zM0 64.157v-2.632l1.444.014L0 64.157zm23.98-3.322c-.082.33-.337.763-.729 1.222l.729-1.222zm24.575-25.812v1.874l-1.125.01 1.125-1.884zm-1.283-.92h.406l-1.551 2.818-.541.006 1.686-2.824zm-1.83 0h.405l-1.562 2.835-.541.006 1.698-2.841zm-1.83 0h.405l-1.571 2.854-.542.006 1.708-2.86zm-1.832 0h.408l-1.586 2.878a4.654 4.654 0 00-.59.083l1.768-2.961zm-1.83 0h.406l-1.997 3.63a6.718 6.718 0 00-1.035.77l2.626-4.4zm-1.83 0h.406L22.944 62.39a8.82 8.82 0 01-2.868 1.915L38.12 34.103zm-7.322 0h.406L14.345 64.707l18.283-30.604h.405L16.175 64.707 34.46 34.104h.406l-16.86 30.603 18.283-30.603h.407L20.051 64.316a7.63 7.63 0 01-2.884.587H0v-.701l1.59-2.661 1.675.017-1.736 3.149 1.881-3.146 1.676.016-1.725 3.131 1.869-3.131 1.676.016-1.714 3.115 1.859-3.113.805.008a7.655 7.655 0 001.079-.363l-1.911 3.469 2.13-3.569c2.291-1.092 2.77-3.111 3.956-5.224l9.525-17.318.02-.055.808-1.352a9.479 9.479 0 011.333-1.425L8.853 64.707l18.071-30.246c.168-.067.342-.126.518-.175L10.684 64.707l18.301-30.636c.13.001.263.007.396.018L12.514 64.707l18.284-30.604z"/><path fill="#004784" d="M.018 34.157h22.034v1.473H1.69l.03 23.308-1.671.029zM48.572 64.926H25.657v-1.473H46.9V39.114h1.641z"/></svg>