<svg xmlns="http://www.w3.org/2000/svg" viewBox="0 0 160 100"><g fill="#991A01"><path d="M25.851 63.684c-3.39 2.157-6.892 3.234-10.506 3.234-4.472 0-8.147-1.457-11.026-4.371C1.439 59.631 0 55.742 0 50.875 0 45.574 1.567 41.282 4.702 38c3.134-3.282 7.132-4.923 11.992-4.923 3.083 0 6.054.654 8.913 1.962a149.66 149.66 0 00-1.93 10.19l-1.685.31-2.358-8.606c-.552-.229-1.296-.344-2.236-.344-2.327 0-4.237 1.142-5.728 3.426-1.491 2.284-2.235 5.342-2.235 9.175 0 4.475.944 7.775 2.833 9.896 1.889 2.125 4.579 3.186 8.07 3.186 1.675 0 3.431-.218 5.269-.654l.244 2.066zM61.84 49.327c0 5.233-1.552 9.473-4.655 12.722-3.104 3.247-7.147 4.871-12.129 4.871-4.839 0-8.699-1.532-11.577-4.596-2.879-3.064-4.319-7.075-4.319-12.033 0-5.026 1.511-9.151 4.533-12.376 3.022-3.224 7.106-4.837 12.252-4.837 4.881 0 8.75 1.485 11.609 4.458 2.858 2.972 4.286 6.902 4.286 11.791zm-23.155.276c0 4.176.557 7.569 1.67 10.172 1.112 2.605 2.894 3.908 5.345 3.908 2.287 0 3.966-1.147 5.039-3.443 1.072-2.295 1.608-5.704 1.608-10.225 0-4.246-.566-7.591-1.7-10.036-1.132-2.444-2.904-3.666-5.314-3.666-2.246 0-3.916 1.102-5.009 3.305-1.094 2.205-1.639 5.532-1.639 9.985zM114.554 49.327c0 5.233-1.445 9.473-4.335 12.722-2.89 3.247-6.61 4.871-11.164 4.871-4.492 0-8.025-1.515-10.598-4.544-2.572-3.03-3.89-6.942-3.951-11.741h-5.421v5.854c0 2.754.02 4.659.061 5.714.041.62.296 1.011.766 1.171l3.186 1.033.092 1.651a317.44 317.44 0 00-8.301-.103c-2.96 0-5.921.035-8.881.103l-.153-1.651 3.89-1.205c.469-.16.724-.505.766-1.033.04-.895.061-2.398.061-4.51V43.577c0-2.732-.021-4.625-.061-5.681-.042-.62-.297-1.01-.766-1.17l-3.859-1.205-.092-1.653c3.021.07 5.983.104 8.882.104 3.002 0 5.768-.034 8.3-.104l.153 1.653-3.216.998c-.47.184-.725.54-.766 1.068-.04.895-.061 2.398-.061 4.509v5.372h5.574c.43-4.017 1.95-7.418 4.564-10.208 2.614-2.789 6.146-4.183 10.597-4.183 4.512 0 8.097 1.485 10.751 4.458s3.982 6.903 3.982 11.792zm-21.196.276c0 4.2.48 7.614 1.439 10.242.96 2.628 2.502 3.942 4.626 3.942 2.021 0 3.497-1.159 4.427-3.478.928-2.317 1.393-5.749 1.393-10.294 0-4.269-.49-7.636-1.469-10.104-.981-2.467-2.512-3.702-4.596-3.702-2.001 0-3.472 1.108-4.41 3.322-.94 2.217-1.41 5.574-1.41 10.072zM121.966 55.386l2.144 7.437c1.552.619 2.972.93 4.259.93 1.899 0 3.384-.608 4.456-1.824 1.071-1.217 1.608-2.903 1.608-5.062 0-2.11-.556-3.683-1.669-4.717-1.114-1.032-2.66-1.549-4.641-1.549-.899 0-1.981.185-3.246.552l-.184-4.029c1.572.345 2.746.517 3.522.517 1.818 0 3.235-.465 4.257-1.394 1.021-.93 1.532-2.37 1.532-4.321 0-1.835-.516-3.242-1.547-4.218-1.032-.976-2.394-1.463-4.089-1.463-1.307 0-2.695.287-4.165.861l-1.715 6.196-1.685.276c-.448-2.8-.99-5.6-1.624-8.401a32.944 32.944 0 0111.761-2.168c3.798 0 6.719.667 8.759 1.997 2.042 1.331 3.064 3.202 3.064 5.611 0 3.925-2.206 6.507-6.617 7.747 1.41.322 2.614.735 3.614 1.239 1.001.505 1.813 1.101 2.436 1.791a6.218 6.218 0 011.347 2.376c.275.895.414 1.883.414 2.96 0 3.282-1.327 5.802-3.982 7.558-2.655 1.756-6.167 2.633-10.537 2.633-4.064 0-7.647-.769-10.751-2.307a129.362 129.362 0 001.715-8.951l1.564-.277z"/><g><path d="M147.476 39.131c-.598 0-1.169.005-1.711.015l-.026-.255.816-.224c.084-.027.128-.082.132-.163.007-.254.011-.583.011-.983v-4.976h-1.468l-.468 1.355-.286.046-.131-1.905.036-.041c.835.013 1.635.02 2.4.02h1.42c.765 0 1.569-.007 2.415-.02l.031.041-.336 1.864-.285.046-.332-1.406h-1.472v4.977c0 .401.004.728.01.983.004.082.049.136.138.163l.799.224.015.254a96.576 96.576 0 00-1.708-.015zM157.515 32a39.114 39.114 0 002.456 0l.03.26-.698.198c-.079.024-.119.08-.123.168-.007.224-.01.506-.01.846v4.06c0 .4.003.739.01 1.014.003.078.049.13.138.158l.662.189.02.253a79.04 79.04 0 00-3.057 0l-.025-.255.586-.178c.082-.024.124-.085.127-.183.011-.265.015-.599.015-.999v-3.259c0-.177.005-.515.015-1.014a49.8 49.8 0 01-.367.906l-2.028 4.967-.458.04-1.936-4.823a20.04 20.04 0 01-.356-.921c.006.482.01.8.01.952v3.153c0 .4.004.733.01.999.003.098.047.159.133.184l.56.178.015.255a42.617 42.617 0 00-2.19 0l-.026-.255.683-.188c.089-.028.134-.08.138-.158.007-.275.01-.613.01-1.014v-4.059c0-.34-.003-.622-.01-.846-.003-.088-.043-.144-.123-.168l-.682-.198-.015-.262c.564.013.986.02 1.268.02.387 0 .783-.006 1.188-.02l1.778 4.487c.078.193.148.377.209.55.068-.173.139-.356.213-.55l1.83-4.487z"/></g></g></svg>