<svg xmlns="http://www.w3.org/2000/svg" viewBox="0 0 160 100"><linearGradient id="a" gradientUnits="userSpaceOnUse" x1="781.979" y1="326.93" x2="781.979" y2="226.93" gradientTransform="translate(-700.25 -226.93)"><stop offset="0" stop-color="#9c0d12"/><stop offset=".559" stop-color="#ed0c12"/><stop offset="1" stop-color="#f8d9d6"/></linearGradient><path fill="url(#a)" d="M20 0h123.457v100H20z"/><path fill="#FFF" d="M36.875 55.59a1.65 1.65 0 010-3.297h90.734c.91 0 1.649.74 1.649 1.649a1.65 1.65 0 01-1.649 1.648H36.875z"/><path fill="#9C0D12" d="M127.609 52.602a1.342 1.342 0 010 2.681H36.875a1.34 1.34 0 110-2.681h90.734m0-.618H36.875c-1.079 0-1.958.877-1.958 1.957s.878 1.957 1.958 1.957h90.734a1.96 1.96 0 001.959-1.957 1.961 1.961 0 00-1.959-1.957z"/><path fill="#FFF" d="M72.596 77.789v-9.35h5.885c.918 0 1.621.265 2.082.785.403.461.607 1.102.607 1.905v1.103h-3.793v-.793h-.988v6.351l-3.793-.001z"/><path fill="#9C0D12" d="M78.48 68.748c.832 0 1.449.227 1.852.682.354.402.529.969.529 1.7v.794h-3.176v-.794H76.08v6.351h-3.176V68.75l5.576-.002m0-.617H72.288V78.097H76.697v-6.35h.371v.794h4.41v-1.412c0-.881-.229-1.589-.683-2.107-.525-.592-1.304-.891-2.315-.891z"/><path fill="#FFF" d="M84.584 77.789c-.908 0-1.592-.254-2.036-.756-.434-.491-.653-1.141-.653-1.934v-4.082c0-.805.203-1.445.604-1.904.465-.522 1.166-.786 2.085-.786h6.236c.908 0 1.603.264 2.064.784.416.474.626 1.115.626 1.906V75.1c0 .805-.204 1.445-.604 1.905-.465.521-1.165.786-2.084.786h-6.238v-.002zm5.135-2.999v-3.465h-4.031v3.465h4.031z"/><path fill="#9C0D12" d="M90.82 68.635c.82 0 1.431.227 1.834.68.365.418.548.983.548 1.701V75.1c0 .73-.177 1.297-.529 1.7-.403.454-1.021.681-1.853.681h-6.236c-.818 0-1.421-.217-1.805-.651-.385-.435-.577-1.011-.577-1.729v-4.082c0-.73.176-1.297.528-1.701.404-.455 1.021-.681 1.854-.681l6.236-.002m-5.442 6.463h4.649v-4.082h-4.649v4.082m5.442-7.08h-6.236c-1.011 0-1.79.299-2.313.887-.457.521-.687 1.23-.687 2.111V75.1c0 .869.246 1.588.731 2.139.504.57 1.267.859 2.268.859h6.236c1.012 0 1.791-.299 2.313-.887.456-.521.685-1.23.685-2.111v-4.084c0-.869-.235-1.578-.701-2.107-.525-.593-1.296-.891-2.296-.891zm-4.824 3.616h3.414v2.849h-3.414v-2.849z"/><path fill="#FFF" d="M95.029 77.789v-6.256h-.813v-2.999h.813v-1.95c0-.802.205-1.439.606-1.896.464-.521 1.164-.783 2.085-.783h4.9v2.998h-3.799v1.633h3.799v2.999h-3.799v6.256l-3.792-.002z"/><path fill="#9C0D12" d="M102.313 64.212v2.381h-3.799v2.249h3.799v2.383h-3.799v6.256h-3.176v-6.256h-.813v-2.383h.813v-2.259c0-.728.176-1.292.529-1.692.402-.453 1.021-.679 1.852-.679h4.594m.617-.616H97.721c-1.012 0-1.789.297-2.313.883-.457.52-.687 1.227-.687 2.104v1.642h-.812V71.84h.812v6.256h4.409V71.84h3.8v-3.616h-3.8V67.21h3.8v-3.614z"/><g><path fill="#FFF" d="M103.421 77.789v-9.236h3.792v9.236h-3.792zm0-9.413v-2.999h3.792v2.999h-3.792z"/><path fill="#9C0D12" d="M106.904 65.688v2.381h-3.174v-2.381h3.174m0 3.173v8.619h-3.174v-8.619h3.174m.617-3.793H103.113V78.095H107.521V65.068z"/></g><g><path fill="#FFF" d="M107.977 63.904h3.791v13.885h-3.791z"/><path fill="#9C0D12" d="M111.459 64.212V77.48h-3.175V64.212h3.175m.618-.616h-4.409V78.097h4.409V63.596z"/></g><g><path fill="#FFF" d="M115.258 77.789c-.919 0-1.621-.264-2.083-.786-.403-.462-.606-1.104-.606-1.91v-3.864c0-.793.22-1.445.654-1.938.443-.502 1.127-.758 2.035-.758h5.916c.92 0 1.621.265 2.083.787.403.462.607 1.104.607 1.91v3.381h-7.308v-2.885h3.836v-.176h-4.031v3.238h7.503v2.999l-8.606.002z"/><path fill="#9C0D12" d="M121.174 68.843c.832 0 1.449.228 1.852.683.354.404.529.974.529 1.707v3.074h-6.691v-2.27h3.838v-.793h-4.649V75.1h7.503v2.381h-8.297c-.832 0-1.449-.227-1.854-.682-.353-.404-.528-.973-.528-1.705V71.23c0-.721.192-1.297.577-1.733.384-.437.984-.653 1.805-.653l5.915-.001m0-.616h-5.916c-1 0-1.763.289-2.268.862-.485.55-.731 1.271-.731 2.142v3.863c0 .883.229 1.594.683 2.111.525.594 1.305.893 2.316.893H124.172v-6.866c0-.883-.229-1.594-.681-2.112-.527-.595-1.305-.893-2.317-.893z"/></g><g><path fill="#FFF" d="M36.444 88.631V59.419h26.117c2.321 0 4.239.851 5.703 2.529 1.377 1.559 2.076 3.502 2.076 5.776v.309H46.796V88.63l-10.352.001zM48.442 78.21v-8.371H70.34v.31c0 2.25-.719 4.175-2.138 5.721-1.427 1.554-3.324 2.341-5.642 2.341H48.442z"/><path fill="#9C0D12" d="M62.561 59.729c2.238 0 4.063.808 5.472 2.422 1.333 1.509 2 3.367 2 5.574H46.487v20.599h-9.734V59.729h25.808m7.471 10.419c0 2.181-.687 4.019-2.058 5.513-1.371 1.495-3.176 2.241-5.414 2.241H48.75v-7.754h21.282m-7.471-11.037H36.135v29.828H47.104V68.343h23.544v-.616c0-2.353-.725-4.365-2.153-5.982-1.522-1.748-3.52-2.634-5.934-2.634zm8.087 10.42H48.135v8.988h14.428c2.408 0 4.381-.821 5.869-2.441 1.473-1.605 2.219-3.6 2.219-5.93v-.617h-.003z"/></g><g><path fill="#FFF" d="M36.617 45.167v-10.81h41.23v.309c0 2.882-.981 5.378-2.916 7.419-1.939 2.044-4.492 3.082-7.584 3.082h-30.73zm10.5-13.281c-3.126 0-5.686-.992-7.607-2.949-1.92-1.955-2.894-4.392-2.894-7.242v-.309h30.78c3.058 0 5.59 1.001 7.529 2.975 1.938 1.974 2.92 4.401 2.92 7.216v.309H47.117zm-10.5-12.971v-.309c0-2.883.981-5.379 2.916-7.419 1.939-2.045 4.491-3.082 7.584-3.082h29.546v10.809l-40.046.001z"/><path fill="#9C0D12" d="M76.354 8.415v10.192H36.926c0-2.813.943-5.216 2.831-7.207 1.887-1.99 4.34-2.986 7.361-2.986l29.236.001m-8.956 13.28c2.984 0 5.42.961 7.309 2.882 1.887 1.922 2.831 4.255 2.831 7h-30.42c-3.055 0-5.517-.952-7.387-2.857-1.871-1.904-2.805-4.247-2.805-7.026l30.472.001m10.14 12.971c0 2.814-.944 5.217-2.831 7.207-1.889 1.991-4.341 2.986-7.361 2.986h-30.42V34.666h40.612m-.565-26.869H47.117c-3.182 0-5.809 1.069-7.809 3.178-1.991 2.1-3 4.667-3 7.631v.617h40.663V8.415l.002-.618zm-9.575 13.281h-31.09v.617c0 2.935 1.003 5.444 2.982 7.459 1.981 2.018 4.615 3.041 7.827 3.041h31.037v-.617c0-2.898-1.012-5.399-3.008-7.433-1.998-2.036-4.605-3.067-7.748-3.067zm10.756 12.97H36.308V45.474h31.038c3.182 0 5.809-1.069 7.809-3.178 1.992-2.1 3-4.667 3-7.631v-.617h-.001z"/><g><path fill="#FFF" d="M96.844 45.167L80.669 8.106h14.269l10.548 25.743 10.45-25.743h14.371l-16.123 37.061z"/><path fill="#9C0D12" d="M129.834 8.415L113.98 44.858H97.046L81.141 8.415h13.59l10.758 26.251 10.654-26.251h13.691m.941-.618H115.727l-.156.385-10.086 24.849L95.3 8.181l-.157-.383H80.199l.377.864L96.48 45.104l.16.371h17.744l.161-.371L130.4 8.661l.375-.864z"/></g></g></svg>