<svg xmlns="http://www.w3.org/2000/svg" viewBox="0 0 160 100"><path fill="#CDCDCD" d="M63.662 40.15c6.709 4.129 11.136 11.221 11.136 19.277 0 5.48-2.049 10.515-5.469 14.473l.513-1.104c3.418-3.959 5.466-8.993 5.466-14.472 0-8.057-4.427-15.15-11.134-19.277l-.512 1.103"/><path fill="#CDCDCD" d="M63.662 40.15c6.709 4.129 11.136 11.221 11.136 19.277 0 5.48-2.049 10.515-5.469 14.473l.513-1.104c3.418-3.959 5.466-8.993 5.466-14.472 0-8.057-4.427-15.15-11.134-19.277l-.512 1.103"/><path fill="#FFF" d="M26.678 51.868c2.45-6.599 8.02-11.837 15.062-14.183l.511-1.104c-7.043 2.346-12.612 7.585-15.063 14.182l-.51 1.105"/><linearGradient id="a" gradientUnits="userSpaceOnUse" x1="726.928" y1="547.264" x2="742.501" y2="547.264" gradientTransform="translate(-700.25 -503.04)"><stop offset="0" stop-color="#fff"/><stop offset="1" stop-color="#8a8a8a"/></linearGradient><path fill="url(#a)" d="M26.678 51.868c2.45-6.599 8.02-11.837 15.062-14.183l.511-1.104c-7.043 2.346-12.612 7.585-15.063 14.182l-.51 1.105"/><path fill="#CDCDCD" d="M53.691 47.852c4.049 1.261 6.97 4.825 6.97 9.029 0 2.26-.844 4.336-2.253 5.968l.512-1.104c1.409-1.634 2.253-3.709 2.253-5.968 0-4.205-2.921-7.77-6.97-9.029l-.512 1.104"/><path fill="#CDCDCD" d="M53.691 47.852c4.049 1.261 6.97 4.825 6.97 9.029 0 2.26-.844 4.336-2.253 5.968l.512-1.104c1.409-1.634 2.253-3.709 2.253-5.968 0-4.205-2.921-7.77-6.97-9.029l-.512 1.104"/><path fill="#FFF" d="M40.82 53.764c.912-2.461 2.878-4.461 5.396-5.538l.51-1.104c-2.515 1.075-4.481 3.077-5.393 5.538l-.513 1.104"/><path fill="none" stroke="#FFF" stroke-width=".206" stroke-miterlimit="10" d="M40.82 53.764c.912-2.461 2.878-4.461 5.396-5.538l.51-1.104c-2.515 1.075-4.481 3.077-5.393 5.538l-.513 1.104"/><path fill="#CDCDCD" d="M86.416 26.957c10.931 9.375 17.78 22.826 17.78 37.769a48.18 48.18 0 01-1.517 12.016l.512-1.104a48.178 48.178 0 001.519-12.017c0-14.94-6.851-28.393-17.783-37.767l-.511 1.103"/><path fill="#CDCDCD" d="M86.416 26.957c10.931 9.375 17.78 22.826 17.78 37.769a48.18 48.18 0 01-1.517 12.016l.512-1.104a48.178 48.178 0 001.519-12.017c0-14.94-6.851-28.393-17.783-37.767l-.511 1.103"/><path fill="#CDCDCD" d="M99.527 43.228l-.97-2.624-23.811 7.667.97 2.622 23.811-7.665"/><path fill="#CDCDCD" d="M99.527 43.228l-.97-2.624-23.811 7.667.97 2.622 23.811-7.665M131.055 37.914l-.97-2.625-23.81 7.666.97 2.623 23.81-7.664"/><path fill="#CDCDCD" d="M131.055 37.914l-.97-2.625-23.81 7.666.97 2.623 23.81-7.664M57.25 52.002l.629 1.697 16.867-5.428-.629-1.697-16.867 5.428"/><path fill="#CDCDCD" d="M57.25 52.002l.629 1.697 16.867-5.428-.629-1.697-16.867 5.428"/><path fill="#CDCDCD" d="M55.894 54.338l.627 1.697 16.866-5.43-.627-1.696-16.866 5.429"/><path fill="#CDCDCD" d="M55.894 54.338l.627 1.697 16.866-5.43-.627-1.696-16.866 5.429M99.527 43.228l.629 1.696 16.866-5.43-.626-1.695-16.869 5.429"/><path fill="#CDCDCD" d="M99.527 43.228l.629 1.696 16.866-5.43-.626-1.695-16.869 5.429M116.125 37.074l.267.726 7.203-2.319-.268-.723-7.202 2.316"/><path fill="#CDCDCD" d="M116.125 37.074l.267.726 7.203-2.319-.268-.723-7.202 2.316"/><path fill="#CDCDCD" d="M120.867 36.355l.268.725 7.202-2.317-.269-.724-7.201 2.316"/><path fill="#CDCDCD" d="M120.867 36.355l.268.725 7.202-2.317-.269-.724-7.201 2.316"/><linearGradient id="b" gradientUnits="userSpaceOnUse" x1="700.25" y1="580.869" x2="754.441" y2="580.869" gradientTransform="translate(-700.25 -503.04)"><stop offset="0" stop-color="#fff"/><stop offset="1" stop-color="#8a8a8a"/></linearGradient><path fill="url(#b)" d="M50.826 77.178L0 77.831l54.191.652-3.365-1.305"/><linearGradient id="c" gradientUnits="userSpaceOnUse" x1="741.97" y1="576.136" x2="754.441" y2="576.136" gradientTransform="translate(-700.25 -503.04)"><stop offset="0" stop-color="#fff"/><stop offset="1" stop-color="#8a8a8a"/></linearGradient><path fill="url(#c)" d="M54.191 78.483l-12.47-10.771 9.105 9.466 3.365 1.305"/><path fill="#CDCDCD" d="M46.943 55.637c3.3-8.885 9.148-16.662 16.723-22.571l.512-1.103c-7.575 5.907-13.422 13.684-16.723 22.57l-.512 1.104"/><path fill="#CDCDCD" d="M46.943 55.637c3.3-8.885 9.148-16.662 16.723-22.571l.512-1.103c-7.575 5.907-13.422 13.684-16.723 22.57l-.512 1.104"/><linearGradient id="d" gradientUnits="userSpaceOnUse" x1="738.929" y1="561.477" x2="738.929" y2="578.667" gradientTransform="translate(-700.25 -503.04)"><stop offset="0" stop-color="#d9d9d9"/><stop offset="1"/></linearGradient><path fill="url(#d)" d="M44.671 58.439l-2.303 8.216 2.787 8.974h-5.617c-.551-2.265-.972-4.21-1.259-5.839a116.12 116.12 0 01-1.245 5.839h-4.831l2.489-8.974-2.489-8.216h4.831c.771 3.504 1.186 5.496 1.245 5.972.551-2.928.971-4.917 1.259-5.972h5.133"/><linearGradient id="e" gradientUnits="userSpaceOnUse" x1="722.343" y1="561.581" x2="722.343" y2="578.981" gradientTransform="translate(-700.25 -503.04)"><stop offset="0" stop-color="#d9d9d9"/><stop offset="1"/></linearGradient><path fill="url(#e)" d="M28.963 58.543v17.091H22.9l.1-1.413a3.906 3.906 0 01-1.526 1.292c-.603.29-1.298.43-2.084.43-.897 0-1.642-.134-2.232-.408-.587-.277-1.021-.643-1.304-1.096a3.709 3.709 0 01-.525-1.423c-.07-.494-.105-1.476-.105-2.944V58.543h5.964v11.632c0 1.333.045 2.12.142 2.37.091.251.346.376.76.376.443 0 .707-.128.786-.388.083-.259.124-1.086.124-2.485V58.543h5.963"/><path fill="#373A53" d="M49.644 48.447c0-.491-.023-.803-.077-.941-.047-.135-.15-.203-.303-.203a.333.333 0 00-.301.165c-.07.11-.105.435-.105.978v4.896c0 .611.023.986.068 1.128.044.146.154.216.319.216.171 0 .28-.082.327-.246.049-.166.072-.557.072-1.175v-4.819m2.507 3.449c0 1.053-.022 1.8-.067 2.236a2.658 2.658 0 01-.43 1.205c-.239.363-.565.641-.974.836s-.887.295-1.429.295c-.518 0-.982-.095-1.394-.278a2.3 2.3 0 01-.99-.825c-.25-.368-.4-.769-.447-1.2-.047-.433-.071-1.188-.071-2.269v-1.797c0-1.053.023-1.799.068-2.238.045-.439.186-.839.43-1.203.24-.361.563-.641.975-.836.408-.194.885-.293 1.429-.293.515 0 .979.094 1.391.277.41.184.743.457.992.826.25.367.397.768.445 1.199.05.434.07 1.188.07 2.268l.002 1.797zm-6.737-6.146v10.493h-2.198l-1.306-4.771v4.771h-2.097V45.749h2.096l1.407 4.727v-4.727h2.098zm-6.608 0v10.493h-2.509v-4.406h-.751v4.406h-2.51V45.749h2.51v3.753h.751v-3.753h2.509zm-6.668 4.575h-2.509v-1.826c0-.531-.029-.863-.081-.997-.052-.13-.171-.195-.354-.195-.208 0-.337.079-.394.238-.055.163-.083.507-.083 1.039v4.873c0 .511.029.843.083.997.057.156.182.235.377.235.187 0 .31-.079.366-.235.056-.155.086-.521.086-1.096v-1.313h2.508v.405c0 1.085-.07 1.855-.211 2.31-.139.45-.453.851-.936 1.188-.483.345-1.079.517-1.783.517-.736 0-1.342-.148-1.819-.439a2.057 2.057 0 01-.947-1.199c-.155-.513-.232-1.281-.232-2.311v-3.066c0-.756.025-1.321.071-1.701.047-.379.189-.744.428-1.092.236-.35.565-.627.982-.828.42-.199.9-.301 1.444-.301.74 0 1.352.158 1.832.467.479.313.795.7.946 1.164.15.465.227 1.187.227 2.168l-.001.998zM21.21 45.749h4.183v2.1H23.72v1.989h1.566v1.998H23.72v2.307h1.841v2.1H21.21V45.749zm-.573 0v2.1h-1.489v8.394h-2.509v-8.394h-1.484v-2.1h5.482z"/><linearGradient id="f" gradientUnits="userSpaceOnUse" x1="707.214" y1="548.45" x2="707.214" y2="578.665" gradientTransform="translate(-700.25 -503.04)"><stop offset="0" stop-color="#d9d9d9"/><stop offset="1"/></linearGradient><path fill="url(#f)" d="M7.602 45.412v26.254h4.496l.224 3.961H1.606V45.412h5.996"/><path fill="#FFF" d="M51.624 12C111.315 12 160 29.11 160 50.089c0 20.98-48.685 38.091-108.375 38.091-18.428 0-35.8-1.634-51.019-4.504v-2.524c15.025 3.064 32.457 4.823 51.019 4.823 56.235 0 102.101-16.121 102.101-35.887 0-19.765-45.866-35.884-102.101-35.884-18.563 0-35.994 1.758-51.019 4.82v-2.521C15.823 13.632 33.195 12 51.624 12"/><path fill="#CAC7FF" d="M51.624 12C111.315 12 160 29.11 160 50.089c0 20.98-48.685 38.091-108.375 38.091-18.428 0-35.8-1.634-51.019-4.504v-2.524c15.025 3.064 32.457 4.823 51.019 4.823 56.235 0 102.101-16.121 102.101-35.887 0-19.765-45.866-35.884-102.101-35.884-18.563 0-35.994 1.758-51.019 4.82v-2.521C15.823 13.632 33.195 12 51.624 12"/></svg>