<svg xmlns="http://www.w3.org/2000/svg" viewBox="0 0 160 100"><path fill="#0073BB" d="M33.684 39.881l-1.108 4.653h4.654l1.33-4.653h-4.876zm-5.097 19.058h4.875l1.33-4.654h-4.875l-1.33 4.654zM0 51.627h2.66l.665-2.66H.665L0 51.627zm9.308-3.325h3.767l1.108-3.768h-3.989l-.886 3.768zm23.268-3.767h-4.875l-1.33 4.875h4.875l1.33-4.875zm-17.063 9.75h4.875l1.33-4.875h-4.875l-1.33 4.875z"/><path fill="#83D0F4" d="M48.532 63.814c-.665-.443-1.33-1.33-1.33-2.438-.221-.665-.221-1.33 0-2.438h-3.989l1.108-4.654h3.989l1.108-3.988H46.98l1.773-6.427h2.438l.221-1.108 6.427-2.881H43.435l-1.33 4.654H37.23l-2.438 9.75h4.654l1.33-4.875h4.875l-1.33 4.875h-4.875l-1.108 4.654h-4.875l-1.33 4.875h16.62l-.221.001z"/><path fill="#0073BB" d="M68.919 56.279v-.443h7.313c3.324 0 6.648.223 7.092-3.545.221-1.33.221-2.438 0-3.324-.443-1.551-1.33-2.659-2.438-3.546-1.33-.887-3.324-1.33-5.762-1.33-3.103 0-5.983.887-8.2 2.881-2.216 1.772-3.767 4.21-4.432 7.091-.443 1.994-.443 3.767 0 5.319.443 1.551 1.33 2.658 2.438 3.323s2.438 1.108 4.21 1.108H80.664l1.108-4.211H73.13c-3.102.002-3.989-1.549-4.211-3.323zm2.438-6.425c.887-.887 1.773-1.33 2.881-1.33.887 0 1.551.222 1.995.887.443.443.665 1.551.443 2.881h-6.87c.443-1.109.886-1.995 1.551-2.438zm-16.62 9.306c-.221-.221 0-.664.222-1.551l1.995-8.199h5.983l1.33-4.654h-5.983l1.33-4.875-7.535 3.545-.443 1.33h-2.438L48.09 49.41h2.438l-2.216 8.643c-.443 1.33-.443 2.438-.443 3.104.222.885.443 1.551 1.108 1.994s1.995.664 3.546.664h6.427l1.108-4.211h-4.432c-.446 0-.889 0-.889-.444zM155.79 44.756c-1.108 0-1.772 0-2.438.222-.666.443-1.108.665-1.552 1.108l.443-1.33h-6.87l-5.319 19.058h6.87l2.66-9.308c.887-2.438 2.659-5.097 6.648-5.097h2.438l1.33-4.654h-4.21v.001zm-15.513 2.881c-1.33-2.438-3.989-3.545-7.757-3.545-3.102 0-5.982 1.108-8.42 2.881-2.438 1.995-3.989 4.432-4.654 7.313-.887 3.324-.443 5.762 1.329 7.756 1.552 1.552 3.768 2.438 6.648 2.438 3.324 0 6.205-.886 8.644-2.881 2.438-1.994 3.988-4.432 4.653-7.313.665-2.659.443-4.876-.443-6.649zm-6.649 6.648c-.443 1.773-1.108 3.104-1.994 3.989-.887.665-1.772 1.108-2.881 1.108-1.108 0-1.773-.443-2.216-1.108-.443-.886-.443-2.216 0-3.989.443-1.551 1.108-2.881 1.995-3.768.886-.887 1.772-1.329 2.88-1.329.887 0 1.773.442 2.216 1.329.444.887.444 1.995 0 3.768zm-12.631-9.75h-3.103c.222-.886.222-1.108.443-1.551.443-1.108 1.33-1.33 2.216-1.33h3.324l1.33-4.654h-5.983c-1.33 0-2.66.222-3.546.443-.887.444-1.551.887-2.216 1.551-.444.665-1.108 1.33-1.33 2.216l-1.108 3.324h-2.659l-1.108 4.876h2.438l-3.768 14.404h6.87l3.768-14.404h3.324l1.108-4.875zm-13.296.221H99.28l-6.87 6.205 3.102-11.523h-7.091l-6.426 24.377h7.091l1.33-4.875 3.323-2.66 1.552 7.535h7.534l-3.324-12.41 8.2-6.649z"/></svg>