<svg xmlns="http://www.w3.org/2000/svg" width="160" height="100"><path fill="#F15D22" d="M67.309 40.273h-7.59l7.621 18.65c.784 1.912 2.038 3.547 5.516 3.547 3.479 0 4.733-1.635 5.518-3.547l7.617-18.65h-7.584l-5.141 14.889c-.126.377-.313.471-.408.471s-.282-.094-.407-.471l-5.142-14.889zM52.013 40.272h7.084V62.23h-7.084zM42.606 40.273v13.055c0 .156 0 .533-.345.533-.251-.001-.44-.314-.596-.533l-7.358-11.286c-1.349-1.911-3.449-2.035-4.64-2.036-3.234-.006-5.839 1.549-5.866 5.139V62.23h7.078V49.184c0-.628.345-.628.439-.628.22 0 .439.313.596.532l6.959 10.775c1.379 1.948 3.393 2.596 5.054 2.59 3.027-.013 5.731-2.027 5.753-5.049V40.273h-7.074zM0 53.429c0 2.229.345 4.646 2.291 6.56 2.259 2.229 5.46 2.484 8.599 2.484 3.137 0 6.338-.256 8.598-2.484 1.945-1.914 2.292-4.33 2.292-6.559V40.273h-7.093v12.592c0 .877-.031 2.228-1.098 3.107-.627.5-1.694.783-2.698.783-1.005 0-2.072-.283-2.699-.783-1.036-.85-1.099-2.135-1.099-3.107V40.273H0v13.156zM115.304 62.23h10.03c1.003 0 2.111-.019 2.946-1.126.67-.878.71-2.048.712-2.905 0-1.002-.085-2.445-1.002-3.342-.522-.523-1.38-.857-2.028-1.025l-4.931-1.316c-.564-.146-1.232-.334-1.232-.795 0-.166.105-.334.229-.396.085-.041.23-.083.773-.083h7.44v-3.636h-9.654c-1.253 0-2.047.459-2.508.919-.856.856-.919 2.007-.919 2.927 0 1.086.105 2.34.794 3.259.294.396.815.878 1.672 1.107l5.663 1.589c.479.125.94.271.94.73 0 .209-.125.46-.815.46h-8.105l-.005 3.633zM99.284 62.23h4.723v-9.84c0-.355-.02-.648.273-.92.207-.209.458-.23.73-.23h2.613c.438 0 .96-.02 1.315.355.105.105.356.439.356 1.233 0 .377-.084.919-.314 1.213-.334.396-.899.438-1.316.438h-.753c-1.213 0-2.111.668-2.111 1.65v.313c0 .711.522 1.337 1.003 1.985l2.82 3.802 5.684.001-4.179-4.367v-.083h.627c1.128 0 2.172-.522 2.716-1.817.502-1.191.543-2.925.543-3.595 0-1.107-.124-2.403-.752-3.343-.961-1.422-2.569-1.422-3.489-1.422h-7.961c-.563 0-1.42.104-1.964.71-.522.585-.563 1.422-.565 2.09V62.23zM97.771 62.23v-3.55h-7.082c-.292 0-.668.021-.898-.188-.105-.083-.21-.25-.21-.542l.001-1.59 7.982.002v-3.178h-7.982v-1.107c0-.188 0-.522.229-.711.168-.145.459-.209.731-.209h7.231v-3.551l-10.511-.001c-.522 0-1.233.083-1.775.585-.544.502-.628 1.107-.628 1.672v10.029c0 .689 0 1.275.669 1.84.563.459 1.17.5 1.777.5h10.466zM141.291 62.232h5.06l-5.08-12.434c-.523-1.273-1.359-2.364-3.678-2.364-2.32 0-3.156 1.09-3.678 2.364l-5.077 12.432 5.057.002 3.426-9.926c.083-.25.21-.314.272-.314.063 0 .188.064.271.314l3.427 9.926zM160 62.23v-3.634l-7.585-.001c-.25 0-.564-.021-.752-.188-.208-.189-.231-.544-.231-.711l.001-10.092h-4.722v12.745c0 .605.313 1.149.647 1.421.397.334 1.023.459 1.588.459H160v.001zM90.498 45.428v.002c.635 0 1.213-.261 1.632-.68.418-.418.679-.996.679-1.629h-.002v-.002h.002c0-.625-.261-1.197-.679-1.613a2.307 2.307 0 00-1.631-.678v.001h-.001v-.001c-.625 0-1.197.26-1.614.676v.002a2.281 2.281 0 00-.676 1.612v.001c0 .636.259 1.213.676 1.633.417.417.988.678 1.613.678l.001-.002zm0 .556a2.83 2.83 0 01-2.007-.842 2.86 2.86 0 01-.837-2.023h-.001v-.002h.001c0-.779.322-1.491.837-2.008v.001a2.837 2.837 0 012.007-.838h.002a2.86 2.86 0 012.023.837 2.83 2.83 0 01.842 2.009h.001v.001h-.001a2.868 2.868 0 01-2.867 2.865"/><path fill="#F15D22" d="M91.581 43.701a1.494 1.494 0 00-.12-.182c-.061-.08-.122-.119-.161-.16-.041-.02-.121-.061-.221-.1a.772.772 0 00.321-.121c.12-.06.202-.16.282-.281.06-.12.1-.26.1-.422 0-.18-.04-.34-.141-.461-.08-.141-.202-.221-.361-.281a2.595 2.595 0 00-.642-.061h-1.505v2.91h.922l.001-1.185h.08c.08 0 .14.021.221.081.02.021.059.061.1.12.02.04.041.062.059.101l.484.884h1.021l-.44-.842zm-.762-1.023a.24.24 0 01-.141.1c-.102.021-.181.021-.221.04h-.401v-.602h.401c.161 0 .26.021.321.08.061.04.101.12.101.222a.226.226 0 01-.06.16"/><path fill="none" d="M0 40h160v22.473H0z"/></svg>