<svg xmlns="http://www.w3.org/2000/svg" viewBox="0 0 160 100"><path fill="#69A744" d="M0 35.112h12.873v13.059l7.628-13.059h13.538V47.41l10.296-16.496h-4.479L57.499 23l7.626 7.914H59.88L34.896 69.818H21.837V56.945l-7.628 12.873H0V35.112M85.531 39.781v24.695c.093 2.146-.063 2.832 1.049 4.006.985 1.041 2 1.435 3.43 1.336h27.177c1.117-.004 1.85-.291 2.667-1.05 1.018-.944 1.239-1.813 1.239-3.341V50.746h-17.352v4.386h3.624v2.287h-8.581v-9.82h22.311V35.112H89.918c-1.301.047-2.136.416-3.053 1.333-.99.992-1.371 1.936-1.334 3.336M155.675 35.112h-26.727a4.32 4.32 0 00-4.322 4.322v26.058a4.323 4.323 0 004.322 4.326h26.727A4.326 4.326 0 00160 65.492V39.434a4.323 4.323 0 00-4.325-4.322zm-8.834 22.501h-9.248v-9.536h9.248v9.536z"/><path fill="#69A744" d="M60.358 35.112L35.756 73.535h-5.53l8.393 8.009 17.734-8.009h-4.769l5.721-8.771h11.92v5.054h12.966V35.112H60.358zm8.867 22.593h-7.818l7.818-12.012v12.012z"/></svg>