<svg width="38" height="35" viewBox="0 0 38 35" fill="none" xmlns="http://www.w3.org/2000/svg">
<g>
<path d="M22.2 34.7C30.5395 34.7 37.3 27.9395 37.3 19.6C37.3 11.2605 30.5395 4.5 22.2 4.5C13.8605 4.5 7.10001 11.2605 7.10001 19.6C7.10001 27.9395 13.8605 34.7 22.2 34.7Z" fill="#383777"/>
<path d="M30 17.4C29.9 17.2 29.7 17.1 29.5 17.1H26.8V12.8C26.8 12.4 26.5 12.2 26.2 12.2H18.3C17.9 12.2 17.7 12.5 17.7 12.8V17.1H15C14.8 17.1 14.6 17.2 14.5 17.4C14.4 17.6 14.3 17.8 14.4 18L17.2 26.5C17.3 26.8 17.5 26.9 17.8 26.9H26.7C27 26.9 27.2 26.7 27.3 26.5L30.1 18C30.2 17.8 30.1 17.5 30 17.4ZM19 13.5H25.6V17.1H19V13.5ZM26.2 25.6H18.2L15.8 18.4H28.6L26.2 25.6Z" fill="white"/>
<path d="M7.1 14.7C11.0212 14.7 14.2 11.5212 14.2 7.6C14.2 3.67878 11.0212 0.5 7.1 0.5C3.17878 0.5 0 3.67878 0 7.6C0 11.5212 3.17878 14.7 7.1 14.7Z" fill="#DB2323"/>
</g>
</svg>
