<svg width="16" height="12" viewBox="0 0 16 12" fill="none" xmlns="http://www.w3.org/2000/svg">
<g>
<path d="M12.9 0.550018H2.5C1.1 0.550018 0 1.65002 0 3.05002V9.35002C0 10.75 1.1 11.85 2.5 11.85H12.9C14.3 11.85 15.4 10.75 15.4 9.35002V3.05002C15.4 1.65002 14.3 0.550018 12.9 0.550018ZM2.5 2.05002H12.9C13.4 2.05002 13.8 2.35002 13.9 2.85002L8.6 7.05002C8.1 7.55002 7.4 7.55002 6.8 7.05002L1.5 2.85002C1.6 2.35002 2 2.05002 2.5 2.05002ZM12.9 10.35H2.5C1.9 10.35 1.5 9.95002 1.5 9.35002V4.75002L5.9 8.25002C6.4 8.65002 7.1 8.85002 7.7 8.85002C8.3 8.85002 9 8.65002 9.5 8.25002L13.9 4.75002V9.35002C13.9 9.85002 13.5 10.35 12.9 10.35Z" fill="#383777"/>
</g>
</svg>
