<svg width="26" height="22" viewBox="0 0 26 22" fill="none" xmlns="http://www.w3.org/2000/svg">
<path d="M4.79996 5.37501H1.89996C1.29996 5.37501 0.899963 4.97501 0.899963 4.37501V1.97501C0.899963 1.37501 1.29996 0.975006 1.89996 0.975006H4.79996C5.39996 0.975006 5.79996 1.37501 5.79996 1.97501V4.37501C5.79996 4.97501 5.39996 5.37501 4.79996 5.37501Z" fill="white"/>
<path d="M24.7 5.37501H10.2C9.59997 5.37501 9.19997 4.97501 9.19997 4.37501V1.97501C9.19997 1.37501 9.59997 0.975006 10.2 0.975006H24.7C25.3 0.975006 25.7 1.37501 25.7 1.97501V4.37501C25.7 4.97501 25.2 5.37501 24.7 5.37501Z" fill="white"/>
<path d="M4.79996 13.475H1.89996C1.29996 13.475 0.899963 13.075 0.899963 12.475V10.175C0.899963 9.57502 1.29996 9.17502 1.89996 9.17502H4.79996C5.39996 9.17502 5.79996 9.57502 5.79996 10.175V12.475C5.79996 12.975 5.39996 13.475 4.79996 13.475Z" fill="white"/>
<path d="M24.7 13.475H10.2C9.59997 13.475 9.19997 13.075 9.19997 12.475V10.175C9.19997 9.57502 9.59997 9.17502 10.2 9.17502H24.7C25.3 9.17502 25.7 9.57502 25.7 10.175V12.475C25.7 12.975 25.2 13.475 24.7 13.475Z" fill="white"/>
<path d="M4.79996 21.475H1.89996C1.29996 21.475 0.899963 21.075 0.899963 20.475V18.175C0.899963 17.575 1.29996 17.175 1.89996 17.175H4.79996C5.39996 17.175 5.79996 17.575 5.79996 18.175V20.475C5.79996 21.075 5.39996 21.475 4.79996 21.475Z" fill="white"/>
<path d="M24.7 21.475H10.2C9.59997 21.475 9.19997 21.075 9.19997 20.475V18.175C9.19997 17.575 9.59997 17.175 10.2 17.175H24.7C25.3 17.175 25.7 17.575 25.7 18.175V20.475C25.7 21.075 25.2 21.475 24.7 21.475Z" fill="white"/>
</svg>
