<svg width="25" height="22" viewBox="0 0 25 22" fill="none" xmlns="http://www.w3.org/2000/svg">
<path d="M4.2999 5.37501H1.3999C0.799902 5.37501 0.399902 4.97501 0.399902 4.37501V1.97501C0.399902 1.37501 0.799902 0.975006 1.3999 0.975006H4.2999C4.8999 0.975006 5.2999 1.37501 5.2999 1.97501V4.37501C5.2999 4.97501 4.8999 5.37501 4.2999 5.37501Z" fill="#383878"/>
<path d="M4.2999 13.475H1.3999C0.799902 13.475 0.399902 13.075 0.399902 12.475V10.175C0.399902 9.57502 0.799902 9.17502 1.3999 9.17502H4.2999C4.8999 9.17502 5.2999 9.57502 5.2999 10.175V12.475C5.2999 12.975 4.8999 13.475 4.2999 13.475Z" fill="#383878"/>
<path d="M4.2999 21.475H1.3999C0.799902 21.475 0.399902 21.075 0.399902 20.475V18.175C0.399902 17.575 0.799902 17.175 1.3999 17.175H4.2999C4.8999 17.175 5.2999 17.575 5.2999 18.175V20.475C5.2999 21.075 4.8999 21.475 4.2999 21.475Z" fill="#383878"/>
<path d="M14.0999 5.37501H11.1999C10.5999 5.37501 10.1999 4.97501 10.1999 4.37501V1.97501C10.1999 1.37501 10.5999 0.975006 11.1999 0.975006H14.0999C14.6999 0.975006 15.0999 1.37501 15.0999 1.97501V4.37501C15.0999 4.97501 14.5999 5.37501 14.0999 5.37501Z" fill="#383878"/>
<path d="M14.0999 13.475H11.1999C10.5999 13.475 10.1999 13.075 10.1999 12.475V10.175C10.1999 9.57502 10.5999 9.17502 11.1999 9.17502H14.0999C14.6999 9.17502 15.0999 9.57502 15.0999 10.175V12.475C15.0999 12.975 14.5999 13.475 14.0999 13.475Z" fill="#383878"/>
<path d="M14.0999 21.475H11.1999C10.5999 21.475 10.1999 21.075 10.1999 20.475V18.175C10.1999 17.575 10.5999 17.175 11.1999 17.175H14.0999C14.6999 17.175 15.0999 17.575 15.0999 18.175V20.475C15.0999 21.075 14.5999 21.475 14.0999 21.475Z" fill="#383878"/>
<path d="M23.8999 5.37501H20.9999C20.3999 5.37501 19.9999 4.97501 19.9999 4.37501V1.97501C19.9999 1.37501 20.3999 0.975006 20.9999 0.975006H23.8999C24.4999 0.975006 24.8999 1.37501 24.8999 1.97501V4.37501C24.8999 4.97501 24.3999 5.37501 23.8999 5.37501Z" fill="#383878"/>
<path d="M23.8999 13.475H20.9999C20.3999 13.475 19.9999 13.075 19.9999 12.475V10.175C19.9999 9.57502 20.3999 9.17502 20.9999 9.17502H23.8999C24.4999 9.17502 24.8999 9.57502 24.8999 10.175V12.475C24.8999 12.975 24.3999 13.475 23.8999 13.475Z" fill="#383878"/>
<path d="M23.8999 21.475H20.9999C20.3999 21.475 19.9999 21.075 19.9999 20.475V18.175C19.9999 17.575 20.3999 17.175 20.9999 17.175H23.8999C24.4999 17.175 24.8999 17.575 24.8999 18.175V20.475C24.8999 21.075 24.3999 21.475 23.8999 21.475Z" fill="#383878"/>
</svg>
