<svg width="43" height="58" viewBox="0 0 43 58" fill="none" xmlns="http://www.w3.org/2000/svg">
<g clip-path="url(#clip0)">
<path d="M21.8 0.0499878C10.2 0.0499878 0.800049 9.44999 0.800049 21.05C0.800049 41.35 21.8 57.35 21.8 57.35C21.8 57.35 42.8 41.35 42.8 21.05C42.8 9.44999 33.4 0.0499878 21.8 0.0499878Z" fill="#383777"/>
<path d="M28.8001 19.95L34.1 12.35H27.4001L22.7001 19.25H17.0001V17.55V12.35H11.2001V17.55V20.05V34.15H25.2001C29.8001 34.15 33.0001 30.65 33.0001 26.55C33.0001 23.55 31.4001 21.05 28.8001 19.95ZM24.9001 28.95H17.0001V24.35H24.8001C26.6001 24.35 27.2001 25.35 27.2001 26.55C27.2001 27.85 26.7001 28.95 24.9001 28.95Z" fill="white"/>
</g>
<defs>
<clipPath id="clip0">
<rect width="42" height="57.3" fill="white" transform="translate(0.800049 0.0499878)"/>
</clipPath>
</defs>
</svg>
