<svg width="16" height="19" viewBox="0 0 16 19" fill="none" xmlns="http://www.w3.org/2000/svg">
<g>
<path d="M7.89999 9.95002H7.99999C9.09999 9.95002 10 9.55002 10.6 8.85002C12 7.25002 11.8 4.45002 11.8 4.15002C11.7 2.15002 10.8 1.15002 9.99999 0.750024C9.49999 0.350024 8.79999 0.150024 7.99999 0.150024C7.59999 0.150024 6.79999 0.250024 5.99999 0.650024C5.19999 1.15002 4.19999 2.05002 4.09999 4.05002C4.09999 4.35002 3.89999 7.15002 5.29999 8.75002C5.99999 9.55002 6.79999 9.85002 7.89999 9.95002ZM5.1 4.15002C5.2 1.45002 7.09999 1.15002 7.99999 1.15002C8.99999 1.15002 10.7 1.55002 10.9 4.15002C10.9 4.15002 11.2 6.75002 9.99999 8.05002C9.49999 8.65002 8.89999 8.85002 7.99999 8.95002C7.19999 8.95002 6.5 8.65002 6.1 8.15002C4.9 6.75002 5.1 4.15002 5.1 4.15002Z" fill="#383777"/>
<path d="M15.7 14.55V14.45C15.7 13.75 15.6 11.95 14 11.45C12.3 11.05 10.9 10.05 10.9 10.05C10.6 9.85002 10.3 9.85002 10.2 10.05C9.99999 10.25 10.1 10.55 10.3 10.75C10.4 10.75 11.9 11.85 13.7 12.35C14.6 12.65 14.7 13.55 14.7 14.45V14.55C14.7 14.85 14.7 15.45 14.6 15.75C14 16.05 11.6 17.25 7.99999 17.25C4.39999 17.25 1.99999 16.05 1.39999 15.75C1.29999 15.45 1.29999 14.95 1.29999 14.55V14.45C1.29999 13.55 1.39999 12.65 2.29999 12.35C4.19999 11.85 5.69999 10.85 5.69999 10.75C5.89999 10.55 5.99999 10.25 5.79999 10.05C5.69999 9.85002 5.39999 9.85002 5.19999 9.95002C5.19999 9.95002 3.79999 10.95 2.09999 11.35C0.499994 11.95 0.399994 13.65 0.399994 14.35V14.45C0.399994 14.65 0.399994 15.65 0.599994 16.15C0.599994 16.25 0.699994 16.35 0.799994 16.35C0.899994 16.45 3.59999 18.15 8.09999 18.15C12.6 18.15 15.3 16.45 15.4 16.35C15.5 16.25 15.6 16.25 15.6 16.15C15.7 15.75 15.7 14.75 15.7 14.55Z" fill="#383777"/>
</g>
</svg>
