<svg width="11" height="11" viewBox="0 0 11 11" fill="none" xmlns="http://www.w3.org/2000/svg">
<g clip-path="url(#clip0)">
<path d="M10.2 7.89999C10 7.09999 8.20001 5.79999 7.40001 5.79999C6.60001 5.69999 6.20001 6.29999 6.00001 6.49999C5.80001 6.89999 5.90001 7.29999 6.20001 7.49999C6.50001 7.69999 7.00001 7.69999 7.20001 7.29999C7.30001 7.19999 7.30001 7.19999 7.30001 7.09999C7.60001 7.29999 8.8 8.09999 8.90001 8.39999C8.90001 8.39999 8.90001 8.39999 8.90001 8.49999C8.8 8.79999 8.60001 8.99999 8.40001 9.19999C8.20001 9.29999 7.90001 9.29999 7.60001 9.19999C6.20001 8.49999 4.90001 7.69999 3.90001 6.69999C2.90001 5.69999 2.10001 4.49999 1.50001 2.99999C1.40001 2.79999 1.40001 2.49999 1.50001 2.29999C1.60001 2.09999 1.80001 1.89999 2.20001 1.79999H2.30001C2.50001 1.79999 3.40001 3.09999 3.50001 3.29999C3.50001 3.29999 3.50001 3.29999 3.30001 3.39999C3.00001 3.69999 2.90001 4.09999 3.10001 4.39999C3.20001 4.59999 3.40001 4.69999 3.60001 4.69999C3.80001 4.69999 4.00001 4.69999 4.10001 4.59999C4.30001 4.39999 4.90001 3.99999 4.90001 3.19999C4.90001 2.39999 3.50001 0.599988 2.80001 0.299988C2.40001 0.299988 2.10001 0.299988 1.70001 0.399988C1.00001 0.599988 0.500006 1.09999 0.200006 1.69999C-0.0999939 2.29999 -0.0999939 2.89999 0.200006 3.59999C0.800006 5.19999 1.80001 6.59999 2.90001 7.69999C4.10001 8.79999 5.40001 9.69999 7.00001 10.4C7.30001 10.5 7.70001 10.6 8.00001 10.6C8.30001 10.6 8.60001 10.5 8.90001 10.4C9.50001 10.1 9.90001 9.59999 10.2 8.89999C10.4 8.49999 10.4 8.19999 10.2 7.89999Z" fill="#383777"/>
</g>
<defs>
<clipPath id="clip0">
<rect width="10.3" height="10.3" fill="white" transform="translate(0 0.299988)"/>
</clipPath>
</defs>
</svg>
