<svg width="15" height="15" viewBox="0 0 15 15" fill="none" xmlns="http://www.w3.org/2000/svg">
<path d="M14.7 13.7L10.9 9.9C11.7 8.9 12.2 7.6 12.2 6.2C12.2 2.7 9.4 0 6.1 0C2.8 0 0 2.7 0 6.1C0 9.5 2.7 12.2 6.1 12.2C7.5 12.2 8.8 11.7 9.8 10.9L13.6 14.7C13.7 14.8 13.9 14.9 14.1 14.9C14.3 14.9 14.5 14.8 14.6 14.7C15 14.4 15 13.9 14.7 13.7ZM9.5 9.1C9.4 9.1 9.3 9.2 9.3 9.3C9.3 9.4 9.1 9.4 9.1 9.5C8.3 10.2 7.2 10.7 6.1 10.7C3.6 10.7 1.5 8.6 1.5 6.1C1.5 3.6 3.6 1.5 6.1 1.5C8.6 1.5 10.7 3.6 10.7 6.1C10.7 7.2 10.2 8.3 9.5 9.1Z" fill="#383777"/>
</svg>
