<svg width="120" height="123" viewBox="0 0 120 123" fill="none" xmlns="http://www.w3.org/2000/svg">
<g>
<path d="M118 39L61.2 0.399994C60.4 -0.100006 59.4 -0.100006 58.6 0.399994L1.70001 39C1.10001 39.4 0.700012 40.2 0.700012 40.9V120.1C0.700012 121.4 1.70001 122.4 3.00001 122.4H116.7C118 122.4 119 121.4 119 120.1V40.9C119.1 40.1 118.7 39.4 118 39ZM98.1 45.3V48.8H21.6V45.3H98.1ZM96.4 75.1C95.1 75.1 94.1 76.1 94.1 77.4V117.7H74.4V95.7C74.4 94.4 73.4 93.4 72.1 93.4H50.1V71.4C50.1 70.1 49.1 69.1 47.8 69.1H25.7V53.4H94.1V69.3C94.1 70.6 95.1 71.6 96.4 71.6C97.7 71.6 98.7 70.6 98.7 69.3V53.4H100.4C101.7 53.4 102.7 52.4 102.7 51.1V43C102.7 41.7 101.7 40.7 100.4 40.7H19.3C18 40.7 17 41.7 17 43V51.1C17 52.4 18 53.4 19.3 53.4H21V117.8H5.40001V42.1L59.9 5.09999L114.4 42.1V117.7H98.8V77.5C98.8 76.2 97.7 75.1 96.4 75.1ZM33.8 81.2V73.7H37.3V81.2H33.8ZM31.5 85.9H39.6C40.9 85.9 41.9 84.9 41.9 83.6V73.8H45.4V93.5H25.7V73.7H29.2V83.5C29.1 84.8 30.2 85.9 31.5 85.9ZM33.8 105.6V98.1H37.3V105.6H33.8ZM31.5 110.2H39.6C40.9 110.2 41.9 109.2 41.9 107.9V98.1H45.4V117.8H25.7V98.1H29.2V107.9C29.1 109.2 30.2 110.2 31.5 110.2ZM58.2 105.6V98.1H61.7V105.6H58.2ZM55.8 110.2H63.9C65.2 110.2 66.2 109.2 66.2 107.9V98.1H69.7V117.8H50V98.1H53.5V107.9C53.5 109.2 54.5 110.2 55.8 110.2Z" fill="#383777"/>
<path d="M68 16.2H51.8C50.5 16.2 49.5 17.2 49.5 18.5C49.5 19.8 50.5 20.8 51.8 20.8H68C69.3 20.8 70.3 19.8 70.3 18.5C70.3 17.3 69.3 16.2 68 16.2Z" fill="#383777"/>
<path d="M68 24.4H51.8C50.5 24.4 49.5 25.4 49.5 26.7C49.5 28 50.5 29 51.8 29H68C69.3 29 70.3 28 70.3 26.7C70.3 25.4 69.3 24.4 68 24.4Z" fill="#383777"/>
<path d="M68 32.5H51.8C50.5 32.5 49.5 33.5 49.5 34.8C49.5 36.1 50.5 37.1 51.8 37.1H68C69.3 37.1 70.3 36.1 70.3 34.8C70.3 33.5 69.3 32.5 68 32.5Z" fill="#383777"/>
<path d="M31.5 92H39.6C40.9 92 41.9 91 41.9 89.7C41.9 88.4 40.9 87.4 39.6 87.4H31.5C30.2 87.4 29.2 88.4 29.2 89.7C29.1 90.9 30.2 92 31.5 92Z" fill="#383777"/>
<path d="M31.5 116.3H39.6C40.9 116.3 41.9 115.3 41.9 114C41.9 112.7 40.9 111.7 39.6 111.7H31.5C30.2 111.7 29.2 112.7 29.2 114C29.1 115.3 30.2 116.3 31.5 116.3Z" fill="#383777"/>
<path d="M55.8 116.3H63.9C65.2 116.3 66.2 115.3 66.2 114C66.2 112.7 65.2 111.7 63.9 111.7H55.8C54.5 111.7 53.5 112.7 53.5 114C53.5 115.3 54.5 116.3 55.8 116.3Z" fill="#383777"/>
</g>
</svg>
