<svg width="132" height="132" viewBox="0 0 132 132" fill="none" xmlns="http://www.w3.org/2000/svg">
<path d="M128.2 45.75L86.5 4.14999C84.3 1.94999 81.3 0.649994 78.1 0.649994C74.9 0.649994 71.9 1.84999 69.7 4.14999L3.70001 70.15C1.50001 72.35 0.200012 75.35 0.200012 78.55C0.200012 81.75 1.40001 84.75 3.70001 86.95L8.80002 92.05L43.3 126.55H38.5C37 126.55 35.8 127.75 35.8 129.25C35.8 130.75 37 131.95 38.5 131.95H53.7H93.3C94.8 131.95 96 130.75 96 129.25C96 127.75 94.8 126.55 93.3 126.55H64.2L128.2 62.55C132.8 58.05 132.8 50.45 128.2 45.75ZM124.3 58.75L58.3 124.75C57.1 125.95 55.5 126.65 53.7 126.65C52 126.65 50.4 125.95 49.1 124.75L14.5 90.15L77.9 26.75C79 25.65 79 23.95 77.9 22.85C76.8 21.75 75.1 21.75 74 22.85L10.6 86.25L7.40002 83.05C6.20002 81.85 5.5 80.25 5.5 78.45C5.5 76.75 6.20002 75.05 7.40002 73.85L73.4 7.84999C74.6 6.64999 76.2 5.94999 78 5.94999C79.7 5.94999 81.4 6.64999 82.6 7.84999L97.4 22.65L34 86.05C32.9 87.15 32.9 88.85 34 89.95C34.5 90.45 35.2 90.75 35.9 90.75C36.6 90.75 37.3 90.45 37.8 89.95L101.2 26.55L124.2 49.55C126.8 52.15 126.8 56.25 124.3 58.75Z" fill="#383777"/>
<path d="M67.6 79.75C66.5 78.65 64.8 78.65 63.7 79.75L42.2 101.35C41.1 102.45 41.1 104.15 42.2 105.25C42.7 105.75 43.4 106.05 44.1 106.05C44.8 106.05 45.5 105.75 46 105.25L67.6 83.65C68.7 82.55 68.7 80.85 67.6 79.75Z" fill="#383777"/>
<path d="M58.8 100.25L50 109.05C48.9 110.15 48.9 111.85 50 112.95C50.5 113.45 51.2 113.75 51.9 113.75C52.6 113.75 53.3 113.45 53.8 112.95L62.6 104.15C63.7 103.05 63.7 101.35 62.6 100.25C61.6 99.15 59.9 99.15 58.8 100.25Z" fill="#383777"/>
<path d="M66.9 92.15L65.7 93.35C64.6 94.45 64.6 96.15 65.7 97.25C66.2 97.75 66.9 98.05 67.6 98.05C68.3 98.05 69 97.75 69.5 97.25L70.7 96.05C71.8 94.95 71.8 93.25 70.7 92.15C69.7 91.05 68 91.05 66.9 92.15Z" fill="#383777"/>
<path d="M104.7 42.75C104.2 42.25 103.5 41.95 102.8 41.95C102.1 41.95 101.4 42.25 100.9 42.75L89.2 54.35C88.7 54.85 88.4 55.55 88.4 56.25C88.4 56.95 88.7 57.65 89.2 58.15L97 65.95C97.5 66.45 98.2 66.75 98.9 66.75C99.6 66.75 100.3 66.45 100.8 65.95L112.4 54.35C113.5 53.25 113.5 51.55 112.4 50.45L104.7 42.75ZM98.9 60.15L95 56.25L102.8 48.45L106.7 52.35L98.9 60.15Z" fill="#383777"/>
<path d="M82.4 21.25C83.1 21.25 83.8 20.95 84.3 20.45L85.5 19.25C86.6 18.15 86.6 16.45 85.5 15.35C84.4 14.25 82.7 14.25 81.6 15.35L80.4 16.55C79.3 17.65 79.3 19.35 80.4 20.45C81 20.95 81.7 21.25 82.4 21.25Z" fill="#383777"/>
<path d="M27.7 92.65L26.5 93.85C25.4 94.95 25.4 96.65 26.5 97.75C27 98.25 27.7 98.55 28.4 98.55C29.1 98.55 29.8 98.25 30.3 97.75L31.5 96.55C32.6 95.45 32.6 93.75 31.5 92.65C30.5 91.55 28.7 91.55 27.7 92.65Z" fill="#383777"/>
</svg>
