<svg  viewBox="0 0 153 43" fill="none" xmlns="http://www.w3.org/2000/svg">
<path d="M62 18.325L60.3 11.425C60.8 11.325 61.1 10.925 61.1 10.425V9.32496C61.1 6.92496 59.1001 4.92496 56.7001 4.92496H48.9V2.62496C48.9 1.42496 47.9 0.524963 46.8 0.524963H6.90005C5.70005 0.524963 4.80005 1.52496 4.80005 2.62496V21.525C4.80005 22.125 5.30005 22.525 5.80005 22.525C6.40005 22.525 6.80005 22.025 6.80005 21.525V2.62496C6.80005 2.62496 6.80005 2.52496 6.90005 2.52496H46.8C46.8 2.52496 46.9 2.52496 46.9 2.62496V21.525C46.9 22.125 47.4 22.525 47.9 22.525C48.4 22.525 48.9 22.025 48.9 21.525V20.325H61.2001C62.7001 20.325 64 21.325 64.4 22.725H61.2001C60.6001 22.725 60.2001 23.225 60.2001 23.725V25.925C60.2001 27.725 61.7001 29.225 63.5 29.225H64.7001V33.825H62C61.1 31.225 58.7001 29.425 55.8 29.425C52.9 29.425 50.5 31.325 49.6 33.825H49.1V26.025C49.1 25.425 48.6 25.025 48.1 25.025C47.6 25.025 47.1 25.525 47.1 26.025V33.825H25.3C24.4 31.225 22 29.425 19.1 29.425C16.2 29.425 13.8 31.325 12.9 33.825H6.90005C6.90005 33.825 6.80005 33.825 6.80005 33.725V31.425H11.3C11.9 31.425 12.3 30.925 12.3 30.425C12.3 29.825 11.8 29.425 11.3 29.425H1.30005C0.700049 29.425 0.300049 29.925 0.300049 30.425C0.300049 31.025 0.800049 31.425 1.30005 31.425H4.70005V33.725C4.70005 34.925 5.70005 35.825 6.80005 35.825H12.4C12.4 35.825 12.4 35.825 12.4 35.925C12.4 39.525 15.4 42.525 19 42.525C22.6 42.525 25.6 39.525 25.6 35.925C25.6 35.925 25.6 35.925 25.6 35.825H49C49 35.825 49 35.825 49 35.925C49 39.525 52 42.525 55.6 42.525C59.2 42.525 62.2001 39.525 62.2001 35.925C62.2001 35.925 62.2001 35.925 62.2001 35.825H65.6001C66.2001 35.825 66.6001 35.325 66.6001 34.825V23.725C66.7001 21.025 64.7001 18.725 62 18.325ZM49 7.02496H56.8C58.1 7.02496 59.1 8.02496 59.1 9.32496V9.42496H49V7.02496ZM49 18.225V11.425H58.2001L59.9 18.225H49ZM19.1 40.425C16.6 40.425 14.6 38.425 14.6 35.925C14.6 33.425 16.6 31.425 19.1 31.425C21.6 31.425 23.6 33.425 23.6 35.925C23.6 38.425 21.6 40.425 19.1 40.425ZM55.7001 40.425C53.2001 40.425 51.2001 38.425 51.2001 35.925C51.2001 33.425 53.2001 31.425 55.7001 31.425C58.2001 31.425 60.2001 33.425 60.2001 35.925C60.2001 38.425 58.2001 40.425 55.7001 40.425ZM64.6001 27.125H63.4C62.8 27.125 62.2001 26.625 62.2001 25.925V24.725H64.6001V27.125Z" fill="#383777"/>
</svg>
