<svg width="136" height="152" viewBox="0 0 136 152" fill="none" xmlns="http://www.w3.org/2000/svg">
<g>
<path d="M119.5 25C114.9 24.4 110.3 23.4 106.1 21.9C104.7 21.4 103.2 22.2 102.8 23.6C102.3 25 103.1 26.5 104.5 26.9C109.1 28.4 114 29.6 119 30.2C126.2 31.1 131.3 37.7 130.4 45C129.2 54.8 127 69.4 123.4 83.4C119.5 98.6 114.8 109.2 109.7 114.8C99 126.5 85.7 136.8 76.3 143.4C71.5 146.8 65.1 146.8 60.3 143.4C51 136.8 37.6 126.4 26.9 114.8C21.7 109.2 17.1 98.6 13.2 83.4C9.6 69.4 7.4 54.8 6.2 45C5.3 37.8 10.4 31.1 17.6 30.2C39.1 27.5 53.4 16.7 61.5 8.1C63.3 6.2 65.7 5.2 68.2 5.2C70.8 5.2 73.2 6.2 74.9 8.1C80.8 14.3 87.6 19.3 95.1 23.1C95.7 23.4 96.4 23.5 97.1 23.2C97.8 23 98.3 22.5 98.6 21.9C99.2 20.6 98.7 19 97.4 18.4C90.4 14.9 84.1 10.2 78.6 4.5C75.9 1.6 72.2 0 68.2 0C64.2 0 60.4 1.6 57.6 4.5C50 12.5 36.8 22.5 16.8 25C6.8 26.3 -0.4 35.6 0.8 45.7C2.9 62.6 9.1 103.4 22.9 118.5C33.9 130.5 47.6 141.1 57.1 147.9C60.3 150.2 64.1 151.4 68.1 151.4C72.1 151.4 75.9 150.2 79.1 147.9C88.7 141.1 102.4 130.5 113.3 118.5C127 103.5 133.3 62.6 135.4 45.7C136.7 35.6 129.5 26.3 119.5 25Z" fill="#383777"/>
<path d="M62.9 20.8C51.8 30.4 38.9 36.7 24.4 39.5C19.8 40.4 16.6 44.8 17.3 49.5C18.3 57 20.4 71.2 23 80.9C27.6 98.7 32.1 105.5 34.4 108C41.8 116.1 55.5 126.8 62.9 132.5C64.4 133.6 66.3 134.3 68.2 134.3C70.1 134.3 72 133.7 73.5 132.5C81 126.8 94.7 116 102 108C104.3 105.5 108.8 98.7 113.4 80.9C115.9 71.2 118 57 119.1 49.5C119.7 44.8 116.6 40.4 112 39.5C97.6 36.7 84.6 30.4 73.5 20.8C70.4 18.2 65.9 18.2 62.9 20.8ZM68.2 24.1C68.9 24.1 69.5 24.3 70 24.8C81.8 35 95.5 41.7 110.9 44.6C112.8 45 114.1 46.8 113.8 48.7C112.8 56.1 110.7 70 108.3 79.5C103.7 97.3 99.4 103 98.1 104.4C90.7 112.5 76.2 123.8 70.2 128.3C69 129.2 67.2 129.2 66 128.3C60.1 123.8 45.5 112.5 38.2 104.4C37 103.1 32.7 97.3 28 79.5C25.5 70 23.5 56.1 22.5 48.7C22.2 46.8 23.5 44.9 25.4 44.6C40.8 41.6 54.5 35 66.3 24.7C66.9 24.4 67.5 24.1 68.2 24.1Z" fill="#383777"/>
<path d="M45.6 82L52 87.2C52.5 87.6 53.2 87.8 53.9 87.8C54.6 87.7 55.2 87.4 55.7 86.8C56.6 85.7 56.4 84 55.3 83.1L48.9 77.9C48.7 77.7 46.6 75.9 48.5 73.4C49 72.7 49.7 72.2 50.4 72.2C51.5 72.1 52.5 72.6 52.9 73L66.1 83.8C67.1 84.7 68.7 84.6 69.6 83.6L89 64.4C90.2 63.2 92.2 63.2 93.5 64.4C94.1 65 94.4 65.8 94.4 66.6C94.4 67.4 94.1 68.2 93.5 68.8L70.4 91.7C68.4 93.6 66.4 92.1 66.2 91.9L62.5 88.9C61.4 88 59.7 88.2 58.8 89.3C58.4 89.8 58.2 90.5 58.2 91.2C58.2 91.9 58.6 92.5 59.2 93L62.9 96C64.4 97.2 66.3 97.9 68.2 97.9C70.4 97.9 72.5 97 74.1 95.5L97.2 72.7C98.8 71.1 99.7 69 99.7 66.7C99.7 64.4 98.8 62.3 97.3 60.7C95.7 59.1 93.6 58.2 91.3 58.2C89.1 58.2 87 59.1 85.4 60.6L67.6 78.1L56.2 68.8C55.1 67.9 52.4 66.5 49.6 66.8C47.6 67 45.8 68.1 44.4 70C40.2 75.6 43.8 80.5 45.6 82Z" fill="#383777"/>
</g>
</svg>
