<svg  viewBox="0 0 153 129" fill="none" xmlns="http://www.w3.org/2000/svg">
<g>
<path d="M133.9 0.199982H24.7C19.5 0.199982 15.2 4.49998 15.2 9.69998V85.7H3.29999C1.99999 85.7 0.899994 86.8 0.899994 88.1C0.899994 93.3 5.19999 97.6 10.4 97.6H79.3V126.1C79.3 127.4 80.4 128.5 81.7 128.5C82.3 128.5 82.9 128.2 83.4 127.8L95.9 115.2L108.5 127.8C108.9 128.2 109.5 128.5 110.2 128.5C110.5 128.5 110.8 128.4 111.1 128.3C112 127.9 112.6 127.1 112.6 126.1V97.6H119.7C124.9 97.6 129.2 93.3 129.2 88.1V12.1H141.1C142.4 12.1 143.5 11 143.5 9.69998C143.4 4.49998 139.2 0.199982 133.9 0.199982ZM124.4 9.69998V85.7H114.9V90.5H123.8C123 92 121.4 92.9 119.7 92.9H112.6V90.5H107.8V120.4L97.6 110.2C96.7 109.3 95.2 109.3 94.2 110.2L84 120.4V90.5H79.2V92.9H10.4C8.69999 92.9 7.09999 92 6.29999 90.5H76.9V85.7H19.9V9.69998C19.9 7.09998 22 4.89998 24.7 4.89998H125.8C124.9 6.39998 124.4 7.99998 124.4 9.69998ZM129.8 7.29998C131.1 4.99998 134 4.29998 136.3 5.59998C137 5.99998 137.6 6.59998 138 7.29998H129.8Z" fill="#383777"/>
<path d="M118.3 74.5L115.3 69L118.4 63.6C119 62.5 118.6 61 117.5 60.4C117.4 60.4 117.4 60.3 117.3 60.3L111.6 57.7L110.9 51.5C110.7 50.2 109.6 49.3 108.3 49.4C108.2 49.4 108.2 49.4 108.1 49.4L102 50.6L97.8 46C96.9 45 95.3 45 94.3 46L89.9 50.7L83.8 49.5C82.5 49.2 81.3 50.1 81 51.4C81 51.5 81 51.5 81 51.6L80.3 57.8L74.6 60.4C73.4 60.9 72.9 62.4 73.4 63.5C73.4 63.6 73.5 63.6 73.5 63.7L76.6 69.1L73.5 74.5C72.9 75.6 73.3 77.1 74.4 77.7C74.5 77.7 74.5 77.8 74.6 77.8L80.3 80.4L81 86.6C81.2 87.9 82.3 88.8 83.6 88.7C83.7 88.7 83.7 88.7 83.8 88.7L89.9 87.5L94.1 92.1C95 93.1 96.5 93.1 97.5 92.2L97.6 92.1L101.8 87.5L107.9 88.7C108.5 88.8 109.2 88.7 109.8 88.3C110.3 87.9 110.7 87.3 110.7 86.7L111.4 80.5L117.1 77.9C118.3 77.4 118.8 75.9 118.3 74.8C118.4 74.7 118.3 74.6 118.3 74.5ZM110.5 70.2L112.9 74.6L108.4 76.7C107.6 77 107.1 77.8 107 78.6L106.4 83.6L101.5 82.6C100.7 82.4 99.9 82.7 99.3 83.3L95.9 87L92.5 83.3C92 82.8 91.4 82.5 90.8 82.5C90.6 82.5 90.5 82.5 90.3 82.5L85.4 83.5L84.8 78.5C84.7 77.7 84.2 77 83.4 76.6L78.9 74.6L81.3 70.2C81.7 69.5 81.7 68.6 81.3 67.9L78.9 63.6L83.4 61.5C84.2 61.2 84.7 60.4 84.8 59.6L85.4 54.6L90.3 55.6C91.1 55.8 91.9 55.5 92.5 54.9L95.9 51.2L99.3 54.9C99.9 55.5 100.7 55.8 101.5 55.6L106.4 54.6L107 59.6C107.1 60.4 107.6 61.1 108.4 61.5L112.9 63.6L110.5 68C110.1 68.6 110.1 69.5 110.5 70.2Z" fill="#383777"/>
<path d="M95.9 57.2C89.3 57.2 84 62.5 84 69.1C84 75.7 89.3 81 95.9 81C102.5 81 107.8 75.7 107.8 69.1C107.8 62.5 102.5 57.2 95.9 57.2ZM95.9 76.2C92 76.2 88.8 73 88.8 69.1C88.8 65.2 92 62 95.9 62C99.8 62 103 65.2 103 69.1C103 73 99.8 76.2 95.9 76.2Z" fill="#383777"/>
<path d="M91.2 14.5H53.2V19.3H91.2V14.5Z" fill="#383777"/>
<path d="M114.9 28.7H29.4V33.5H114.9V28.7Z" fill="#383777"/>
<path d="M114.9 38.2H29.4V43H114.9V38.2Z" fill="#383777"/>
<path d="M62.7 69.1H31.8V73.9H62.7V69.1Z" fill="#383777"/>
</g>
</svg>
