<svg  viewBox="0 0 153 123" fill="none" xmlns="http://www.w3.org/2000/svg">
<g>
<path d="M121.9 61.15C121.9 27.55 94.5 0.25 60.9 0.25C50.4 0.25 40.1 2.95 31 8.15H23.5V0.25H11.8V25.15C4.1 35.65 0 48.15 0 61.15C0 94.75 27.3 122.05 60.9 122.05C68.4 122.05 75.7 120.75 82.6 118.05C86.6 120.55 91.2 122.05 96.3 122.05C102.4 122.05 108.4 119.85 113 115.85L110.4 112.85C106.5 116.25 101.5 118.05 96.3 118.05C84.4 118.05 74.7 108.35 74.7 96.45C74.7 84.55 84.4 74.85 96.3 74.85C108.2 74.85 117.9 84.55 117.9 96.45C117.9 101.45 116.3 106.15 113.1 109.95L116.2 112.45C119.8 107.95 121.8 102.25 121.8 96.45C121.8 91.45 120.3 86.75 117.8 82.75C120.5 75.95 121.9 68.65 121.9 61.15ZM31.5 19.95H35.4V47.45H31.5V19.95ZM23.6 12.05H27.5V47.45H23.6V12.05ZM15.7 4.15H19.6V47.35H15.7V4.15ZM59 118.15C29.1 117.15 5 93.05 4 63.15H59V118.15ZM59 59.25H4C4.3 49.65 7 40.55 11.8 32.35V51.35H55V31.75H47.1V23.85H39.2V15.95H31.3V12.35C39.8 7.35 49.2 4.55 59 4.25V59.25ZM39.3 47.45V27.75H43.2V47.45H39.3ZM47.2 47.45V35.65H51.1V47.45H47.2ZM117.9 59.25H101.1L115.6 44.75C116.9 49.35 117.7 54.25 117.9 59.25ZM108 29.05L86 51.05L88.8 53.85L110.1 32.55C111.6 35.15 112.9 37.85 114.1 40.75L95.5 59.25H83.4L85.9 56.75L83.1 53.95L77.8 59.25H65.7L102.6 22.35C104.5 24.45 106.4 26.65 108 29.05ZM62.9 4.25C67.9 4.45 72.8 5.25 77.4 6.65L62.9 21.05V4.25ZM62.9 44.35L86.8 20.45L84 17.65L62.9 38.75V26.65L81.5 8.05C84.3 9.15 87.1 10.45 89.7 12.05L86.5 15.25L89.3 18.05L93.1 14.25C95.5 15.85 97.7 17.65 99.8 19.65L62.9 56.45V44.35ZM96.3 71.05C82.2 71.05 70.7 82.55 70.7 96.65C70.7 104.05 73.9 110.65 78.9 115.35C73.7 117.05 68.3 118.05 62.8 118.25V63.25H117.8C117.6 68.75 116.7 74.15 114.9 79.35C110.4 74.15 103.7 71.05 96.3 71.05Z" fill="#383777"/>
<path d="M24.2 95.15L47.8 71.55L50.6 74.35L27 97.95L24.2 95.15Z" fill="#383777"/>
<path d="M45.2 86.75C41.9 86.75 39.3 89.35 39.3 92.65C39.3 95.95 41.9 98.55 45.2 98.55C48.5 98.55 51.1 95.95 51.1 92.65C51.1 89.35 48.5 86.75 45.2 86.75ZM45.2 94.65C44.1 94.65 43.2 93.75 43.2 92.65C43.2 91.55 44.1 90.65 45.2 90.65C46.3 90.65 47.2 91.55 47.2 92.65C47.2 93.75 46.3 94.65 45.2 94.65Z" fill="#383777"/>
<path d="M29.5 71.05C26.2 71.05 23.6 73.65 23.6 76.95C23.6 80.25 26.2 82.85 29.5 82.85C32.8 82.85 35.4 80.25 35.4 76.95C35.4 73.65 32.7 71.05 29.5 71.05ZM29.5 78.85C28.4 78.85 27.5 77.95 27.5 76.85C27.5 75.75 28.4 74.85 29.5 74.85C30.6 74.85 31.5 75.75 31.5 76.85C31.5 77.95 30.6 78.85 29.5 78.85Z" fill="#383777"/>
<path d="M96.3 94.65C94.1 94.65 92.4 92.85 92.4 90.75C92.4 88.65 94.2 86.85 96.3 86.85C98.5 86.85 100.2 88.65 100.2 90.75H104.1C104.1 87.05 101.6 84.05 98.2 83.15V78.95H94.3V83.15C90.9 84.05 88.4 87.05 88.4 90.75C88.4 95.05 91.9 98.65 96.3 98.65C98.5 98.65 100.2 100.45 100.2 102.55C100.2 104.65 98.4 106.45 96.3 106.45C94.1 106.45 92.4 104.65 92.4 102.55H88.5C88.5 106.25 91 109.25 94.4 110.15V114.35H98.3V110.15C101.7 109.25 104.2 106.25 104.2 102.55C104.2 98.15 100.7 94.65 96.3 94.65Z" fill="#383777"/>
<path d="M114 94.65H110.1V98.55H114V94.65Z" fill="#383777"/>
<path d="M82.5 94.65H78.6V98.55H82.5V94.65Z" fill="#383777"/>
</g>
</svg>
