<svg  viewBox="0 0 153 125" fill="none" xmlns="http://www.w3.org/2000/svg">
<g>
<path d="M110.6 36.3C112.2 34.4 113.1 31.9 113.1 29.2V27C113.1 20.8 108 15.7 101.8 15.7C95.6 15.7 90.5 20.8 90.5 27V29.2C90.5 31.9 91.5 34.4 93 36.3C91.1 36.8 89.2 37.7 87.5 38.8V37C87.5 29.7 81.5 23.7 74.2 23.7H72.6C74.5 21.4 75.6 18.5 75.6 15.3V13.3C75.8 6 69.8 0 62.5 0C55.2 0 49.2 6 49.2 13.3V15.3C49.2 18.5 50.3 21.4 52.2 23.7H50.6C43.3 23.7 37.3 29.7 37.3 37V38.8C35.6 37.7 33.7 36.8 31.8 36.3C33.4 34.4 34.3 31.9 34.3 29.2V27C34.3 20.8 29.2 15.7 23 15.7C16.8 15.7 11.7 20.8 11.7 27V29.2C11.7 31.9 12.7 34.4 14.2 36.3C6.20001 38.5 0.200012 45.9 0.200012 54.8V74.7C0.200012 78.9 3.60001 82.4 7.90001 82.4H9.90001V122.1C9.90001 123.4 11 124.5 12.3 124.5H23H33.7C35 124.5 36.1 123.4 36.1 122.1V82.3H38.2C42.4 82.3 45.8 78.9 45.9 74.7C46.7 75 47.5 75.2 48.4 75.4V122.1C48.4 123.4 49.5 124.5 50.8 124.5H74.2C75.5 124.5 76.6 123.4 76.6 122.1V98.5C76.6 97.2 75.5 96.1 74.2 96.1C72.9 96.1 71.8 97.2 71.8 98.5V119.6H65V78.6C65 77.3 63.9 76.2 62.6 76.2C61.3 76.2 60.2 77.3 60.2 78.6V119.6H53.2V68H71.7V79.7C71.7 81 72.8 82.1 74.1 82.1C75.4 82.1 76.5 81 76.5 79.7V75.4C77.3 75.3 78.1 75 78.9 74.7C78.9 78.9 82.4 82.3 86.6 82.3H88.7V122C88.7 123.3 89.8 124.4 91.1 124.4H101.8H112.5C113.8 124.4 114.9 123.3 114.9 122V82.3H116.9C121.1 82.3 124.6 78.9 124.6 74.6V54.8C124.7 45.9 118.7 38.5 110.6 36.3ZM16.6 26.9C16.6 23.3 19.5 20.5 23 20.5C26.5 20.5 29.4 23.4 29.4 26.9V29.1C29.4 32.7 26.5 35.5 23 35.5C19.5 35.5 16.6 32.6 16.6 29.1V26.9ZM31.3 119.7H25.5V82.2C25.5 80.9 24.4 79.8 23.1 79.8C21.8 79.8 20.7 80.9 20.7 82.2V84.8C20.7 84.9 20.7 85 20.7 85.2V119.7H14.9V72.7H31.4V119.7H31.3ZM41.1 74.7C41.1 76.2 39.8 77.5 38.3 77.5H36.2V64.5C36.2 63.2 35.1 62.1 33.8 62.1C32.5 62.1 31.4 63.2 31.4 64.5V67.8H14.8V56.8C14.8 55.5 13.7 54.4 12.4 54.4C11.1 54.4 10 55.5 10 56.8V77.5H8.00001C6.50001 77.5 5.20001 76.2 5.20001 74.7V54.8C5.20001 46.9 11.6 40.5 19.5 40.5H26.8C30.8 40.5 34.7 42.2 37.4 45.2V62.3C37.4 65.9 38.8 69.1 41.1 71.5V74.7ZM62.5 4.9C67.1 4.9 70.9 8.7 70.9 13.3V15.3C70.9 19.9 67.1 23.7 62.5 23.7C57.9 23.7 54.1 19.9 54.1 15.3V13.3C54.1 8.6 57.9 4.9 62.5 4.9ZM82.8 62.3C82.8 66.2 80.2 69.4 76.6 70.4V37C76.6 35.7 75.5 34.6 74.2 34.6C72.9 34.6 71.8 35.7 71.8 37V63.1H53.2V37C53.2 35.7 52.1 34.6 50.8 34.6C49.5 34.6 48.4 35.7 48.4 37V70.4C44.8 69.4 42.2 66.1 42.2 62.3V37C42.2 32.3 46 28.6 50.6 28.6H59.9V35.2C59.9 36.5 61 37.6 62.3 37.6C63.6 37.6 64.7 36.5 64.7 35.2V28.6H74.2C78.9 28.6 82.6 32.4 82.6 37V62.3H82.8ZM95.4 26.9C95.4 23.3 98.3 20.5 101.8 20.5C105.4 20.5 108.2 23.4 108.2 26.9V29.1C108.2 32.7 105.3 35.5 101.8 35.5C98.2 35.5 95.4 32.6 95.4 29.1V26.9ZM110.1 119.7H104.3V85.1C104.3 85 104.3 84.9 104.3 84.7V82.1C104.3 80.8 103.2 79.7 101.9 79.7C100.6 79.7 99.5 80.8 99.5 82.1V119.6H93.7V72.7H110.2V119.7H110.1ZM117.1 77.5H115.1V56.8C115.1 55.5 114 54.4 112.7 54.4C111.4 54.4 110.3 55.5 110.3 56.8V67.9H93.6V64.6C93.6 63.3 92.5 62.2 91.2 62.2C89.9 62.2 88.8 63.3 88.8 64.6V77.5H86.7C85.2 77.5 83.9 76.2 83.9 74.7V71.6C86.2 69.2 87.7 65.9 87.7 62.3V45.1C90.4 42.1 94.3 40.5 98.3 40.5H105.6C113.5 40.5 119.9 46.9 119.9 54.8V74.7C119.9 76.2 118.6 77.5 117.1 77.5Z" fill="#383777"/>
<path d="M75.9 87.2C75.4 86.7 74.8 86.5 74.2 86.5C73.6 86.5 72.9 86.8 72.5 87.2C72 87.7 71.8 88.3 71.8 88.9C71.8 89.5 72.1 90.2 72.5 90.6C73 91.1 73.6 91.3 74.2 91.3C74.8 91.3 75.5 91 75.9 90.6C76.4 90.1 76.6 89.5 76.6 88.9C76.6 88.3 76.3 87.7 75.9 87.2Z" fill="#383777"/>
<path d="M64.1 42.6C63.6 42.1 63 41.9 62.4 41.9C61.8 41.9 61.1 42.2 60.7 42.6C60.2 43.1 60 43.7 60 44.3C60 44.9 60.3 45.6 60.7 46C61.2 46.5 61.8 46.7 62.4 46.7C63 46.7 63.7 46.4 64.1 46C64.6 45.5 64.8 44.9 64.8 44.3C64.8 43.6 64.6 43 64.1 42.6Z" fill="#383777"/>
</g>
</svg>
