<svg width="153" height="98" viewBox="0 -25 153 98" fill="none" xmlns="http://www.w3.org/2000/svg">
<g>
<path d="M142.1 41.75L138.1 25.95C139.2 25.75 140 24.75 140 23.65V21.15C140 15.65 135.5 11.15 130 11.15H112.1V5.85001C112.1 3.15001 109.9 0.950012 107.2 0.950012H15.8C13.1 0.950012 10.9 3.15001 10.9 5.85001V49.05C10.9 50.35 12 51.45 13.3 51.45C14.6 51.45 15.7 50.35 15.7 49.05V5.85001C15.7 5.75001 15.8 5.65001 15.9 5.65001H107.3C107.4 5.65001 107.5 5.75001 107.5 5.85001V49.05C107.5 50.35 108.6 51.45 109.9 51.45C111.2 51.45 112.3 50.35 112.3 49.05V46.35H140.4C143.9 46.35 146.8 48.65 147.8 51.75H140.4C139.1 51.75 138 52.85 138 54.15V59.25C138 63.35 141.3 66.75 145.5 66.75H148.2V77.25H141.7C139.7 71.35 134 67.05 127.5 67.05C120.9 67.05 115.3 71.35 113.3 77.25H112.2V59.15C112.2 57.85 111.1 56.75 109.8 56.75C108.5 56.75 107.4 57.85 107.4 59.15V77.05H58C55.9 71.25 50.3 66.95 43.7 66.95C37.1 66.95 31.5 71.25 29.5 77.15H15.8C15.7 77.15 15.6 77.05 15.6 76.95V71.75H25.9C27.2 71.75 28.3 70.65 28.3 69.35C28.3 68.05 27.2 66.95 25.9 66.95H3.10001C1.80001 66.95 0.700012 68.05 0.700012 69.35C0.700012 70.65 1.80001 71.75 3.10001 71.75H10.9V76.95C10.9 79.65 13.1 81.85 15.8 81.85H28.7C28.7 81.95 28.7 81.95 28.7 82.05C28.7 90.35 35.5 97.15 43.8 97.15C52.1 97.15 58.9 90.35 58.9 82.05C58.9 81.95 58.9 81.95 58.9 81.85H112.5C112.5 81.95 112.5 81.95 112.5 82.05C112.5 90.35 119.3 97.15 127.6 97.15C135.9 97.15 142.7 90.35 142.7 82.05C142.7 81.95 142.7 81.95 142.7 81.85H150.5C151.8 81.85 152.9 80.75 152.9 79.45V54.15C152.7 47.85 148.1 42.65 142.1 41.75ZM112.1 15.85H130C132.9 15.85 135.2 18.15 135.2 21.05V21.25H112V15.85H112.1ZM112.1 41.55V26.05H133.3L137.2 41.65H112.1V41.55ZM43.7 92.35C38 92.35 33.4 87.75 33.4 82.05C33.4 76.35 38 71.75 43.7 71.75C49.4 71.75 54 76.35 54 82.05C54 87.75 49.4 92.35 43.7 92.35ZM127.5 92.35C121.8 92.35 117.2 87.75 117.2 82.05C117.2 76.35 121.8 71.75 127.5 71.75C133.2 71.75 137.8 76.35 137.8 82.05C137.8 87.75 133.2 92.35 127.5 92.35ZM148 61.85H145.3C143.8 61.85 142.6 60.65 142.6 59.15V56.45H148V61.85Z" fill="#383777"/>
<path d="M43.7 77.15C41 77.15 38.8 79.35 38.8 82.05C38.8 84.75 41 86.95 43.7 86.95C46.4 86.95 48.6 84.75 48.6 82.05C48.6 79.35 46.4 77.15 43.7 77.15Z" fill="#383777"/>
<path d="M127.5 77.15C124.8 77.15 122.6 79.35 122.6 82.05C122.6 84.75 124.8 86.95 127.5 86.95C130.2 86.95 132.4 84.75 132.4 82.05C132.4 79.35 130.2 77.15 127.5 77.15Z" fill="#383777"/>
<path d="M99.6 66.95H64C62.7 66.95 61.6 68.05 61.6 69.35C61.6 70.65 62.7 71.75 64 71.75H99.5C100.8 71.75 101.9 70.65 101.9 69.35C101.9 68.05 100.9 66.95 99.6 66.95Z" fill="#383777"/>
<path d="M38.6 56.85H8.20002C6.90002 56.85 5.80002 57.95 5.80002 59.25C5.80002 60.55 6.90002 61.65 8.20002 61.65H38.7C40 61.65 41.1 60.55 41.1 59.25C41 57.85 39.9 56.85 38.6 56.85Z" fill="#383777"/>
<path d="M83.5 24.45C82.6 23.55 81.1 23.55 80.1 24.45L58.9 45.65L47.9 34.65C47 33.75 45.5 33.75 44.5 34.65C43.6 35.55 43.6 37.05 44.5 38.05L57.2 50.75C57.7 51.25 58.3 51.45 58.9 51.45C59.5 51.45 60.1 51.25 60.6 50.75L83.5 27.85C84.4 26.95 84.4 25.45 83.5 24.45Z" fill="#383777"/>
</g>
</svg>
