<svg width="119" height="119" viewBox="0 0 119 119" fill="none" xmlns="http://www.w3.org/2000/svg">
<path d="M118.28 28.6875C117.88 27.1875 116.88 25.8875 115.58 25.0875C114.18 24.2875 112.58 24.0875 111.08 24.4875C109.58 24.8875 108.28 25.8875 107.48 27.1875L106.48 28.8875C105.58 28.3875 104.38 28.6875 103.78 29.5875L98.7795 38.0875L97.0795 37.0875C96.5795 36.7875 96.0795 36.7875 95.5795 36.8875C95.0795 36.9875 94.6795 37.3875 94.3795 37.7875C93.8795 38.6875 94.1795 39.8875 95.0795 40.4875L96.7795 41.4875L80.0795 70.3875L75.9796 81.3875L73.9796 85.0875C72.8796 87.0875 72.9795 89.5875 74.2795 91.3875L69.8795 96.7875L68.6796 93.6875C68.0796 92.2875 66.8795 91.3875 65.3795 91.2875C63.8795 91.1875 62.4796 91.8875 61.6796 93.1875L60.9796 94.3875L60.2795 86.5875C60.0795 84.6875 58.6795 83.2875 56.8795 82.9875C55.0795 82.7875 53.2796 83.8875 52.6796 85.5875L47.8795 100.087C47.5795 101.087 48.0795 102.187 49.0795 102.587C49.2795 102.687 49.4796 102.687 49.6796 102.787C50.4796 102.787 51.2795 102.287 51.5795 101.487L56.3795 86.9875L57.0795 94.9875C57.1795 96.6875 58.4795 98.0875 60.0795 98.4875C61.7795 98.8875 63.4795 98.1875 64.3795 96.6875L65.0795 95.4875L66.2795 98.5875C66.7795 99.8875 67.9795 100.787 69.3795 100.987C70.7795 101.187 72.1796 100.687 72.9796 99.5875L77.5795 93.7875C78.0795 93.8875 78.5795 93.9875 79.0795 93.9875C81.1795 93.9875 83.0796 92.8875 84.1796 91.0875L86.1796 87.7875L93.6796 78.6875L110.48 49.4875L112.18 50.4875C112.68 50.7875 112.98 51.1875 113.08 51.6875C113.18 52.1875 113.18 52.6875 112.88 53.1875L105.08 66.7875C104.78 67.1875 104.68 67.7875 104.78 68.2875C104.88 68.7875 105.18 69.2875 105.68 69.4875C106.18 69.7875 106.68 69.7875 107.18 69.6875C107.68 69.5875 108.08 69.1875 108.38 68.7875L116.18 55.1875C116.98 53.7875 117.18 52.1875 116.78 50.6875C116.38 49.1875 115.38 47.8875 114.08 47.0875L112.38 46.0875L117.28 37.5875C117.78 36.6875 117.48 35.4875 116.58 34.8875L117.58 33.1875C118.48 31.8875 118.78 30.2875 118.28 28.6875ZM110.88 29.2875C111.18 28.7875 111.58 28.4875 112.08 28.3875C112.58 28.2875 113.08 28.2875 113.58 28.5875C114.08 28.8875 114.38 29.2875 114.48 29.7875C114.58 30.2875 114.58 30.7875 114.28 31.2875L113.28 32.9875L109.88 30.9875L110.88 29.2875ZM84.1796 83.9875L83.1796 83.3875L80.2795 81.6875L83.0795 74.2875L89.2795 77.8875L84.1796 83.9875ZM78.3795 89.6875C77.5795 89.0875 77.2795 87.9875 77.7795 87.0875L78.7795 85.3875L82.1796 87.3875L81.1796 89.0875C80.8796 89.5875 80.4795 89.8875 79.8795 89.9875C79.3795 90.0875 78.7795 89.9875 78.3795 89.6875ZM91.4796 74.6875L84.6796 70.7875L100.38 43.5875L107.18 47.4875L91.4796 74.6875ZM109.18 44.0875L102.38 40.1875L106.28 33.3875L113.08 37.2875L109.18 44.0875Z" fill="#383777"/>
<path d="M31.8795 88.6875L24.9796 95.5875L20.7796 91.3875C19.9796 90.5875 18.7796 90.5875 17.9796 91.3875C17.5796 91.7875 17.3795 92.2875 17.3795 92.7875C17.3795 93.2875 17.5796 93.7875 17.9796 94.1875L22.1796 98.3875C22.8796 99.0875 23.8796 99.4875 24.9796 99.4875C25.9796 99.4875 26.9796 99.0875 27.7796 98.3875L34.6796 91.4875C35.3796 90.6875 35.2796 89.5875 34.5796 88.7875C33.7796 88.0875 32.5795 87.9875 31.8795 88.6875Z" fill="#383777"/>
<path d="M8.77957 93.9875C8.77957 103.187 16.2796 110.687 25.4796 110.687C34.6796 110.687 42.1796 103.187 42.1796 93.9875C42.1796 92.8875 41.2796 91.9875 40.1796 91.9875C39.0796 91.9875 38.1796 92.8875 38.1796 93.9875C38.1796 100.987 32.4796 106.687 25.4796 106.687C18.4796 106.687 12.7796 100.987 12.7796 93.9875C12.7796 86.9875 18.4796 81.2875 25.4796 81.2875C28.2796 81.2875 30.8796 82.1875 33.0796 83.7875C33.9796 84.3875 35.1796 84.2875 35.7796 83.3875C36.3796 82.4875 36.2795 81.2875 35.3795 80.6875C30.3795 76.8875 23.5796 76.2875 17.9796 79.0875C12.3796 81.8875 8.77957 87.6875 8.77957 93.9875Z" fill="#383777"/>
<path d="M71.4796 16.5875C72.5796 16.5875 73.4796 15.6875 73.4796 14.5875C73.4796 13.4875 72.5796 12.5875 71.4796 12.5875H20.5796C19.4796 12.5875 18.5796 13.4875 18.5796 14.5875V22.3875C18.5796 23.4875 19.4796 24.3875 20.5796 24.3875H71.4796C72.5796 24.3875 73.4796 23.4875 73.4796 22.3875C73.4796 21.2875 72.5796 20.3875 71.4796 20.3875H22.4796V16.4875H71.4796V16.5875Z" fill="#383777"/>
<path d="M26.3795 28.2875C25.2795 28.2875 24.3795 29.1875 24.3795 30.2875C24.3795 31.3875 25.2795 32.2875 26.3795 32.2875H65.5796C66.6796 32.2875 67.5796 31.3875 67.5796 30.2875C67.5796 29.1875 66.6796 28.2875 65.5796 28.2875H26.3795Z" fill="#383777"/>
<path d="M77.3795 41.9875H34.2796C33.1796 41.9875 32.2796 42.8875 32.2796 43.9875C32.2796 45.0875 33.1796 45.9875 34.2796 45.9875H77.3795C78.4795 45.9875 79.3795 45.0875 79.3795 43.9875C79.2795 42.8875 78.4795 41.9875 77.3795 41.9875Z" fill="#383777"/>
<path d="M57.7796 55.6875C57.7796 54.5875 56.8796 53.6875 55.7796 53.6875H16.5796C15.4796 53.6875 14.5796 54.5875 14.5796 55.6875C14.5796 56.7875 15.4796 57.6875 16.5796 57.6875H55.7796C56.8796 57.6875 57.7796 56.7875 57.7796 55.6875Z" fill="#383777"/>
<path d="M77.3795 53.7875H63.6796C62.5796 53.7875 61.6796 54.6875 61.6796 55.7875C61.6796 56.8875 62.5796 57.7875 63.6796 57.7875H77.3795C78.4795 57.7875 79.3795 56.8875 79.3795 55.7875C79.2795 54.6875 78.4795 53.7875 77.3795 53.7875Z" fill="#383777"/>
<path d="M36.1796 67.4875C37.2796 67.4875 38.1796 66.5875 38.1796 65.4875C38.1796 64.3875 37.2796 63.4875 36.1796 63.4875H16.5796C15.4796 63.4875 14.5796 64.3875 14.5796 65.4875C14.5796 66.5875 15.4796 67.4875 16.5796 67.4875H36.1796Z" fill="#383777"/>
<path d="M44.0796 67.4875H57.7796C58.8796 67.4875 59.7796 66.5875 59.7796 65.4875C59.7796 64.3875 58.8796 63.4875 57.7796 63.4875H44.0796C42.9796 63.4875 42.0796 64.3875 42.0796 65.4875C42.0796 66.5875 42.9796 67.4875 44.0796 67.4875Z" fill="#383777"/>
<path d="M89.0796 90.9875C87.9796 90.9875 87.0796 91.8875 87.0796 92.9875V112.587C87.0796 113.687 86.1796 114.587 85.0796 114.587H6.77957C5.67957 114.587 4.77957 113.687 4.77957 112.587V6.78748C4.77957 5.68748 5.67957 4.78748 6.77957 4.78748H85.1796C86.2796 4.78748 87.1796 5.68748 87.1796 6.78748V43.5875C87.1796 44.6875 88.0796 45.5875 89.1796 45.5875C90.2796 45.5875 91.1796 44.6875 91.1796 43.5875V6.78748C91.1796 3.58748 88.5796 0.887482 85.2796 0.887482H6.77957C3.57957 0.887482 0.879547 3.48748 0.879547 6.78748V112.587C0.879547 115.787 3.47957 118.487 6.77957 118.487H85.1796C88.3796 118.487 91.0796 115.887 91.0796 112.587V92.9875C91.0796 91.8875 90.1796 90.9875 89.0796 90.9875Z" fill="#383777"/>
</svg>
