<svg  viewBox="0 0 153 61" fill="none" xmlns="http://www.w3.org/2000/svg">
<path d="M56.7001 13.525L29.0001 0.224963C28.8001 0.124963 28.5001 0.124963 28.2001 0.224963L0.700073 13.525C0.400073 13.625 0.200073 14.025 0.200073 14.325V46.725C0.200073 47.025 0.400073 47.425 0.700073 47.525L28.4001 60.825C28.5001 60.925 28.7001 60.925 28.8001 60.925C28.9001 60.925 29.1001 60.925 29.2001 60.825L56.9001 47.525C57.2001 47.425 57.4001 47.025 57.4001 46.725V14.325C57.2001 14.025 57.0001 13.725 56.7001 13.525ZM28.7001 2.02497L54.3001 14.425L46.9001 18.025C46.9001 18.025 46.8001 17.925 46.7001 17.925L21.3001 5.62497L28.7001 2.02497ZM19.3001 6.62497L44.9001 18.925L39.7001 21.425L14.1001 9.12497L19.3001 6.62497ZM45.4001 20.625V29.925L40.5001 32.325V23.025L45.4001 20.625ZM55.5001 46.225L29.6001 58.725V28.325L35.8001 25.325C36.2001 25.125 36.4001 24.625 36.2001 24.125C36.0001 23.725 35.5001 23.525 35.0001 23.725L28.7001 26.725L26.2001 25.525C25.8001 25.325 25.2001 25.525 25.0001 25.925C24.8001 26.325 25.0001 26.925 25.4001 27.125L27.8001 28.225V58.625L1.90007 46.225V15.825L21.6001 25.325C21.7001 25.425 21.9001 25.425 22.0001 25.425C22.3001 25.425 22.7001 25.225 22.8001 24.925C23.0001 24.525 22.8001 23.925 22.4001 23.725L3.10007 14.425L12.0001 10.125L38.8001 23.025V33.725C38.8001 34.025 39.0001 34.325 39.2001 34.525C39.3001 34.625 39.5001 34.625 39.7001 34.625C39.8001 34.625 40.0001 34.625 40.1001 34.525L46.8001 31.325C47.1001 31.225 47.3001 30.825 47.3001 30.525V19.725L55.5001 15.725V46.225Z" fill="#383777"/>
<path d="M9.30009 42.725L5.20009 40.725C4.80009 40.525 4.20009 40.725 4.00009 41.125C3.80009 41.525 4.00009 42.125 4.40009 42.325L8.50009 44.325C8.60009 44.425 8.80009 44.425 8.90009 44.425C9.20009 44.425 9.60009 44.225 9.70009 43.925C9.90009 43.525 9.70009 43.025 9.30009 42.725Z" fill="#383777"/>
<path d="M13.0001 40.325L5.20009 36.525C4.80009 36.325 4.20009 36.525 4.00009 36.925C3.80009 37.325 4.00009 37.925 4.40009 38.125L12.2001 41.925C12.3001 42.025 12.5001 42.025 12.6001 42.025C12.9001 42.025 13.3001 41.825 13.4001 41.525C13.7001 41.125 13.5001 40.525 13.0001 40.325Z" fill="#383777"/>
</svg>
