<svg width="126" height="126" viewBox="0 0 126 126" fill="none" xmlns="http://www.w3.org/2000/svg">
<path d="M21.4 111.65C20.9 111.15 20.3 110.95 19.7 110.95C19.1 110.95 18.4 111.25 18 111.65C17.5 112.15 17.3 112.75 17.3 113.35C17.3 113.95 17.6 114.65 18 115.05C18.5 115.55 19.1 115.75 19.7 115.75C20.3 115.75 21 115.45 21.4 115.05C21.9 114.55 22.1 113.95 22.1 113.35C22.1 112.75 21.8 112.15 21.4 111.65Z" fill="#383777"/>
<path d="M115.6 44.95C115.1 44.45 114.5 44.25 113.9 44.25C113.3 44.25 112.6 44.55 112.2 44.95C111.7 45.45 111.5 46.05 111.5 46.65C111.5 47.25 111.8 47.95 112.2 48.35C112.7 48.85 113.3 49.05 113.9 49.05C114.5 49.05 115.2 48.75 115.6 48.35C116.1 47.85 116.3 47.25 116.3 46.65C116.4 46.05 116.1 45.45 115.6 44.95Z" fill="#383777"/>
<path d="M125.3 0.849994C124.8 0.349994 124.2 0.149994 123.6 0.149994H63.3C61.9 0.149994 60.8 1.24999 60.8 2.64999V9.64999L37.6 15.85C36.3 16.15 35.5 17.55 35.9 18.85L47.9 63.85L37.5 74.25C36.2 72.35 33.9 71.05 31.4 71.05H7.9C3.8 71.05 0.5 74.35 0.5 78.45V118.45C0.5 122.55 3.8 125.85 7.9 125.85H31.4C34.8 125.85 37.7 123.45 38.5 120.25L41.4 122.75C43.7 124.75 46.5 125.75 49.5 125.75H123.5C124.9 125.75 126 124.65 126 123.25V2.54999C126 1.94999 125.8 1.34999 125.3 0.849994ZM33.8 118.35C33.8 119.75 32.7 120.85 31.3 120.85H7.9C6.5 120.85 5.4 119.75 5.4 118.35V78.35C5.4 76.95 6.5 75.85 7.9 75.85H17.2V104.15C17.2 105.55 18.3 106.65 19.7 106.65C21.1 106.65 22.2 105.55 22.2 104.15V75.95H31.5C32.9 75.95 34 77.05 34 78.45L33.8 118.35ZM41.2 19.95L60.8 14.65V23.75L59.2 24.15C58.6 24.35 58 24.75 57.7 25.25C57.4 25.85 57.3 26.45 57.5 27.15C58.4 30.65 56.3 34.25 52.8 35.25C52.2 35.45 51.6 35.85 51.3 36.35C51 36.95 50.9 37.55 51.1 38.25L60.7 73.65H55.8L53.3 63.75C53.2 63.45 53.1 63.15 52.9 62.85L41.2 19.95ZM60.8 35.05V55.75L56.4 39.15C58.2 38.15 59.7 36.75 60.8 35.05ZM96.1 120.75H49.6C47.8 120.75 46.1 120.05 44.7 118.95L38.8 113.75V79.85L49.5 69.15L51.4 76.75C51.7 77.85 52.7 78.55 53.8 78.55H102C103.9 78.55 105.4 80.05 105.4 81.95C105.4 83.85 103.9 85.35 102 85.35H77.3C75.9 85.35 74.8 86.45 74.8 87.85C74.8 89.25 75.9 90.35 77.3 90.35H109.7C111.6 90.35 113.1 91.85 113.1 93.75C113.1 95.65 111.6 97.15 109.7 97.15H77.3C75.9 97.15 74.8 98.25 74.8 99.65C74.8 101.05 75.9 102.15 77.3 102.15H104.4C106.3 102.15 107.8 103.65 107.8 105.55C107.8 107.45 106.3 108.95 104.4 108.95H77.3C75.9 108.95 74.8 110.05 74.8 111.45C74.8 112.85 75.9 113.95 77.3 113.95H96.1C98 113.95 99.5 115.45 99.5 117.35C99.5 119.25 97.9 120.75 96.1 120.75ZM121.1 120.75H103.6C104.1 119.75 104.3 118.55 104.3 117.35C104.3 116.15 104 114.95 103.6 113.95H104.4C109 113.95 112.7 110.25 112.7 105.65C112.7 104.35 112.4 103.05 111.8 101.95C115.3 100.95 117.9 97.75 117.9 93.95C117.9 92.05 117.3 90.35 116.3 88.95V57.75C116.3 56.35 115.2 55.25 113.8 55.25C112.4 55.25 111.3 56.35 111.3 57.75V85.65C110.7 85.55 110.1 85.45 109.5 85.45H109.4C109.9 84.45 110.1 83.25 110.1 82.05C110.1 77.45 106.4 73.75 101.8 73.75H97.9C102.1 71.95 105 67.75 105 62.95C105 56.45 99.7 51.25 93.3 51.25C86.8 51.25 81.6 56.55 81.6 62.95C81.6 67.75 84.5 71.95 88.7 73.75H75.4V27.05C79.8 26.05 83.2 22.65 84.2 18.25H102.6C103.6 22.65 107 26.05 111.4 27.05V34.65C111.4 36.05 112.5 37.15 113.9 37.15C115.3 37.15 116.4 36.05 116.4 34.65V24.85C116.4 23.45 115.3 22.35 113.9 22.35C110.3 22.35 107.3 19.35 107.3 15.75C107.3 14.35 106.2 13.25 104.8 13.25H82C80.6 13.25 79.5 14.35 79.5 15.75C79.5 19.35 76.5 22.35 72.9 22.35C71.5 22.35 70.4 23.45 70.4 24.85V73.65H65.6V5.04999H121V120.75H121.1ZM93.4 69.75C89.6 69.75 86.6 66.65 86.6 62.95C86.6 59.15 89.7 56.15 93.4 56.15C97.2 56.15 100.2 59.25 100.2 62.95C100.3 66.65 97.2 69.75 93.4 69.75Z" fill="#383777"/>
</svg>
